<svg xmlns="http://www.w3.org/2000/svg" xmlns:xlink="http://www.w3.org/1999/xlink" viewBox="0 0 738.58 388.53"><defs><style>.cls-1{fill:#fff;}.cls-2{fill:url(#Dégradé_sans_nom_75);}.cls-3{fill:#d11cb8;}.cls-4{fill:#2d2d2b;}.cls-5,.cls-8{fill:none;stroke-miterlimit:10;}.cls-5{stroke:#1d1d1b;}.cls-6{fill:url(#Dégradé_sans_nom_125);}.cls-7{fill:#1d1d1b;}.cls-8{stroke:#3c3c3b;stroke-width:0.5px;}</style><linearGradient id="Dégradé_sans_nom_75" x1="538.24" y1="-98.36" x2="200.34" y2="486.89" gradientUnits="userSpaceOnUse"><stop offset="0" stop-color="#545452"/><stop offset="0.01" stop-color="#515150"/><stop offset="0.11" stop-color="#3a3a39"/><stop offset="0.21" stop-color="#292929"/><stop offset="0.33" stop-color="#1f1f1f"/><stop offset="0.47" stop-color="#1c1c1c"/><stop offset="0.73" stop-color="#1e1e1e"/><stop offset="0.82" stop-color="#252524"/><stop offset="0.89" stop-color="#303030"/><stop offset="0.94" stop-color="#414140"/><stop offset="0.96" stop-color="#484847"/></linearGradient><linearGradient id="Dégradé_sans_nom_125" x1="442.41" y1="423.51" x2="296.17" y2="170.21" gradientUnits="userSpaceOnUse"><stop offset="0.02" stop-color="#6059e0"/><stop offset="0.11" stop-color="#847ee7"/><stop offset="0.31" stop-color="#c6c3f4"/><stop offset="0.45" stop-color="#efeefc"/><stop offset="0.52" stop-color="#fff"/><stop offset="0.9" stop-color="#9c9c9c"/></linearGradient></defs><title>cassette</title><g id="Calque_5" data-name="Calque 5"><rect class="cls-1" width="738.58" height="388.53" rx="12"/><rect class="cls-2" x="7.37" y="7.97" width="723.83" height="372.6" rx="12"/><rect class="cls-3" x="1836.45" y="145.75" width="144.78" height="10.08" rx="2.19" transform="translate(-1364.44 -1145.55) rotate(34.86)"/><rect class="cls-3" x="1797.03" y="143.44" width="144.78" height="10.08" rx="2.19" transform="translate(-1372.83 -1123.44) rotate(34.86)"/><rect class="cls-3" x="1802.09" y="172.25" width="144.78" height="10.08" rx="2.19" transform="translate(-1355.46 -1121.16) rotate(34.86)"/><rect class="cls-3" x="2346.91" y="400.32" width="144.78" height="10.08" rx="2.19" transform="translate(2359.69 2059.32) rotate(-144.48)"/><rect class="cls-3" x="2384.04" y="401.17" width="144.78" height="10.08" rx="2.19" transform="translate(2426.53 2082.44) rotate(-144.48)"/><rect class="cls-3" x="2381.58" y="374.22" width="144.78" height="10.08" rx="2.19" transform="translate(2437.74 2032.12) rotate(-144.48)"/><rect class="cls-4" x="308.05" y="200.06" width="133.34" height="55.47"/><circle class="cls-3" cx="260.92" cy="222.14" r="82.99"/><circle class="cls-3" cx="491.33" cy="222.14" r="82.99"/><path class="cls-3" d="M2023.39,462.8h298.73l51.44-60.21h-411.5l52.86,61.88A22.25,22.25,0,0,1,2023.39,462.8Z" transform="translate(-1793.08 -81.68)"/><line class="cls-5" x1="239.87" y1="353.14" x2="369.24" y2="353.14"/><line class="cls-5" x1="380.21" y1="353.14" x2="509.58" y2="353.14"/><line class="cls-5" x1="310.04" y1="361.76" x2="439.41" y2="361.76"/><line class="cls-5" x1="340.2" y1="370.71" x2="409.25" y2="370.71"/><line class="cls-5" x1="301.17" y1="344.02" x2="448.29" y2="344.02"/><line class="cls-5" x1="380.21" y1="334.91" x2="527.33" y2="334.91"/><line class="cls-5" x1="222.12" y1="334.91" x2="369.24" y2="334.91"/><rect class="cls-1" x="215.58" y="380.57" width="315.64" height="7.97"/><rect class="cls-6" x="90.88" y="288.74" width="556.82" height="16.25"/><path class="cls-7" d="M2331.8,264.29H1992.94c-10.38,0-18.87,8.24-18.87,18.32v48.05c0,10.08,8.49,18.32,18.87,18.32H2331.8c10.38,0,18.87-8.24,18.87-18.32V282.61C2350.67,272.53,2342.18,264.29,2331.8,264.29ZM2053,339.51c-18.7,0-33.87-14.72-33.87-32.88s15.17-32.87,33.87-32.87,33.87,14.72,33.87,32.87S2071.71,339.51,2053,339.51ZM2225,330H2110.55V289H2225Zm58.14,9.56c-18.7,0-33.87-14.72-33.87-32.88s15.17-32.87,33.87-32.87S2317,288.48,2317,306.63,2301.84,339.51,2283.13,339.51Z" transform="translate(-1793.08 -81.68)"/><path class="cls-1" d="M2405.18,160.07H1919.56c-19.66,0-35.6,20.74-35.6,46.33V374.6h556.82V206.4C2440.78,180.81,2424.84,160.07,2405.18,160.07Zm-54.51,170.59c0,10.08-8.49,18.32-18.87,18.32H1992.94c-10.38,0-18.87-8.24-18.87-18.32V282.61c0-10.08,8.49-18.32,18.87-18.32H2331.8c10.38,0,18.87,8.24,18.87,18.32Z" transform="translate(-1793.08 -81.68)"/><circle class="cls-1" cx="707.53" cy="31.42" r="8.81"/><path class="cls-3" d="M2503.45,115.23c-.68-.25-1.75-.91-2.49-.81s-1.58,1-2.17,1.44l1.12.65c0-.74.35-2,0-2.71s-1.54-1.21-2.15-1.65l-.17,1.37c.71-.21,2-.3,2.57-.84s.69-1.84.93-2.55l-1.37.18c.42.62.91,1.83,1.57,2.2s2,.12,2.72.13l-.53-1.29c-.46.59-1.46,1.44-1.63,2.18s.48,1.9.7,2.62c.29.92,1.74.52,1.45-.4l-.7-2.22-.2.73,1.44-1.84a.76.76,0,0,0-.53-1.28l-2.34,0,.65.37-1.31-1.93a.76.76,0,0,0-1.37.18l-.74,2.21.53-.53-2.24.65a.76.76,0,0,0-.18,1.37l1.87,1.39-.37-.65-.08,2.33a.76.76,0,0,0,1.13.65l.95-.68c.23-.16,1.23-.71.66-.62s.56.33.81.42l1.1.39C2504,117,2504.36,115.55,2503.45,115.23Z" transform="translate(-1793.08 -81.68)"/><line class="cls-8" x1="230.72" y1="162.55" x2="529.9" y2="162.55"/><line class="cls-8" x1="230.72" y1="123.09" x2="529.9" y2="123.09"/><circle class="cls-1" cx="31.33" cy="358.13" r="8.81"/><path class="cls-3" d="M1827.26,441.93c-.69-.25-1.75-.91-2.5-.81s-1.58,1-2.17,1.45l1.13.65c0-.74.34-2,0-2.71s-1.54-1.21-2.14-1.66l-.18,1.37c.71-.2,2-.3,2.57-.84s.69-1.83.93-2.54l-1.37.18c.42.62.91,1.82,1.58,2.2s2,.12,2.71.12l-.53-1.28c-.46.59-1.46,1.43-1.63,2.17s.48,1.91.7,2.63c.29.91,1.74.52,1.45-.4l-.7-2.23-.2.73,1.44-1.84a.76.76,0,0,0-.53-1.28l-2.34,0,.65.37-1.31-1.93a.76.76,0,0,0-1.37.18l-.73,2.21.52-.52-2.24.65a.76.76,0,0,0-.18,1.37l1.87,1.38-.37-.64-.07,2.33a.75.75,0,0,0,1.12.65l1-.68c.23-.16,1.23-.71.66-.63s.56.33.81.42l1.1.4C1827.77,443.71,1828.16,442.26,1827.26,441.93Z" transform="translate(-1793.08 -81.68)"/><path d="M2026.24,203.26a15.67,15.67,0,0,1,.43-4.61,52.76,52.76,0,0,1,4-10.92c3.92-7.64,10.29-13.94,15.67-15.46,2.26-.6,4.15.3,4.62,2.24s-.94,6.37-3.16,10c-1.27,2.06-2.22,3.21-2.59,3.21-.57,0-.52-.48.09-1.27,2.5-3.21,4.58-8.07,4.58-10.73,0-1.28,0-1.34-.52-1.82a1.68,1.68,0,0,0-1.46-.49c-2.46,0-6,2.12-9.49,5.64a41,41,0,0,0-9.62,16.31c-1.47,4.31-1.89,7.64-1.37,10.74.42,2.42,1.37,4,2.92,4.67a8.44,8.44,0,0,0,5.85-.25,27.28,27.28,0,0,0,7.27-4.42,78.19,78.19,0,0,0,7.69-7.1c2.26-2.42,2.83-2.85,3.07-2.24.09.18-.62,1-2.41,2.91-6.7,7.09-11.18,10.49-15.62,11.82-2.12.61-4.1,1-6.22.12-1.75-.72-2.88-2.24-3.59-4.6a14.06,14.06,0,0,1-.28-3.82Z" transform="translate(-1793.08 -81.68)"/><path d="M2072.05,194.65c0,.12-.19.48-.56,1a22.76,22.76,0,0,1-5.24,4.42c-1.28.55-2.64.19-3-.78a10,10,0,0,1-.19-2.13,4.26,4.26,0,0,0-.14-1.57c-.38,0-2.32,1.57-4.16,3.39a13.94,13.94,0,0,1-2.31,2.06.74.74,0,0,1-.47-.24c-.28-.36-.19-.91.57-3.09,1.69-4.79,8.11-16.68,9.24-17.1.43-.18.71-.06.62.48a15.76,15.76,0,0,1-1.28,2.37c-1.7,2.85-3.53,6.24-4.95,9.09a46.22,46.22,0,0,0-2.55,5.89,7.56,7.56,0,0,0,1.56-1.34c1.51-1.51,3.35-2.79,4-2.79a1.39,1.39,0,0,1,.66.25c.29.24.33.54.43,2.42l0,1.27c.05.91.19.91.66,1s.85-.12,1.84-.78c1.18-.79,3.87-3.28,4.3-3.58s.75-.49.89-.12Z" transform="translate(-1793.08 -81.68)"/><path d="M2083.75,195c.9-.79,1.13-.73,1.13-.06a2.49,2.49,0,0,1-.52.85,25.3,25.3,0,0,1-3.86,3.82c-2.08,1.52-3.26,1.7-4.2.73a1.76,1.76,0,0,1-.57-1.64v-1l-1.13,1.09c-2.17,2.12-3.73,2.85-4.58,2.18-1.18-.91.43-4.61,2.74-6.3a3.14,3.14,0,0,1,1.79-.73A1.51,1.51,0,0,1,2076,195l.24.61.47-.49c.52-.54.71-.6,1-.24s.14.48-.28,1.45c-.62,1.46-.8,2.55-.52,3.1.19.3.33.36.9.3,1.08-.12,2.4-1,4.57-3.27.62-.61,1.09-1.1,1.46-1.4Zm-9.48,2.67c1.08-1,1.13-1.09,1-1.7a2.18,2.18,0,0,0-.33-.79.33.33,0,0,0-.24-.12c-1-.06-3.63,2.79-4,4.55-.14.79.14.73,1.37-.18.52-.43,1.46-1.22,2.07-1.82Z" transform="translate(-1793.08 -81.68)"/><path d="M2100.36,194.46c0,.19-.24.61-.76,1.16a27.07,27.07,0,0,1-5.61,4.61c-1.7,1-2.83.84-3.4-.31-.33-.66-.24-1.39.38-3.45a6.41,6.41,0,0,0,.33-1.52c-.24-.24-2.55,1.52-3.82,2.91a14.07,14.07,0,0,1-3.35,2.91.89.89,0,0,1-.62-.3,1.08,1.08,0,0,1-.19-.91c.19-1.34,2-5.28,2.69-5.7.19-.12.33-.12.52.12s.29.36-.14,1.09a34,34,0,0,0-1.89,4.06c-.09.31.43-.12,1.75-1.45,3.11-3.09,4.86-4.12,5.66-3.34.47.43.42,1.28-.09,2.91-.48,1.46-.57,2.61-.24,2.73.85.31,3.4-1.39,6.7-4.42,1.32-1.22,1.75-1.4,1.93-.85Z" transform="translate(-1793.08 -81.68)"/><path d="M2108.33,194.89c1.32-.67,1.7-.67,1.7-.06,0,.3-.29.54-1.28,1-.71.36-2.31,1.09-3.82,1.82l-2.69,1.39-.09,1a3.73,3.73,0,0,1-1.8,3,2.33,2.33,0,0,1-2.26.13c-.42-.31-.42-1.34,0-1.94a13.86,13.86,0,0,1,2.36-2.19l.38-.24-.29-1.58c-.28-1.39-.28-1.63,0-2.3s.75-1.27,1.17-1.27a.51.51,0,0,1,.29.06c.47.24.47.6.05.91s-.67,1.09-.43,2.24.33,1.33.66,1c.14-.12,1.32-.73,2.64-1.39s2.79-1.28,3.5-1.64Zm-8.45,6.85c.71-.6,1.28-1.82.85-1.82a10.1,10.1,0,0,0-2,1.94c-.14.31-.09.37.29.37a1.82,1.82,0,0,0,.94-.43Z" transform="translate(-1793.08 -81.68)"/><path d="M2121.68,194.65c.19.3-.19.91-1.51,1.88-2.46,1.82-4.34,2.42-6.28,2.42-.8,0-1,.06-1.08.31a5.7,5.7,0,0,1-2,2.06,1.6,1.6,0,0,1-2-.25c-1.09-1-.8-3.15.71-5.51a4.78,4.78,0,0,1,.94-1.22,4.21,4.21,0,0,0,.66-.42,1.6,1.6,0,0,1,1-.36,1.4,1.4,0,0,1,1,.36,2.75,2.75,0,0,1,.42,3l-.23.85h.75a9.59,9.59,0,0,0,5.62-2.36c1.22-1,1.7-1.28,1.93-.91Zm-9.81,4.18-.43-.3a5,5,0,0,1-1-1l-.38-.67-.38.85a3.3,3.3,0,0,0-.42,2.49c.24.54.57.54,1.32.06a3.3,3.3,0,0,0,.95-.91Zm.8-2.18c.19-1.15,0-1.76-.43-1.82h-.14c-.47.06-1,.85-1,1.51a1.29,1.29,0,0,0,.52,1c.28.24.57.36.66.3a2.84,2.84,0,0,0,.33-1Z" transform="translate(-1793.08 -81.68)"/><path d="M2137.11,194.46c0,.19-.24.61-.76,1.16a27.07,27.07,0,0,1-5.61,4.61c-1.7,1-2.83.84-3.4-.31-.33-.66-.24-1.39.38-3.45a6.41,6.41,0,0,0,.33-1.52c-.24-.24-2.55,1.52-3.82,2.91a14.07,14.07,0,0,1-3.35,2.91.89.89,0,0,1-.62-.3,1.08,1.08,0,0,1-.19-.91c.19-1.34,2-5.28,2.69-5.7.19-.12.33-.12.52.12s.29.36-.14,1.09a34,34,0,0,0-1.89,4.06c-.09.31.43-.12,1.75-1.45,3.11-3.09,4.86-4.12,5.66-3.34.47.43.42,1.28-.09,2.91-.48,1.46-.57,2.61-.24,2.73.85.31,3.4-1.39,6.7-4.42,1.32-1.22,1.75-1.4,1.93-.85Z" transform="translate(-1793.08 -81.68)"/><path d="M2145.08,194.89c1.32-.67,1.7-.67,1.7-.06,0,.3-.29.54-1.28,1-.71.36-2.31,1.09-3.82,1.82l-2.69,1.39-.09,1a3.73,3.73,0,0,1-1.8,3,2.33,2.33,0,0,1-2.26.13c-.42-.31-.42-1.34,0-1.94a13.86,13.86,0,0,1,2.36-2.19l.38-.24-.29-1.58c-.28-1.39-.28-1.63,0-2.3s.75-1.27,1.17-1.27a.51.51,0,0,1,.29.06c.47.24.47.6.05.91s-.67,1.09-.43,2.24.33,1.33.66,1c.14-.12,1.32-.73,2.64-1.39s2.79-1.28,3.5-1.64Zm-8.45,6.85c.71-.6,1.28-1.82.85-1.82a10.1,10.1,0,0,0-2,1.94c-.14.31-.09.37.29.37a1.82,1.82,0,0,0,.94-.43Z" transform="translate(-1793.08 -81.68)"/><path d="M2181.5,194.46c.56.25.19.85-1.75,2.79-3.68,3.64-5.23,4.67-6.7,4.37a2.22,2.22,0,0,1-.75-.55c-.38-.42-.43-.6-.43-2a10.43,10.43,0,0,1,.48-3.15c.7-2.43.7-2.43-.24-.91a22.23,22.23,0,0,1-3.78,4.91c-1.36,1-2.59.61-2.59-.79a8.25,8.25,0,0,1,2.55-5.09,1.38,1.38,0,0,1,2.12.18l.57.61,1-1.76c.94-1.64,2.26-4.12,4.91-9.28,1-1.94,1.41-2.6,1.74-2.6a.57.57,0,0,1,.28.12c.38.3.33.54-.33,1.82-2.69,5.15-6,15-5.56,16.73.28,1.21,2,.37,4.81-2.3s3.54-3.28,3.82-3.16Zm-12.32,3c1.09-1.46,1.09-1.52.85-2s-.42-.67-.66-.67a1.2,1.2,0,0,0-.37.12c-.81.48-2.41,3.76-2.17,4.43.14.42,1.08-.37,2.31-1.94Z" transform="translate(-1793.08 -81.68)"/><path d="M2193.53,194.65c.19.3-.19.91-1.51,1.88-2.46,1.82-4.34,2.42-6.28,2.42-.8,0-1,.06-1.08.31a5.7,5.7,0,0,1-2,2.06,1.6,1.6,0,0,1-2-.25c-1.09-1-.8-3.15.71-5.51a4.78,4.78,0,0,1,.94-1.22,4.21,4.21,0,0,0,.66-.42,1.6,1.6,0,0,1,1-.36,1.4,1.4,0,0,1,1,.36,2.75,2.75,0,0,1,.42,3l-.23.85h.75a9.59,9.59,0,0,0,5.62-2.36c1.22-1,1.7-1.28,1.93-.91Zm-9.82,4.18-.42-.3a5,5,0,0,1-1-1l-.38-.67-.38.85a3.3,3.3,0,0,0-.42,2.49c.24.54.57.54,1.32.06a3.15,3.15,0,0,0,.94-.91Zm.81-2.18c.19-1.15,0-1.76-.43-1.82H2184c-.47.06-1,.85-1,1.51a1.29,1.29,0,0,0,.52,1c.28.24.56.36.66.3a2.84,2.84,0,0,0,.33-1Z" transform="translate(-1793.08 -81.68)"/><path d="M2207.26,194.77c.18.42,0,.73-1.84,2.3-2.55,2.25-4.91,3.7-6.09,3.64-1.37-.06-1.7-1.27-1.6-2.36l.09-1.22-1.27,1.34c-2.08,2.12-3.17,2.48-3.87,1.39-.43-.67-.1-2.24.85-4.3.8-1.7,1.13-2,1.6-1.52.24.24.19.36-.38,1.58-.33.72-.7,1.63-.85,2.06-.28.85-.33,1.82-.09,1.82a20.66,20.66,0,0,0,3.49-3.22c1.7-1.75,2.12-2,2.36-1.33a7.63,7.63,0,0,1-.42,1.94,12.24,12.24,0,0,0-.52,2.12c0,1.58,2.54.31,6.7-3.33.37-.37.75-.67,1-.91s.71-.43.85-.06Z" transform="translate(-1793.08 -81.68)"/><path d="M2216.69,196c1.65-1.45,2.31-1.76,2.31-1a3.39,3.39,0,0,1-1,1.27,31.47,31.47,0,0,1-5.47,4.07c-1.42.78-3.4,1.33-4.06,1.09a3.33,3.33,0,0,0-.61-.18,2.6,2.6,0,0,1-1.65-3.22c.56-2.73,2.64-4.85,4.05-4.18.9.42,1.28,2.48.48,2.48-.38,0-.52-.24-.67-1a.93.93,0,0,0-.28-.6c-.38-.12-1.65,1.27-2.12,2.36-.8,1.76-.61,2.79.52,3.1,1.74.48,4.29-.67,8.44-4.31Z" transform="translate(-1793.08 -81.68)"/><path d="M2227.64,195.74c1.69-1.7,1.88-1.21,1.84-.85a6.2,6.2,0,0,1-1.56,2c-3.49,3.52-5.9,4.85-8,4.43a2.66,2.66,0,0,1-2.32-3c.19-2.13,2.22-4.43,3.68-4.43a1.06,1.06,0,0,1,.57.18c.8.49.75,1.58-.19,2.61a2.28,2.28,0,0,1-1.65.79c-.94.06-1-.12-1.18.24a2.68,2.68,0,0,0-.09,1.09c0,1,.66,1.46,1.84,1.46,1.65,0,3.77-1.4,7-4.61Zm-7.55-.18c-.33.36-.38.54-.24.66s.28.19.9-.18c.47-.3.85-1,.66-1.15h-.1a2.75,2.75,0,0,0-1.27.85Z" transform="translate(-1793.08 -81.68)"/><path d="M2237.54,194.89c1.32-.67,1.7-.67,1.7-.06,0,.3-.28.54-1.27,1-.71.36-2.31,1.09-3.82,1.82l-2.69,1.39-.1,1a3.75,3.75,0,0,1-1.79,3,2.35,2.35,0,0,1-2.27.13c-.42-.31-.42-1.34,0-1.94a14.25,14.25,0,0,1,2.36-2.19l.38-.24-.28-1.58c-.29-1.39-.29-1.63-.05-2.3s.75-1.27,1.18-1.27a.48.48,0,0,1,.28.06c.47.24.47.6,0,.91s-.66,1.09-.42,2.24.33,1.33.66,1c.14-.12,1.32-.73,2.64-1.39s2.78-1.28,3.49-1.64Zm-8.44,6.85c.7-.6,1.27-1.82.85-1.82a10.1,10.1,0,0,0-2,1.94c-.14.31-.1.37.28.37a1.79,1.79,0,0,0,.94-.43Z" transform="translate(-1793.08 -81.68)"/><path d="M2093.61,237.15c2.93-10.07,9.3-20.14,16-25,2.68-1.94,6.55-3.15,7.64,1.15.33,1.34-.1,4.79-.9,7.1-1.22,3.58-3,7.15-3.54,7.28s-.47-.49.48-2.37a28.32,28.32,0,0,0,2.87-8.37,6.28,6.28,0,0,0,.1-3.21c-.62-2.85-3.07-2.61-6.14-.36-4.43,3.21-10.19,10.61-13.54,18.73-2.69,6.43-3.82,13.22-2.78,16.62,1.27,4.12,4.62,3.45,8.68-1.7.61-.79,1.75-2.43,2.5-3.64,2.17-3.46,4.15-6.73,4.11-6.79a15.68,15.68,0,0,0-3.21.73c-.62.24-.95.06-.8-.49.09-.36.33-.48,1.18-.79,2.78-.91,6.93-1.27,7.31-.66s.09.72-.62.66a5.53,5.53,0,0,0-1.41,0l-.8.12-.85,1.82c-2.12,4.49-5.29,13.28-5.66,15.83-.19,1.21-.48,1.52-.85.91a2.49,2.49,0,0,1,0-1.39,90.2,90.2,0,0,1,2.78-9.16c.38-1,.38-1.15.1-.79-3.59,5.28-4.81,6.73-6.84,8.07-1.65,1-3.3,1.27-4.63.3s-2.12-2.85-2.36-5.7a34.08,34.08,0,0,1,1.23-8.91Z" transform="translate(-1793.08 -81.68)"/><path d="M2127.77,235.2c1-.48,1.51-.48,1.51.07,0,.18-.24.42-.61.66a6.11,6.11,0,0,1-2.46.73,2.68,2.68,0,0,1-2.64-1.09c-.23-.3-.47-.55-.57-.55a29.43,29.43,0,0,0-3.63,4.49,9,9,0,0,1-1.7,2.06.63.63,0,0,1-.42-.24c-.28-.36.24-2,1.46-4.55,1-2.18,1.37-2.55,1.79-2.06.24.24.24.3-.09,1s-.33.73,1.09-.73c1.74-1.76,2-1.82,2.54-.6a1.59,1.59,0,0,0,1.75,1.09,4.48,4.48,0,0,0,1.93-.43Z" transform="translate(-1793.08 -81.68)"/><path d="M2139.89,236.05c1.7-1.69,1.89-1.21,1.84-.85a6.06,6.06,0,0,1-1.55,2c-3.49,3.51-5.9,4.85-8,4.42a2.65,2.65,0,0,1-2.31-3c.19-2.12,2.22-4.43,3.68-4.43a1,1,0,0,1,.57.19c.8.48.75,1.57-.19,2.6a2.26,2.26,0,0,1-1.65.79c-1,.06-1-.12-1.18.24a2.72,2.72,0,0,0-.1,1.1c.05,1,.66,1.45,1.84,1.45,1.66,0,3.78-1.39,7-4.61Zm-8.35-2.91a8.09,8.09,0,0,1,2.6-2.54c.89-.13.71.48-.62,1.69S2131.45,233.87,2131.54,233.14Zm.8,2.73c-.33.37-.37.55-.23.67s.28.18.9-.18c.47-.31.84-1,.66-1.16h-.1a2.83,2.83,0,0,0-1.27.85Z" transform="translate(-1793.08 -81.68)"/><path d="M2154.8,234.72c.43.24.24.61-.89,1.33-.38.25-.9.55-1.51.91-3.12,1.76-4,2.43-4.3,3-.14.25-.75,1.4-1.37,2.61a30.31,30.31,0,0,1-4.9,7.22c-2.17,2.24-4.25,3.09-5.1,2.12-1.08-1.21.57-4.18,4.3-7.64,1.69-1.58,4.15-3.64,5.42-4.61.61-.48.76-.73,1.23-2.3a8.64,8.64,0,0,0,.42-1.88c-.28-.31-1.08.36-3.44,2.79-2.6,2.73-3.35,3.27-4.15,3-1.42-.37-.62-3.58,1.46-5.88.9-1,1.08-1.16,1.79-1.22s.9,0,1.28.37a2.07,2.07,0,0,1,.51.73c.1.24.24.18,1.09-.43,1.13-.79,1.65-.85,2.17-.3.33.3.38.48.28,1.45,0,.61-.14,1.28-.18,1.52s.09.3,1.32-.49a24.45,24.45,0,0,1,3.2-1.75,4.89,4.89,0,0,1,1.37-.49h.1Zm-10.57,9.34c1-1.76,1.56-2.55,1.42-2.55a16,16,0,0,0-2,1.64c-3.58,3.09-6.23,6.24-6.23,7.52,0,.48.05.54.47.42a5.11,5.11,0,0,0,1.14-.54,21.07,21.07,0,0,0,5.28-6.37Zm-1.13-5.82c1.28-1.34,1.84-2.07,1.75-2.19l-.43-.54c-.09-.18-.14-.24-.23-.24a1.49,1.49,0,0,0-.57.24,9,9,0,0,0-2.45,3.51c-.66,1.82-.33,1.7,2-.72Z" transform="translate(-1793.08 -81.68)"/><path d="M2167.16,235c.19.31-.19.91-1.51,1.88-2.45,1.82-4.34,2.43-6.27,2.43-.8,0-1,.06-1.09.3a5.48,5.48,0,0,1-2,2.06,1.58,1.58,0,0,1-2-.24c-1.08-1-.8-3.15.71-5.52a5.12,5.12,0,0,1,.94-1.21,3.4,3.4,0,0,0,.66-.43,1.62,1.62,0,0,1,1-.36,1.39,1.39,0,0,1,1,.36,2.76,2.76,0,0,1,.43,3l-.24.85h.76a9.55,9.55,0,0,0,5.61-2.37c1.23-1,1.7-1.27,1.93-.91Zm-9.81,4.19-.43-.31a4.58,4.58,0,0,1-1-1l-.37-.66-.38.84a3.33,3.33,0,0,0-.43,2.49c.24.55.57.55,1.32.06a3.06,3.06,0,0,0,.95-.91Zm.8-2.19c.19-1.15,0-1.75-.42-1.82h-.15c-.47.07-1,.85-1,1.52a1.29,1.29,0,0,0,.52,1c.29.24.57.37.66.3a2.58,2.58,0,0,0,.33-1Z" transform="translate(-1793.08 -81.68)"/><path d="M2174.71,236.05c1.51-1.27,2.12-1.51,2.22-.91,0,.13-.38.49-.95,1a36.43,36.43,0,0,1-4.48,3.4c-2,1.27-2.73,1.58-3.73,1.58a1.49,1.49,0,0,1-1.32-.55,1.45,1.45,0,0,1-.52-1.15,9.75,9.75,0,0,1,1.14-3.58c.66-1.27,1-1.82,1.37-1.82.14,0,.28.12.42.31s.09.54-.61,2c-1.32,2.73-1.42,3.76-.29,3.76s3.73-1.52,6.8-4.07Zm-5.19-4.3c-.14-.37.76-1.88,1.09-1.82.56.12.61.61.14,1.33S2169.71,232.23,2169.52,231.75Z" transform="translate(-1793.08 -81.68)"/><path d="M2185.75,235.2c1-.48,1.51-.48,1.51.07,0,.18-.24.42-.61.66a6.11,6.11,0,0,1-2.46.73,2.67,2.67,0,0,1-2.64-1.09c-.24-.3-.47-.55-.57-.55a29.43,29.43,0,0,0-3.63,4.49,9.28,9.28,0,0,1-1.7,2.06.63.63,0,0,1-.42-.24c-.29-.36.23-2,1.46-4.55,1-2.18,1.37-2.55,1.79-2.06.24.24.24.3-.09,1s-.33.73,1.08-.73c1.75-1.76,2-1.82,2.55-.6a1.58,1.58,0,0,0,1.75,1.09,4.51,4.51,0,0,0,1.93-.43Z" transform="translate(-1793.08 -81.68)"/><path d="M2197.87,236.11c1.7-1.69,1.89-1.21,1.84-.84a6.19,6.19,0,0,1-1.55,2c-3.5,3.51-5.9,4.85-8,4.42a2.65,2.65,0,0,1-2.31-3c.19-2.12,2.22-4.43,3.68-4.43a1.08,1.08,0,0,1,.57.19c.8.48.75,1.57-.19,2.6a2.26,2.26,0,0,1-1.65.79c-1,.06-1-.12-1.18.25a2.65,2.65,0,0,0-.1,1.09c.05,1,.66,1.45,1.84,1.45,1.65,0,3.78-1.39,7-4.61Zm-7.55-.18c-.33.37-.37.55-.23.67s.28.18.89-.18.85-1,.66-1.15h-.09a2.74,2.74,0,0,0-1.27.84Z" transform="translate(-1793.08 -81.68)"/><path d="M2228.58,236.11c1.7-1.69,1.89-1.21,1.84-.84a6.19,6.19,0,0,1-1.55,2c-3.49,3.51-5.9,4.85-8,4.42a2.65,2.65,0,0,1-2.31-3c.19-2.12,2.22-4.43,3.68-4.43a1.08,1.08,0,0,1,.57.19c.8.48.75,1.57-.19,2.6a2.26,2.26,0,0,1-1.65.79c-.95.06-1-.12-1.18.25a2.65,2.65,0,0,0-.1,1.09c.05,1,.67,1.45,1.84,1.45,1.66,0,3.78-1.39,7-4.61Zm-7.54-.18c-.33.37-.38.55-.24.67s.28.18.9-.18.84-1,.66-1.15h-.1a2.79,2.79,0,0,0-1.27.84Z" transform="translate(-1793.08 -81.68)"/><path d="M2241.23,225.75c5.38.06,5.66.12,5.56.9,0,.43-.89.61-1.22.31a80.79,80.79,0,0,0-9.44-.06c-.56.12-.66.24-1.18,1.39-.33.67-1,2.18-1.55,3.34-7.32,16.13-8.54,19.46-8.54,20.61a2.43,2.43,0,0,1-.15,1,.69.69,0,0,1-1.13-.12c-.33-.66,1.51-5.7,4.34-12.06,1-2.37,2.46-5.52,3.12-7s1.65-3.7,2.17-4.85a12.33,12.33,0,0,0,.85-2.18,71.63,71.63,0,0,0-7.65.48c-1.13.19-1.27.19-1.46-.12-.33-.48,0-.73,1.42-1s5.94-.6,7.45-.6h.94l1-2.07c.76-1.45,1.13-2.06,1.37-2.12.66-.12.61.55-.19,2.25a18.94,18.94,0,0,0-.75,1.75c0,.06,2.26.13,5,.19Z" transform="translate(-1793.08 -81.68)"/><path d="M2261.56,255.34a3.16,3.16,0,0,1-1.7-4.43,10.25,10.25,0,0,1,3-3.58c1.65-1.45,3.3-2.48,4-2.48a1.25,1.25,0,0,1,1.37,1.09c0,.36-.57.42-.76.12-.37-.67-2.78.85-5,3.15-2,2.12-2.45,3.7-1.32,4.79.38.37.57.43,1.61.43a8.25,8.25,0,0,0,2.21-.31c6.09-1.69,10.67-5.09,10.71-7.94,0-1.64-.89-2.3-7.21-5.46-4.16-2.06-6.37-4-7.65-6.67a5.16,5.16,0,0,1-.61-3.21,5.45,5.45,0,0,1,.71-3.4,24.13,24.13,0,0,1,5.7-7.33c5.1-4.86,10.43-7.89,15.1-8.55,3.26-.49,5,1,4.67,4.24A10,10,0,0,1,2286,218a35.22,35.22,0,0,1-5.29,10.25c-1.88,2.73-3.58,4.61-4,4.43s-.33-.73.43-1.58a50.79,50.79,0,0,0,6.22-9.7,21.57,21.57,0,0,0,1.56-4.19c.38-1.57.57-3-.14-3.88-.57-.72-1.46-.91-3.21-.6-4.43.67-10.28,4.24-15.14,9.21-5.81,6-6.66,10-3,14,1.37,1.52,2.55,2.31,7.08,4.67a38.83,38.83,0,0,1,4.58,2.61c3.3,2.73,1.55,6.73-4.34,9.88-3.31,1.76-7.65,2.85-9.3,2.31Z" transform="translate(-1793.08 -81.68)"/><path d="M2293.78,235.39c.9-.79,1.13-.73,1.13-.06a2.24,2.24,0,0,1-.52.84,24.93,24.93,0,0,1-3.86,3.83c-2.08,1.51-3.26,1.69-4.2.72-.52-.54-.57-.72-.57-1.63v-1l-1.13,1.1c-2.17,2.12-3.73,2.85-4.58,2.18-1.18-.91.43-4.61,2.74-6.31a3.21,3.21,0,0,1,1.79-.73,1.52,1.52,0,0,1,1.46,1.1l.24.6.47-.48c.52-.55.71-.61,1-.24s.14.48-.28,1.45c-.61,1.46-.8,2.55-.52,3.09.19.31.33.37.9.31,1.08-.12,2.4-1,4.57-3.28.62-.6,1.09-1.09,1.47-1.39Zm-9.48,2.66c1.08-1,1.13-1.09,1-1.69a1.94,1.94,0,0,0-.33-.79.33.33,0,0,0-.24-.12c-1-.06-3.63,2.79-4,4.55-.14.78.14.72,1.37-.19.52-.42,1.46-1.21,2.07-1.82Z" transform="translate(-1793.08 -81.68)"/><path d="M2304.3,236.36c1.65-1.46,2.31-1.76,2.31-1,0,.18-.37.66-1,1.27a31.93,31.93,0,0,1-5.47,4.06c-1.42.79-3.4,1.34-4.06,1.09a3.33,3.33,0,0,0-.61-.18,2.59,2.59,0,0,1-1.65-3.21c.56-2.73,2.64-4.85,4.05-4.19.9.43,1.28,2.49.48,2.49-.38,0-.52-.24-.66-1a1,1,0,0,0-.29-.61c-.37-.12-1.65,1.28-2.12,2.37-.8,1.76-.61,2.79.52,3.09,1.74.49,4.29-.67,8.44-4.3Z" transform="translate(-1793.08 -81.68)"/><path d="M2321.66,235c.05.12-.19.49-.56,1a22.62,22.62,0,0,1-5.24,4.43c-1.27.55-2.64.18-3-.79a9.82,9.82,0,0,1-.19-2.12,4.33,4.33,0,0,0-.14-1.58c-.38,0-2.31,1.58-4.15,3.4a14.24,14.24,0,0,1-2.32,2.06.77.77,0,0,1-.47-.24c-.28-.37-.19-.91.57-3.1,1.7-4.79,8.11-16.67,9.24-17.1.43-.18.71-.06.62.49a14.9,14.9,0,0,1-1.28,2.36c-1.69,2.85-3.53,6.25-4.95,9.1a45.69,45.69,0,0,0-2.55,5.88,7.31,7.31,0,0,0,1.56-1.33c1.51-1.52,3.35-2.79,4-2.79a1.48,1.48,0,0,1,.66.24c.29.24.33.55.43,2.43l0,1.27c0,.91.19.91.67,1s.84-.12,1.84-.79c1.18-.79,3.86-3.27,4.29-3.58s.75-.48.9-.12Z" transform="translate(-1793.08 -81.68)"/><path d="M2333.36,235.39c.9-.79,1.13-.73,1.13-.06a2.4,2.4,0,0,1-.52.84,24.93,24.93,0,0,1-3.86,3.83c-2.08,1.51-3.26,1.69-4.2.72-.52-.54-.57-.72-.57-1.63v-1l-1.13,1.1c-2.17,2.12-3.73,2.85-4.58,2.18-1.18-.91.43-4.61,2.74-6.31a3.21,3.21,0,0,1,1.79-.73,1.52,1.52,0,0,1,1.46,1.1l.24.6.47-.48c.52-.55.71-.61,1-.24s.14.48-.28,1.45c-.62,1.46-.8,2.55-.52,3.09.19.31.33.37.9.31,1.08-.12,2.4-1,4.57-3.28.62-.6,1.09-1.09,1.47-1.39Zm-9.48,2.66c1.08-1,1.13-1.09,1-1.69a2.1,2.1,0,0,0-.33-.79.33.33,0,0,0-.24-.12c-1-.06-3.63,2.79-4,4.55-.14.78.14.72,1.37-.19.52-.42,1.46-1.21,2.07-1.82Z" transform="translate(-1793.08 -81.68)"/></g></svg>