<svg id="Calque_1" data-name="Calque 1" xmlns="http://www.w3.org/2000/svg" viewBox="0 0 688.53 171.9"><defs><style>.cls-1{fill:#1d1d1b;}.cls-1,.cls-2,.cls-4,.cls-8,.cls-9{stroke:#fff;}.cls-1,.cls-2,.cls-3,.cls-4,.cls-5,.cls-8,.cls-9{stroke-miterlimit:10;}.cls-2,.cls-3,.cls-5,.cls-9{fill:none;}.cls-2,.cls-3{stroke-width:2px;}.cls-3,.cls-5{stroke:#d11cb8;}.cls-4,.cls-6,.cls-8{fill:#fff;}.cls-7{fill:#d11cb8;}.cls-8,.cls-9{stroke-width:0.75px;}</style></defs><title>Circuits sol</title><path class="cls-1" d="M529.56,445.56c-.72-.65,1.1-1.19,4.07-1.2s6,.48,6.8,1.13-1,1.22-4,1.23S530.3,446.22,529.56,445.56Z" transform="translate(-79.88 -410.16)"/><polyline class="cls-2" points="312.68 31.7 292.85 35.46 241.34 35.75 233.33 33.55"/><polyline class="cls-2" points="373.89 31.05 395.77 34.88 446.1 34.6 453.42 32.55"/><path class="cls-1" d="M306.13,443c.68-.59,3.7-1.09,6.74-1.1s5,.45,4.4,1-3.64,1.11-6.76,1.13S305.44,443.61,306.13,443Z" transform="translate(-79.88 -410.16)"/><polyline class="cls-3" points="509.52 170.96 381.28 126.64 373.75 96.92 302.69 75.84"/><polyline class="cls-2" points="350.3 0.26 350.72 1.8 341.14 3.02 346.62 50.25 306.27 60 300.1 87.27 351.42 103.7 358.64 165.03"/><polyline class="cls-3" points="436.46 106.61 353.3 83.43 341.07 87.23"/><polyline class="cls-2" points="304.1 69.61 269.3 78.23 264.25 89.14 121.87 128.22"/><polyline class="cls-3" points="329.05 141.27 329.75 110.72 296.85 98.67"/><polyline class="cls-2" points="487.06 96.18 402.12 75.6 392.54 59.14"/><polyline class="cls-2" points="665.21 119.16 478.23 78.7 446.81 78.96"/><polyline class="cls-3" points="527.65 98.01 414.93 71.45 399.63 46.46 344.99 36.23"/><polyline class="cls-2" points="396.58 41.48 416.71 45.15 430.09 62.28"/><polyline class="cls-2" points="569.36 90.92 484.28 73.24 456.95 73.46"/><polyline class="cls-3" points="519.61 67.16 490.83 61.68 467.18 43.19"/><polyline class="cls-2" points="567.21 71.3 504.31 59.9 484.81 46.05"/><polyline class="cls-2" points="549.79 61.42 504.85 53.65 496.32 47.93 445.54 39.67 407.94 39.89 358.59 30.93 351.08 3.15 356.92 2.32"/><polyline class="cls-2" points="324.9 0.75 324.66 2.44 330.87 3.23 329.12 31.14 281.39 40.34 242.74 40.56 193.08 49.8 185.68 55.64 140.1 64.37"/><polyline class="cls-3" points="175.86 57.33 170.15 55.03 147.74 55.18 76.63 68.31"/><polyline class="cls-2" points="183.18 47.07 162.01 47.2 69.82 62.92"/><polyline class="cls-2" points="275.03 37.62 237.12 37.84 201.09 44.18 172.75 44.35"/><polyline class="cls-2" points="334.32 33.89 290.57 42.94 287.92 49.33 234.34 60.25"/><polyline class="cls-3" points="334.37 41.48 334.41 48.75 222.48 74.74"/><polyline class="cls-2" points="305.37 64.01 251.5 77.25 247 84.82"/><line class="cls-3" x1="201.22" y1="95.38" x2="28.81" y2="141.82"/><polyline class="cls-2" points="360.47 47 362.04 53.35 323.31 63.16 322.77 69.54"/><polyline class="cls-2" points="414.07 36.83 450.39 36.62 486.41 42.45 514.02 42.28"/><polyline class="cls-3" points="616.49 59.36 525.33 45.34 520.7 45.37"/><polyline class="cls-2" points="606.77 63.73 538.03 52.57 519.09 52.7 512.39 54.95"/><polyline class="cls-2" points="224.95 43.87 203 63.93 171.6 70.47"/><polyline class="cls-2" points="123.49 75.14 187.9 61.92 205.95 47.41"/><path class="cls-1" d="M240.86,454.58c1.23-.75,5-1.37,8.42-1.39s5.28.56,4.14,1.31-4.95,1.41-8.46,1.43S239.61,455.34,240.86,454.58Z" transform="translate(-79.88 -410.16)"/><path class="cls-4" d="M205.89,475.82c1.77-1.08,6.52-2,10.63-2s6.12.81,4.48,1.89-6.48,2-10.72,2.06S204.08,476.92,205.89,475.82Z" transform="translate(-79.88 -410.16)"/><path class="cls-5" d="M140.78,480.12c2.41-1.16,7.79-2.11,12.05-2.14s5.9.87,3.64,2-7.78,2.17-12.18,2.21S138.33,481.3,140.78,480.12Z" transform="translate(-79.88 -410.16)"/><path class="cls-4" d="M188.2,486.94c2.09-1.28,7.38-2.33,11.85-2.37s6.54,1,4.6,2.24-7.34,2.4-12,2.44S186.07,488.24,188.2,486.94Z" transform="translate(-79.88 -410.16)"/><path class="cls-6" d="M238.28,482.1c1.57-1.19,6.31-2.17,10.61-2.2s6.65.89,5.22,2.08-6.25,2.24-10.7,2.27S236.68,483.31,238.28,482.1Z" transform="translate(-79.88 -410.16)"/><path class="cls-4" d="M302.91,471.61c.91-1,4.85-1.84,8.8-1.87s6.52.76,5.73,1.77-4.77,1.9-8.84,1.93S302,472.64,302.91,471.61Z" transform="translate(-79.88 -410.16)"/><path class="cls-1" d="M317.08,496.82c1-1.47,5.57-2.67,10.32-2.71s8,1.09,7.17,2.56-5.44,2.76-10.36,2.8S316.1,498.31,317.08,496.82Z" transform="translate(-79.88 -410.16)"/><path class="cls-7" d="M396.63,556c.23-2.87,5.75-5.2,12.31-5.27s12,2.12,12.07,5-5.4,5.46-12.31,5.54S396.39,558.93,396.63,556Z" transform="translate(-79.88 -410.16)"/><path class="cls-7" d="M513.82,519.43c-1.14-1.95,2.32-3.54,7.72-3.59s10.85,1.45,12.23,3.39-2,3.69-7.61,3.75S515,521.43,513.82,519.43Z" transform="translate(-79.88 -410.16)"/><path class="cls-8" d="M565.56,508.86c-1.63-1.71,1.17-3.12,6.22-3.16s10.6,1.28,12.43,3-.84,3.24-6.09,3.29S567.22,510.62,565.56,508.86Z" transform="translate(-79.88 -410.16)"/><path class="cls-6" d="M520.85,483.47c-1-1.21,1.72-2.21,6-2.24s8.62.91,9.73,2.12-1.51,2.29-5.93,2.32S521.84,484.71,520.85,483.47Z" transform="translate(-79.88 -410.16)"/><path class="cls-9" d="M646.74,483c-2.1-1.21-.34-2.2,3.89-2.23s9.44.9,11.68,2.11.63,2.27-3.74,2.3S648.89,484.27,646.74,483Z" transform="translate(-79.88 -410.16)"/><path class="cls-9" d="M263.05,457.23c1.1-.79,4.82-1.44,8.32-1.46s5.54.59,4.54,1.38-4.77,1.47-8.37,1.5S261.94,458,263.05,457.23Z" transform="translate(-79.88 -410.16)"/><path class="cls-6" d="M134.39,474.69c2.36-1.06,7.56-1.94,11.65-2s5.62.8,3.39,1.86-7.56,2-11.78,2S132,475.77,134.39,474.69Z" transform="translate(-79.88 -410.16)"/><path class="cls-8" d="M177.91,542c3-2.5,10.49-4.53,16.7-4.59s9.06,1.85,6.31,4.33-10.43,4.74-16.94,4.81S174.78,544.51,177.91,542Z" transform="translate(-79.88 -410.16)"/><path class="cls-4" d="M744.15,531.68c-4-2.24-2.64-4.06,3.06-4.12s13.72,1.66,18,3.89,3.24,4.24-2.71,4.31S748.3,534,744.15,531.68Z" transform="translate(-79.88 -410.16)"/><path class="cls-4" d="M646.26,502.49c-2.4-1.58-.39-2.88,4.45-2.92s10.79,1.18,13.37,2.76.75,3-4.26,3S648.71,504.11,646.26,502.49Z" transform="translate(-79.88 -410.16)"/><path class="cls-7" d="M597.92,478.65c-1.61-1.13.44-2,4.54-2.09s8.82.85,10.56,2-.21,2.12-4.44,2.16S599.55,479.81,597.92,478.65Z" transform="translate(-79.88 -410.16)"/><path class="cls-4" d="M503.78,473.93c-.76-1.05,1.86-1.91,5.84-1.94s7.91.79,8.79,1.84-1.69,2-5.79,2S504.55,475,503.78,473.93Z" transform="translate(-79.88 -410.16)"/><path class="cls-1" d="M592.75,452.44c-1.25-.72.42-1.31,3.71-1.33s7,.54,8.35,1.26-.27,1.35-3.64,1.37S594,453.17,592.75,452.44Z" transform="translate(-79.88 -410.16)"/><path class="cls-1" d="M466.28,450.9c-.36-.7,2-1.27,5.26-1.29s6.26.52,6.7,1.22-1.89,1.31-5.23,1.33S466.65,451.61,466.28,450.9Z" transform="translate(-79.88 -410.16)"/><path class="cls-4" d="M393.94,481.53c.18-1.18,3.76-2.15,8-2.18s7.65.88,7.62,2.06-3.62,2.22-8,2.26S393.77,482.74,393.94,481.53Z" transform="translate(-79.88 -410.16)"/><path class="cls-1" d="M464.72,467.88c-.41-.95,2.34-1.73,6.14-1.76s7.29.71,7.81,1.66-2.2,1.79-6.11,1.81S465.13,468.85,464.72,467.88Z" transform="translate(-79.88 -410.16)"/><path class="cls-4" d="M627.67,472.61c-1.78-1,0-1.88,3.88-1.91s8.59.77,10.49,1.8.26,1.93-3.77,2S629.48,473.65,627.67,472.61Z" transform="translate(-79.88 -410.16)"/><path class="cls-4" d="M687,475.1c-2.32-1.07-1-2,3-2s9.15.8,11.59,1.87,1.21,2-2.89,2S689.31,476.19,687,475.1Z" transform="translate(-79.88 -410.16)"/><path class="cls-7" d="M695.74,470.65c-2.31-1-1-1.81,2.79-1.84a35.63,35.63,0,0,1,11.3,1.74c2.47,1,1.3,1.87-2.65,1.9S698.09,471.67,695.74,470.65Z" transform="translate(-79.88 -410.16)"/><path class="cls-7" d="M82.29,556.3c4.42-2.88,13.44-5.27,20.24-5.42s9.08,2,5,4.85S94.11,561.25,87,561.41,77.75,559.25,82.29,556.3Z" transform="translate(-79.88 -410.16)"/></svg>