<svg id="Calque_1" data-name="Calque 1" xmlns="http://www.w3.org/2000/svg" viewBox="0 0 503.77 456.11"><defs><style>.cls-1,.cls-2,.cls-3,.cls-4,.cls-5,.cls-6,.cls-7,.cls-8{fill:none;}.cls-1,.cls-5,.cls-7,.cls-8{stroke:#d11cb8;}.cls-1,.cls-2,.cls-3,.cls-4,.cls-5,.cls-6,.cls-7,.cls-8,.cls-9{stroke-miterlimit:10;}.cls-1,.cls-2{stroke-width:4px;}.cls-2,.cls-3,.cls-4,.cls-6,.cls-9{stroke:#fff;}.cls-3,.cls-5{stroke-width:3px;}.cls-4,.cls-7{stroke-width:2px;}.cls-9{fill:#1d1d1b;}.cls-10{fill:#fff;}.cls-11{fill:#d11cb8;}</style></defs><title>Circuits-mur</title><polyline class="cls-1" points="404.4 454.68 405.94 414.63 451.44 388.7 450.82 283.44 481.26 267.52 480.33 143.26"/><polyline class="cls-2" points="387.39 182.96 351.53 160.29 351.73 85.49 328.37 72.14 328.37 31.07"/><polyline class="cls-3" points="205.51 454.42 205.51 418.99 149.86 378.17 148.63 272.4"/><polyline class="cls-3" points="164.93 443.98 164.93 416.43 132.65 394.09 131.93 367.39"/><polyline class="cls-3" points="314.43 427.49 335.34 417.19 334.93 396.66"/><line class="cls-3" x1="267.62" y1="231.28" x2="266.99" y2="41.33"/><polyline class="cls-4" points="223.85 454.42 223.85 403.07 167.69 366.11 164.93 253.4"/><path class="cls-4" d="M365.44,278.79c-1.23,0-17.12-8-17.12-8V258.18l-23.06-22.65V192.27" transform="translate(-169.56 -8.45)"/><polyline class="cls-5" points="181.83 233.5 198.44 214.89 198.44 166.88"/><polyline class="cls-4" points="53.64 304.49 86.54 287.74 86.54 221.56 71.17 207.7"/><polyline class="cls-6" points="34.61 157.25 42.58 147.62 42.58 119.38 31.82 107.32 31.82 100.13"/><polyline class="cls-4" points="66.52 149.71 67.7 112.41 80.7 102.69 80.7 67.78"/><polyline class="cls-7" points="95.88 211.54 74.86 196.4 72.86 153.27 48.42 140.69 49.95 100.13"/><polyline class="cls-7" points="114.14 198.48 92.69 185.36 91.15 138.38 79.47 131.71 79.85 114.18"/><polyline class="cls-7" points="170.77 152.35 151.86 144.54 151.86 89.34"/><polyline class="cls-5" points="239.46 287.1 265.14 272.4 265.14 244.67 233.02 225.93 233.02 146.92 253.16 127.41 252.54 71.12"/><polyline class="cls-3" points="264.92 345.05 239.01 321.69 239.94 250.83"/><polyline class="cls-4" points="388.35 163.1 364.75 148.39 364.75 86.52 384.11 69.83 383.19 41.33"/><polyline class="cls-4" points="315.41 153.72 300.19 141.72 300.19 107.32"/><polyline class="cls-5" points="315.87 176.38 340.46 154.51 340.46 92.17 315.87 80.36 315.87 43.65"/><polyline class="cls-4" points="268.07 207.21 315.87 176.38 315.87 107.32"/><polyline class="cls-5" points="356.21 300.41 343.54 288.83 343.54 256.74 359.52 242.87 359.52 186.82"/><polyline class="cls-2" points="283.89 455.36 284.1 364.82 371.41 287.74 371.41 197.77"/><polyline class="cls-4" points="328.37 282.28 300.19 268.03 300.19 212.58"/><polyline class="cls-4" points="328.98 249.74 347.22 240.31 347.22 189.98"/><polyline class="cls-4" points="387.39 278.23 420.39 258.02 421.62 196.66"/><polyline class="cls-4" points="431.43 267.64 456.36 250.32 456.36 210.01"/><polyline class="cls-4" points="372.14 410.53 347.22 393.83 347.22 358.92 366.28 341.46"/><polyline class="cls-8" points="365.49 406.07 367.82 367.39 382.27 356.35"/><polyline class="cls-4" points="360.39 455.36 360.55 438.76 382.27 425.07"/><polyline class="cls-4" points="450.51 389.96 478.8 376.37 481.26 307.57 502.77 291.39 502.77 241.33"/><polyline class="cls-6" points="75.78 387.24 100.98 367.39 98.53 298.84"/><polyline class="cls-6" points="56.42 364.57 74.24 350.7 73.71 327.16"/><path class="cls-6" d="M268.08,336.3" transform="translate(-169.56 -8.45)"/><path class="cls-6" d="M268.08,325.77" transform="translate(-169.56 -8.45)"/><line class="cls-6" x1="56.05" y1="351.15" x2="37.2" y2="341.46"/><path class="cls-6" d="M206.75,337.33" transform="translate(-169.56 -8.45)"/><path class="cls-6" d="M225.25,346.44" transform="translate(-169.56 -8.45)"/><polyline class="cls-6" points="132.2 384.33 118.51 377.14 118.51 361.23"/><polyline class="cls-7" points="54.32 287.85 40.73 276.5 40.73 256.22"/><polyline class="cls-2" points="181.37 454.42 56.72 375.28 51.18 173.81 22.59 146.34 22.59 94.73 61.33 65.72 61.33 32.6"/><line class="cls-6" x1="149.34" y1="333.09" x2="131.11" y2="328.88"/><polyline class="cls-7" points="128.65 275.19 111.75 265.98 111.75 252.37"/><polyline class="cls-6" points="148.63 306.24 129.27 301.66 127.73 239.28"/><path class="cls-6" d="M218,258.77" transform="translate(-169.56 -8.45)"/><path class="cls-6" d="M241.34,260.82" transform="translate(-169.56 -8.45)"/><path class="cls-6" d="M223.37,270.7" transform="translate(-169.56 -8.45)"/><line class="cls-6" x1="53.88" y1="271.84" x2="71.78" y2="264.18"/><line class="cls-6" x1="55.33" y1="260.05" x2="73.23" y2="252.39"/><polyline class="cls-6" points="95.93 243.67 116.36 236.97 116.36 210.78"/><polyline class="cls-6" points="37.2 182.8 37.2 201.02 52.18 209.94"/><polyline class="cls-6" points="102.29 119.9 102.29 146.34 115.37 156.87"/><polyline class="cls-5" points="149.6 355.24 118.2 347.88 113.9 280.61 96.68 274.19 95.14 212.06 115.13 197.77 115.43 146.34"/><polyline class="cls-7" points="123.73 93.19 123.73 120.67 139.44 128.21"/><polyline class="cls-4" points="170.77 170.93 140.64 156.22 139.44 84.08"/><polyline class="cls-6" points="6.3 46.21 6.3 84.47 22.59 97.32"/><polyline class="cls-5" points="162.24 21.57 161.55 43.65 178.69 56.97"/><polyline class="cls-2" points="219.4 120.41 178.15 82.93 179.68 10.01"/><line class="cls-6" x1="161.55" y1="58.02" x2="178.46" y2="68.21"/><line class="cls-6" x1="161.55" y1="68.81" x2="178.76" y2="78.82"/><polyline class="cls-6" points="206.74 43.65 206.12 77.02 219.4 88.94"/><polyline class="cls-6" points="239.94 68.81 239.94 101.92 253.38 113.53"/><polyline class="cls-6" points="267.6 87.03 285.74 72.91 285.74 46.21"/><path class="cls-6" d="M446.38,54.66" transform="translate(-169.56 -8.45)"/><path class="cls-6" d="M440.85,73.27" transform="translate(-169.56 -8.45)"/><polyline class="cls-6" points="290.97 79.59 290.97 120.92 300.19 129.4"/><line class="cls-6" x1="267.29" y1="131.79" x2="282.67" y2="125.54"/><line class="cls-6" x1="267.33" y1="144.54" x2="282.67" y2="137.29"/><polyline class="cls-6" points="293.8 153.72 293.58 171.5 267.6 189.35"/><path class="cls-6" d="M379.83,158.9" transform="translate(-169.56 -8.45)"/><path class="cls-6" d="M370.76,192.27" transform="translate(-169.56 -8.45)"/><polyline class="cls-6" points="311.26 193.32 311.26 221.31 328.37 228.26"/><polyline class="cls-7" points="309.1 237.44 309.1 256.35 327.55 265.45"/><polyline class="cls-2" points="262.92 455.36 262.92 344.63 328.37 287.8 328.37 207.7"/><polyline class="cls-7" points="276.52 306.88 290.97 295.5 290.97 268.03"/><polyline class="cls-3" points="276.52 332.82 276.52 237.99 246.09 219.86 246.09 158.41"/><path class="cls-6" d="M423,339" transform="translate(-169.56 -8.45)"/><path class="cls-6" d="M439.62,260.82" transform="translate(-169.56 -8.45)"/><polyline class="cls-7" points="206.91 238.76 205.74 332.22 217.23 337.99"/><polyline class="cls-2" points="218.39 370.62 219.65 60.33 239.94 38.25 239.94 15.15"/><polyline class="cls-8" points="172.77 259.3 172.77 282.92 195.57 294.33"/><line class="cls-6" x1="175.69" y1="309.88" x2="194.71" y2="317.04"/><polyline class="cls-1" points="194.04 357.12 195.88 246.47 170.77 222.33 170.77 143.26"/><line class="cls-6" x1="347.22" y1="64.78" x2="347.22" y2="82.75"/><line class="cls-6" x1="364.81" y1="124.63" x2="375.87" y2="118.73"/><polyline class="cls-7" points="385.14 103.08 385.14 134.79 405.73 146.92"/><path class="cls-6" d="M566,147.86" transform="translate(-169.56 -8.45)"/><path class="cls-6" d="M566,122.44" transform="translate(-169.56 -8.45)"/><path class="cls-7" d="M590,135" transform="translate(-169.56 -8.45)"/><path class="cls-6" d="M588.72,117.18" transform="translate(-169.56 -8.45)"/><polyline class="cls-7" points="406.66 139.24 428.38 122.72 428.38 98.59"/><polyline class="cls-6" points="441.91 105.52 443.89 107.7 443.75 137.29 456.36 141.24"/><polyline class="cls-5" points="479.42 165.21 456.36 153.53 456.36 101.92"/><polyline class="cls-6" points="387.39 212.9 398.92 204.1 399.31 171.5"/><polyline class="cls-6" points="387.39 227.75 413.01 212.83 413.78 168.68"/><polyline class="cls-1" points="314.63 455.37 314.84 364.82 387.39 296.36 387.39 163.88 406.66 148.14 406.66 87.55"/><polyline class="cls-7" points="387.39 253.08 402.87 243.9 402.87 230.03"/><path class="cls-6" d="M527.08,274.68c-.77,1,0,19.19,0,19.19l8.55,7" transform="translate(-169.56 -8.45)"/><path class="cls-6" d="M596.4,334" transform="translate(-169.56 -8.45)"/><path class="cls-6" d="M582.57,291.89" transform="translate(-169.56 -8.45)"/><polyline class="cls-7" points="388.42 336.32 388.42 352.75 406.66 361.7"/><polyline class="cls-4" points="406.66 385.54 406.66 331.96 391.18 322.97 391.18 306.03 405.02 295.5 404.1 279.33"/><polyline class="cls-6" points="332.77 364.82 332.77 377.4 347.22 384.85"/><polyline class="cls-6" points="463.22 383.86 463.22 349.25 471.01 339.15 471.01 327.85"/><path class="cls-6" d="M616.18,342.63" transform="translate(-169.56 -8.45)"/><path class="cls-6" d="M609,339" transform="translate(-169.56 -8.45)"/><path class="cls-6" d="M616.18,330.48" transform="translate(-169.56 -8.45)"/><polyline class="cls-6" points="465.88 290.2 465.88 315.21 480.64 324.69"/><polyline class="cls-7" points="431.2 280.87 465.88 256.14 465.88 231.83"/><polyline class="cls-3" points="337.39 455.36 337.39 435.68 429.61 368.93 432.89 186.82"/><polyline class="cls-6" points="456.36 223.67 468.35 215.97 468.19 190.75"/><path class="cls-9" d="M595.86,290.77" transform="translate(-169.56 -8.45)"/><path class="cls-9" d="M251.33,323.72" transform="translate(-169.56 -8.45)"/><line class="cls-6" x1="55.91" y1="338.65" x2="37.05" y2="328.96"/><ellipse class="cls-10" cx="98.53" cy="297.94" rx="4.15" ry="3.47"/><ellipse class="cls-10" cx="75.16" cy="263.03" rx="4.15" ry="3.47"/><ellipse class="cls-10" cx="73.23" cy="253.08" rx="4.15" ry="3.47"/><ellipse class="cls-10" cx="164.93" cy="250.83" rx="4.15" ry="3.47"/><ellipse class="cls-11" cx="40.73" cy="254.3" rx="4.15" ry="3.47"/><ellipse class="cls-11" cx="198.44" cy="164.82" rx="4.15" ry="3.47"/><ellipse class="cls-11" cx="49.8" cy="98.93" rx="4.15" ry="3.47"/><ellipse class="cls-11" cx="388.42" cy="335.68" rx="4.15" ry="3.47"/><ellipse class="cls-10" cx="332.88" cy="363.97" rx="4.15" ry="3.47"/><ellipse class="cls-10" cx="102.29" cy="117.65" rx="4.15" ry="3.47"/><ellipse class="cls-11" cx="123.73" cy="90.63" rx="4.15" ry="3.47"/><ellipse class="cls-10" cx="37.2" cy="181.6" rx="4.15" ry="3.47"/><ellipse class="cls-11" cx="111.74" cy="250.19" rx="4.15" ry="3.47"/><ellipse class="cls-10" cx="129.98" cy="328.45" rx="4.15" ry="3.47"/><ellipse class="cls-10" cx="127.73" cy="237.87" rx="4.15" ry="3.47"/><ellipse class="cls-11" cx="207.14" cy="237.44" rx="4.15" ry="3.47"/><ellipse class="cls-10" cx="116.36" cy="209.24" rx="4.15" ry="3.47"/><ellipse class="cls-10" cx="175.69" cy="309.88" rx="4.15" ry="3.47"/><ellipse class="cls-11" cx="290.97" cy="266.88" rx="4.15" ry="3.47"/><ellipse class="cls-10" cx="73.57" cy="324.51" rx="4.15" ry="3.47"/><polyline class="cls-1" points="240.86 455.36 240.86 384.08 187.98 352.75"/><ellipse class="cls-10" cx="37.2" cy="341.46" rx="4.15" ry="3.47"/><ellipse class="cls-10" cx="36.58" cy="328.88" rx="4.15" ry="3.47"/><ellipse class="cls-10" cx="118.51" cy="359.92" rx="4.15" ry="3.47"/><ellipse class="cls-10" cx="6.92" cy="42.23" rx="6.92" ry="5.78"/><ellipse class="cls-10" cx="139.44" cy="82.75" rx="6.92" ry="5.78"/><ellipse class="cls-11" cx="170.77" cy="140.27" rx="6.92" ry="5.78"/><ellipse class="cls-11" cx="116.36" cy="141.59" rx="6.92" ry="5.78"/><ellipse class="cls-10" cx="155.7" cy="179.29" rx="6.92" ry="5.78"/><ellipse class="cls-10" cx="148.63" cy="268.03" rx="6.92" ry="5.78"/><ellipse class="cls-10" cx="131.93" cy="365.7" rx="6.92" ry="5.78"/><ellipse class="cls-10" cx="387.03" cy="422.72" rx="6.92" ry="5.78"/><ellipse class="cls-10" cx="371.41" cy="337.99" rx="6.92" ry="5.78"/><ellipse class="cls-11" cx="385.14" cy="100.55" rx="6.92" ry="5.78"/><ellipse class="cls-11" cx="407.78" cy="83.44" rx="6.92" ry="5.78"/><ellipse class="cls-10" cx="179.68" cy="5.78" rx="6.92" ry="5.78"/><ellipse class="cls-11" cx="267.63" cy="36.71" rx="6.92" ry="5.78"/><ellipse class="cls-10" cx="239.94" cy="11.55" rx="6.92" ry="5.78"/><ellipse class="cls-11" cx="328.98" cy="27.34" rx="6.92" ry="5.78"/><ellipse class="cls-10" cx="382.79" cy="36.71" rx="6.92" ry="5.78"/><ellipse class="cls-11" cx="456.36" cy="98.59" rx="6.92" ry="5.78"/><ellipse class="cls-10" cx="433.09" cy="182.15" rx="6.92" ry="5.78"/><ellipse class="cls-10" cx="327.55" cy="204.62" rx="9.53" ry="7.96"/><ellipse class="cls-10" cx="371.41" cy="194.73" rx="6.92" ry="5.78"/><ellipse class="cls-10" cx="357.18" cy="263.41" rx="6.92" ry="5.78"/><ellipse class="cls-10" cx="315.87" cy="101.92" rx="6.92" ry="5.78"/><ellipse class="cls-10" cx="300.19" cy="210.91" rx="6.92" ry="5.78"/><ellipse class="cls-10" cx="456.36" cy="205.13" rx="6.92" ry="5.78"/><ellipse class="cls-10" cx="335.34" cy="395.67" rx="4.89" ry="4.08"/><ellipse class="cls-10" cx="182.76" cy="350.7" rx="8.3" ry="6.93"/><ellipse class="cls-10" cx="239.94" cy="245.52" rx="6.92" ry="5.78"/><ellipse class="cls-10" cx="68.25" cy="204.62" rx="6.92" ry="5.78"/><ellipse class="cls-10" cx="246.08" cy="154.51" rx="6.92" ry="5.78"/><ellipse class="cls-10" cx="62.1" cy="29.14" rx="9.07" ry="7.57"/><ellipse class="cls-10" cx="80.7" cy="66.88" rx="4.15" ry="3.47"/><ellipse class="cls-11" cx="151.86" cy="87.55" rx="4.15" ry="3.47"/><ellipse class="cls-10" cx="159.01" cy="67.01" rx="4.15" ry="3.47"/><ellipse class="cls-10" cx="162.31" cy="21.08" rx="4.15" ry="3.47"/><ellipse class="cls-10" cx="239.94" cy="67.01" rx="4.15" ry="3.47"/><ellipse class="cls-10" cx="347.22" cy="64.16" rx="4.15" ry="3.47"/><ellipse class="cls-11" cx="428.38" cy="96.4" rx="4.15" ry="3.47"/><ellipse class="cls-10" cx="413.78" cy="166.88" rx="4.15" ry="3.47"/><ellipse class="cls-10" cx="465.89" cy="230.55" rx="4.15" ry="3.47"/><ellipse class="cls-11" cx="402.87" cy="229.39" rx="4.15" ry="3.47"/><ellipse class="cls-11" cx="309.1" cy="236.97" rx="4.15" ry="3.47"/><ellipse class="cls-10" cx="405.02" cy="279.33" rx="4.15" ry="3.47"/><ellipse class="cls-10" cx="311.26" cy="192.42" rx="4.15" ry="3.47"/><ellipse class="cls-10" cx="399.31" cy="170.34" rx="4.15" ry="3.47"/><ellipse class="cls-10" cx="347.22" cy="187.93" rx="4.15" ry="3.47"/><ellipse class="cls-11" cx="359.52" cy="185.49" rx="4.15" ry="3.47"/><ellipse class="cls-10" cx="468.34" cy="188.96" rx="4.15" ry="3.47"/><ellipse class="cls-10" cx="421.62" cy="196.66" rx="4.15" ry="3.47"/><ellipse class="cls-10" cx="465.89" cy="290.2" rx="4.15" ry="3.47"/><ellipse class="cls-11" cx="382.27" cy="356.35" rx="4.15" ry="3.47"/><ellipse class="cls-10" cx="471.01" cy="329.01" rx="4.15" ry="3.47"/><ellipse class="cls-10" cx="377.09" cy="118.22" rx="4.15" ry="3.47"/><ellipse class="cls-10" cx="443.89" cy="107.32" rx="4.15" ry="3.47"/><ellipse class="cls-10" cx="280.82" cy="138.61" rx="4.15" ry="3.47"/><ellipse class="cls-10" cx="293.8" cy="154.51" rx="4.15" ry="3.47"/><ellipse class="cls-10" cx="280.82" cy="126.57" rx="4.15" ry="3.47"/><ellipse class="cls-10" cx="285.74" cy="45.53" rx="4.15" ry="3.47"/><ellipse class="cls-10" cx="291.17" cy="77.53" rx="4.15" ry="3.47"/><ellipse class="cls-10" cx="207.04" cy="42.73" rx="4.15" ry="3.47"/><ellipse class="cls-10" cx="159.01" cy="56.29" rx="4.15" ry="3.47"/><ellipse class="cls-10" cx="252.61" cy="71.76" rx="4.15" ry="3.47"/><ellipse class="cls-10" cx="315.87" cy="42.49" rx="4.15" ry="3.47"/><ellipse class="cls-10" cx="300.19" cy="105.52" rx="4.15" ry="3.47"/></svg>