<svg xmlns="http://www.w3.org/2000/svg" xmlns:xlink="http://www.w3.org/1999/xlink" viewBox="0 0 557.77 518.61"><defs><style>.cls-1,.cls-4{fill:#d11cb8;}.cls-1{fill-rule:evenodd;}.cls-19,.cls-2{fill:#fff;}.cls-18,.cls-3{fill:none;stroke-width:0.25px;}.cls-3{stroke:#fff;}.cls-15,.cls-16,.cls-18,.cls-3{stroke-miterlimit:10;}.cls-5{fill:url(#Dégradé_sans_nom_57);}.cls-6{fill:url(#Dégradé_sans_nom_57-2);}.cls-7{fill:url(#Dégradé_sans_nom_57-3);}.cls-8{fill:url(#Dégradé_sans_nom_57-4);}.cls-9{fill:url(#Dégradé_sans_nom_57-5);}.cls-10{fill:url(#Dégradé_sans_nom_57-6);}.cls-11{fill:url(#Dégradé_sans_nom_57-7);}.cls-12{fill:url(#Dégradé_sans_nom_57-8);}.cls-13{fill:url(#Dégradé_sans_nom_57-9);}.cls-14{fill:url(#Dégradé_sans_nom_57-10);}.cls-15,.cls-16{stroke:#d11cb8;}.cls-15{stroke-width:0.5px;}.cls-17,.cls-21{fill:#1d1d1b;}.cls-17{opacity:0.67;}.cls-18{stroke:#1d1d1b;}.cls-19{font-size:6.62px;font-family:NeonDesmonRegular, NeonDesmon;letter-spacing:0.15em;}.cls-20{letter-spacing:0.08em;}</style><radialGradient id="Dégradé_sans_nom_57" cx="251.27" cy="321.51" r="4.34" gradientUnits="userSpaceOnUse"><stop offset="0" stop-color="#706f6f"/><stop offset="0.25" stop-color="#535251"/><stop offset="0.55" stop-color="#353534"/><stop offset="0.81" stop-color="#232321"/><stop offset="1" stop-color="#1d1d1b"/></radialGradient><radialGradient id="Dégradé_sans_nom_57-2" cx="280.22" cy="321.51" r="4.34" xlink:href="#Dégradé_sans_nom_57"/><radialGradient id="Dégradé_sans_nom_57-3" cx="294.7" cy="321.51" r="4.34" xlink:href="#Dégradé_sans_nom_57"/><radialGradient id="Dégradé_sans_nom_57-4" cx="309.17" cy="321.51" r="4.34" xlink:href="#Dégradé_sans_nom_57"/><radialGradient id="Dégradé_sans_nom_57-5" cx="265.75" cy="321.51" r="4.34" xlink:href="#Dégradé_sans_nom_57"/><radialGradient id="Dégradé_sans_nom_57-6" cx="251.27" cy="335.3" r="4.34" xlink:href="#Dégradé_sans_nom_57"/><radialGradient id="Dégradé_sans_nom_57-7" cx="265.75" cy="335.3" r="4.34" xlink:href="#Dégradé_sans_nom_57"/><radialGradient id="Dégradé_sans_nom_57-8" cx="280.22" cy="335.3" r="4.34" xlink:href="#Dégradé_sans_nom_57"/><radialGradient id="Dégradé_sans_nom_57-9" cx="294.7" cy="335.3" r="4.34" xlink:href="#Dégradé_sans_nom_57"/><radialGradient id="Dégradé_sans_nom_57-10" cx="309.17" cy="335.3" r="4.34" xlink:href="#Dégradé_sans_nom_57"/></defs><title>Coffre_ Fort_Ouvert</title><g id="Calque_4" data-name="Calque 4"><rect x="0.13" y="290.21" width="556.08" height="228.41"/><path class="cls-1" d="M394,528.93a7.94,7.94,0,0,1-6.5-1.85l.16,0a10.34,10.34,0,0,0,6.76.59,12.88,12.88,0,0,0,3.19-1.18,14,14,0,0,1,5.18-1.64,11.57,11.57,0,0,1,7.7,2,16.26,16.26,0,0,1,4.05,3.93,23.39,23.39,0,0,1,3.68,7.68c0,.09,0,.18.07.27a.18.18,0,0,1,0,.12,37.26,37.26,0,0,0-2.7-4.87,24.12,24.12,0,0,0-3.54-4.31h-.1a1.64,1.64,0,0,1-1.39.45c-.62-.06-1.24-.16-1.85-.25-.46-.06-.91-.14-1.37-.19a3.44,3.44,0,0,0-2.53.6,3.56,3.56,0,0,1,1.13-1.94,5.59,5.59,0,0,1,1.89-1.14l-.22,0a11.49,11.49,0,0,0-6.89,2.12,15.94,15.94,0,0,0-4.67,5.39c-.13.22-.24.45-.36.68a2.67,2.67,0,0,1,.48.21,1,1,0,0,1,.41.72,2.32,2.32,0,0,1-.73,2.08,10.86,10.86,0,0,1-.62-2,.58.58,0,0,0-.11.18,4.66,4.66,0,0,0-.19,1,6.36,6.36,0,0,1-1.14,3.64L392.72,543a3.72,3.72,0,0,0-.19.34,2.14,2.14,0,0,0,0,2.22c-.55-.08-.92-.51-1.12-1.26l-.77-.09c-.2,0-.28-.14-.31-.33a1.57,1.57,0,0,1,.22-1.08c.12-.21.27-.4.42-.63a1.07,1.07,0,0,1-.87-.65,1.38,1.38,0,0,0,1.07-.72,1.48,1.48,0,0,0,.11-1,3.33,3.33,0,0,1-2.22-.67,2.83,2.83,0,0,1-.77-1l.09,0a2.8,2.8,0,0,0,2.81.57,5.1,5.1,0,0,0,3.57-3.31c.11-.32.23-.64.38-1a2,2,0,0,1-2,.32,1.21,1.21,0,0,1-.73-.69,2.78,2.78,0,0,0,1.23-.66c.24-.19.48-.38.73-.55.48-.33,1-.52,1.5,0,.1-.14.19-.27.26-.39A12.82,12.82,0,0,1,399,529a9.85,9.85,0,0,1,6-2.35l.25,0,.07,0a.79.79,0,0,0-.41-.09,9.19,9.19,0,0,0-3.64.51,14.57,14.57,0,0,0-3.8,1.91c-.9.64-1.77,1.31-2.65,2a44.34,44.34,0,0,1-4.54,3,36.05,36.05,0,0,1-5.78,2.76l-.51.2s0,.05,0,.07a2.56,2.56,0,0,1-1.4,2.15c-.54.31-1.12.55-1.68.81l-.84.37a2,2,0,0,0-.9.73,3.92,3.92,0,0,1-.05-2.68l-.07,0-.35.37a15.84,15.84,0,0,1-5,3.81,8.09,8.09,0,0,1-5.05.71,8,8,0,0,1-3.62-1.8,3.11,3.11,0,0,1-.59-.61l.26.13a9.59,9.59,0,0,0,3.84,1.41,9.08,9.08,0,0,0,5.2-.91,15,15,0,0,0,3.84-2.71l.31-.3s0,0,0-.1a22.57,22.57,0,0,1-11.47-1.65,1.36,1.36,0,0,0-.07.22,1.84,1.84,0,0,1-1.16,1.19,3.13,3.13,0,0,1-1.32.21c-.85,0-1.71-.12-2.56-.18a3.77,3.77,0,0,0-1.53,0,2.69,2.69,0,0,1,.7-1.49,4.39,4.39,0,0,1,1.36-.93,13.22,13.22,0,0,0-6.4.78,2.3,2.3,0,0,0,.2.17.94.94,0,0,1,.34,1.27,3.38,3.38,0,0,1-.74,1.06c-.59.6-1.21,1.19-1.81,1.78-.36.34-.72.68-1.06,1a1.87,1.87,0,0,0-.58,1,1.59,1.59,0,0,1-.88-1,3,3,0,0,1,0-1.77,1.28,1.28,0,0,0,.07-.34,17.76,17.76,0,0,0-3.51,6.09.48.48,0,0,1,0-.12,15.8,15.8,0,0,1,2.53-6.41,11.18,11.18,0,0,1,6.41-4.61,12,12,0,0,1,6,0,4.29,4.29,0,0,0,.73.15c-.61-.47-1.24-.92-1.83-1.41s-1.17-1-1.72-1.58-1.07-1.14-1.59-1.75a24.49,24.49,0,0,0,9.1,5.62,6.36,6.36,0,0,1-1.24-1.5,3.33,3.33,0,0,1-.43-1.91,7.19,7.19,0,0,0,2.35,1.17l1.4.47a9.27,9.27,0,0,1,2.07,1,2.25,2.25,0,0,1,1.12,1.93,22,22,0,0,0,7.9-.85l-.25,0a12.91,12.91,0,0,1-7.71-3.28,11.27,11.27,0,0,1-2.42-3.19,11.84,11.84,0,0,1-1.3-7,14.56,14.56,0,0,1,.43-1.82,2.46,2.46,0,0,1,.09-.29s0,0,0,0a1.64,1.64,0,0,1-1.09-1.61,19.29,19.29,0,0,1,.07-2c0-.43.1-.86.13-1.3a4.79,4.79,0,0,0-.15-2.08,3.29,3.29,0,0,1,2.11,1.44,3.92,3.92,0,0,1,.65,2.52c.16-.17.26-.27.35-.38a9.78,9.78,0,0,1,7.57-3.51,8.36,8.36,0,0,1,4.62,1.43,7.59,7.59,0,0,1,3.25,4.12,6.52,6.52,0,0,1-1.12,6.38,4.86,4.86,0,0,1-3.44,1.88,4.13,4.13,0,0,1-3.05-.84,2.88,2.88,0,0,1-1.18-2.34,1.7,1.7,0,0,1,.93-1.66,1.35,1.35,0,0,1,1.75.46,1.36,1.36,0,0,1-2.08,1.74,3.52,3.52,0,0,1-.29-.32,1.82,1.82,0,0,0,.41,1,3.18,3.18,0,0,0,2.67,1.27,4.15,4.15,0,0,0,3.55-1.91,5.26,5.26,0,0,0,.71-4.81,6.54,6.54,0,0,0-4.73-4.47h-.2a2.23,2.23,0,0,1,.69,1.85,2.17,2.17,0,0,1-.4,1.09c-.68-.27-1.32-.52-2-.8a8.12,8.12,0,0,1-1.06-.54,1.31,1.31,0,0,1-.68-1.55.5.5,0,0,1,0-.14,4.3,4.3,0,0,0-.51.12,8.27,8.27,0,0,0-5.37,4.49,10,10,0,0,0-.62,7.45c0,.12.09.23.16.44a3.26,3.26,0,0,1,2.06-2.21,7.87,7.87,0,0,0,.52,2.66,8.91,8.91,0,0,1,.25,1.35,1.93,1.93,0,0,1-.6,1.63.48.48,0,0,0-.09.11s0,0,0,.06a8.31,8.31,0,0,0,.57.63,10.7,10.7,0,0,0,7.58,3,12.53,12.53,0,0,0,5.93-1.48l.19-.13-.4,0a3.13,3.13,0,0,1-2.3-1.2A2.26,2.26,0,0,1,384,531a5.8,5.8,0,0,0,.59,0c.49-.07,1-.17,1.46-.25s1.09-.17,1.64-.21a3,3,0,0,1,.84.09,2,2,0,0,1,1.24.92l.11.18.07,0A40.9,40.9,0,0,0,394,528.93Z" transform="translate(-148.12 -36.7)"/><path class="cls-1" d="M389.33,512.49a3.47,3.47,0,0,1,1.59-.82c.8-.19,1.61-.35,2.45-.53,0,.21.06.38.08.55.07.73.16,1.47.19,2.21a3.07,3.07,0,0,1-.47,1.91,1.42,1.42,0,0,0,.69-.08,6,6,0,0,0,2.25-1.47,9.09,9.09,0,0,0,1.63-2.11,1.88,1.88,0,0,1,.12-.15c0,.14,0,.23,0,.31a10.59,10.59,0,0,1-3.76,6.85,4.78,4.78,0,0,1-4,1.12,8.86,8.86,0,0,1-1.11-.34.33.33,0,0,1-.25-.33,7.94,7.94,0,0,0-1.14-3.2,8.48,8.48,0,0,0-5-3.83l-.3-.1c0-.05,0-.09,0-.1a6.73,6.73,0,0,1,2.26-1.41,3.67,3.67,0,0,1,2.78,0l.22.07a6.43,6.43,0,0,0-1-1.23,8.62,8.62,0,0,0-5.74-2.43,16,16,0,0,0-5.34.57c-.92.25-1.81.59-2.71.89a.42.42,0,0,1-.25,0c.4-.19.79-.39,1.2-.57a18.87,18.87,0,0,1,7-1.72,9.66,9.66,0,0,1,3.88.57,6.59,6.59,0,0,1,3.58,3.13,3.38,3.38,0,0,0,.24.41c-.3-2.74-2.32-6.08-7.41-6.41l.28,0a8.73,8.73,0,0,1,4.76,1.2,6.49,6.49,0,0,1,3.27,6.51C389.36,512.13,389.35,512.27,389.33,512.49Z" transform="translate(-148.12 -36.7)"/><path class="cls-1" d="M343.09,543a10.87,10.87,0,0,0,4.28-3.53l-.31.12a4.84,4.84,0,0,1-2.37.43,2.61,2.61,0,0,1-1.44-.56c.28.05.56.13.85.16a4.2,4.2,0,0,0,2.23-.41,10.23,10.23,0,0,0,3.34-2.42.92.92,0,0,0,.09-.13l-.18,0a3.64,3.64,0,0,1-2.92-2.17,7.77,7.77,0,0,1-.7-3.21,10.59,10.59,0,0,1,.34-3,.58.58,0,0,1,.15-.29c0,.11.06.22.08.32a7.23,7.23,0,0,0,1.26,3.07,5.58,5.58,0,0,0,.75.79,2,2,0,0,0,.43.25,4.43,4.43,0,0,1,.72-2.75c.18-.34.38-.68.56-1,.05,0,.09,0,.12,0a10.69,10.69,0,0,1,1.88,1.09,2.08,2.08,0,0,1,.85,1.25l.28-.12a10.31,10.31,0,0,1,1.06-.38,3,3,0,0,1,2.58.46,5.53,5.53,0,0,1,1.75,2.21l-.41,0a11.46,11.46,0,0,0-5.75,2,14.36,14.36,0,0,0-3.57,3.47,17,17,0,0,1-3.23,3.28,6.48,6.48,0,0,1-2.19,1.19,4.44,4.44,0,0,1-.9.13.84.84,0,0,1-.73-.36.69.69,0,0,1,0-.88.72.72,0,0,1,.81-.15.7.7,0,0,1,.37.77A2.44,2.44,0,0,1,343.09,543Z" transform="translate(-148.12 -36.7)"/><path class="cls-1" d="M383.29,545.85a3.68,3.68,0,0,1-3.47-.16c1.53,2.63,1.08,5-.82,7.16a.75.75,0,0,1,0-.16.8.8,0,0,1,.08-.16,7.79,7.79,0,0,0,.86-3.85,6.53,6.53,0,0,0-.84-2.92c0-.08-.1-.15-.15-.23-.6.53-.58,1.23,0,2.14-.34.27-.67.27-1.28,0,0,.16,0,.31,0,.45a2.23,2.23,0,0,1-.5,1.48c-.28.33-.39.36-.78.15-.22-.13-.43-.28-.65-.43a1.87,1.87,0,0,1-2,.42l.21-.13a2.12,2.12,0,0,0,1.22-1.38,9.63,9.63,0,0,0,.31-1.51c.1-.82.15-1.64.24-2.46a7.28,7.28,0,0,1,.69-2.36,5.79,5.79,0,0,1,1.79-2.09c0,.1,0,.17.06.24a9.49,9.49,0,0,0,1.3,3.37,6.51,6.51,0,0,0,1.24,1.53,3,3,0,0,0,2.27.86Z" transform="translate(-148.12 -36.7)"/><path class="cls-1" d="M371,552.64a1.62,1.62,0,0,1-.85-1.47l-.76-.22a.34.34,0,0,1-.25-.38,1.67,1.67,0,0,1,.47-1.11L370,549a1.07,1.07,0,0,1-.76-.78,1.45,1.45,0,0,0,1.19-.56,1.59,1.59,0,0,0,.26-.95,3.13,3.13,0,0,1-2.69-2.17,9.25,9.25,0,0,0,.76.59,3.07,3.07,0,0,0,1.6.37,7.45,7.45,0,0,0,2.51-.48,6.82,6.82,0,0,0,1.73-.86,1.48,1.48,0,0,1,.05.24,4.9,4.9,0,0,1-1.09,3.48c-.46.58-1,1.12-1.46,1.68a13.1,13.1,0,0,0-.88,1.09,1.93,1.93,0,0,0-.29,1.84A.79.79,0,0,1,371,552.64Z" transform="translate(-148.12 -36.7)"/><path class="cls-1" d="M403.63,535.26a1.27,1.27,0,0,1-.26,1.32,2,2,0,0,1-1.73.62,3,3,0,0,1-2.53-1.89,4.4,4.4,0,0,1,.46-4.45,5.09,5.09,0,0,1,2.83-2.05h.11l.06.05-.46.36a5.64,5.64,0,0,0-1.86,2.43,4.17,4.17,0,0,0-.16,3,2.74,2.74,0,0,0,1.06,1.46,1.94,1.94,0,0,0,1.23.37,1.25,1.25,0,0,0,1.19-1Z" transform="translate(-148.12 -36.7)"/><path class="cls-1" d="M361.26,545.29a2.57,2.57,0,0,1,.53-1.1,3,3,0,0,1,1.41-1,4.18,4.18,0,0,1,2.77-.11,1.64,1.64,0,0,1,.76.42.54.54,0,0,1-.24,1,3.19,3.19,0,0,1-.76.14c-.54,0-1.08,0-1.62,0l-.42,0A4.45,4.45,0,0,0,361.26,545.29Z" transform="translate(-148.12 -36.7)"/><path class="cls-1" d="M390.35,510.1a1,1,0,1,1,1.48.07A1,1,0,0,1,390.35,510.1Z" transform="translate(-148.12 -36.7)"/><path class="cls-1" d="M373.24,551a.71.71,0,0,1-.09.95.69.69,0,1,1,.09-.95Z" transform="translate(-148.12 -36.7)"/><path class="cls-1" d="M392.54,507.57a.68.68,0,1,1,.08-1A.67.67,0,0,1,392.54,507.57Z" transform="translate(-148.12 -36.7)"/><path class="cls-1" d="M389,541a.67.67,0,0,1,.05-1,.69.69,0,1,1-.05,1Z" transform="translate(-148.12 -36.7)"/><path class="cls-1" d="M390.42,508.25a.69.69,0,0,1-1-.07.7.7,0,0,1,.07-.95.68.68,0,1,1,.91,1Z" transform="translate(-148.12 -36.7)"/><path class="cls-1" d="M375.34,551.9a.69.69,0,1,1,0-1A.67.67,0,0,1,375.34,551.9Z" transform="translate(-148.12 -36.7)"/><path class="cls-1" d="M387.55,540.74a.43.43,0,0,1,0-.6.42.42,0,0,1,.6,0,.44.44,0,0,1,0,.61A.45.45,0,0,1,387.55,540.74Z" transform="translate(-148.12 -36.7)"/><path class="cls-1" d="M373.48,552.31a.42.42,0,0,1,.6,0,.43.43,0,0,1,0,.6.45.45,0,0,1-.61,0A.43.43,0,0,1,373.48,552.31Z" transform="translate(-148.12 -36.7)"/><path class="cls-1" d="M388.09,541.38a.42.42,0,0,1,.59.06.43.43,0,1,1-.66.54A.44.44,0,0,1,388.09,541.38Z" transform="translate(-148.12 -36.7)"/><path class="cls-1" d="M463.11,529.38a7.91,7.91,0,0,0,6.5-1.84l-.16.05a10.41,10.41,0,0,1-6.76.59A12.52,12.52,0,0,1,459.5,527a14.13,14.13,0,0,0-5.18-1.63,11.51,11.51,0,0,0-7.7,2,15.93,15.93,0,0,0-4.05,3.93,23.2,23.2,0,0,0-3.68,7.68,2.68,2.68,0,0,0-.07.27.17.17,0,0,0,0,.12,38.11,38.11,0,0,1,2.71-4.88,23.63,23.63,0,0,1,3.54-4.3h.09a1.66,1.66,0,0,0,1.4.45c.62-.06,1.23-.17,1.85-.25.46-.06.91-.15,1.36-.19a3.42,3.42,0,0,1,2.54.6,3.52,3.52,0,0,0-1.13-1.94,5.59,5.59,0,0,0-1.89-1.14,1.46,1.46,0,0,1,.22,0,11.49,11.49,0,0,1,6.89,2.12,16,16,0,0,1,4.67,5.38c.13.23.24.46.36.69a2.41,2.41,0,0,0-.49.21,1.06,1.06,0,0,0-.41.72,2.36,2.36,0,0,0,.74,2.08c.14-.7.6-1.25.62-2,0,.06.1.11.11.18a4.66,4.66,0,0,1,.19,1,6.31,6.31,0,0,0,1.14,3.64l1.06,1.67a2.74,2.74,0,0,1,.19.34,2.16,2.16,0,0,1,0,2.22c.55-.08.92-.51,1.12-1.26l.77-.09c.2,0,.27-.15.31-.33a1.62,1.62,0,0,0-.22-1.08c-.12-.21-.27-.41-.42-.63a1.08,1.08,0,0,0,.87-.65,1.41,1.41,0,0,1-1.08-.72,1.54,1.54,0,0,1-.1-1,3.29,3.29,0,0,0,2.21-.68,2.64,2.64,0,0,0,.78-1l-.1.05a2.77,2.77,0,0,1-2.8.57,5.07,5.07,0,0,1-3.57-3.32c-.11-.32-.23-.63-.38-1a2,2,0,0,0,1.94.31,1.21,1.21,0,0,0,.74-.68,2.87,2.87,0,0,1-1.24-.66c-.23-.19-.48-.38-.73-.55a1.09,1.09,0,0,0-1.5-.05c-.09-.15-.18-.27-.25-.39a13,13,0,0,0-2.82-3.32,9.87,9.87,0,0,0-6-2.35l-.25,0-.07,0a.7.7,0,0,1,.41-.09,9.19,9.19,0,0,1,3.64.51,14.51,14.51,0,0,1,3.79,1.91c.91.64,1.78,1.31,2.66,2a43.27,43.27,0,0,0,4.54,3,36,36,0,0,0,5.77,2.76l.51.19s.05.06.05.08a2.56,2.56,0,0,0,1.4,2.15c.54.31,1.12.55,1.68.81l.84.37a2.07,2.07,0,0,1,.9.73,3.92,3.92,0,0,0,0-2.68l.07,0,.34.36a16,16,0,0,0,5,3.82,8.08,8.08,0,0,0,5.05.71,8,8,0,0,0,3.62-1.8,3.17,3.17,0,0,0,.59-.62l-.26.14a9.79,9.79,0,0,1-3.84,1.41,9.08,9.08,0,0,1-5.2-.91,15,15,0,0,1-3.85-2.72l-.3-.29s0,0,0-.1a22.52,22.52,0,0,0,11.46-1.65,2.07,2.07,0,0,1,.08.21,1.81,1.81,0,0,0,1.16,1.2,3.28,3.28,0,0,0,1.31.21c.86,0,1.71-.12,2.57-.18a4,4,0,0,1,1.53,0,2.69,2.69,0,0,0-.7-1.48,4.6,4.6,0,0,0-1.36-.94,13.36,13.36,0,0,1,6.4.79c-.09.07-.14.13-.2.17a.94.94,0,0,0-.34,1.27,3.52,3.52,0,0,0,.73,1.06c.6.6,1.21,1.18,1.82,1.77l1.06,1a1.87,1.87,0,0,1,.58,1,1.61,1.61,0,0,0,.88-1,3,3,0,0,0,0-1.78,1.21,1.21,0,0,1-.07-.34,17.9,17.9,0,0,1,3.51,6.1.48.48,0,0,0,0-.12,15.8,15.8,0,0,0-2.53-6.41,11.18,11.18,0,0,0-6.41-4.61,12,12,0,0,0-6,0,5.9,5.9,0,0,1-.73.15c.61-.47,1.24-.92,1.83-1.41s1.16-1,1.71-1.58,1.08-1.15,1.59-1.75a24.22,24.22,0,0,1-9.09,5.61,6.51,6.51,0,0,0,1.24-1.49,3.33,3.33,0,0,0,.43-1.91,7,7,0,0,1-2.35,1.16l-1.4.48a9.35,9.35,0,0,0-2.08,1,2.23,2.23,0,0,0-1.11,1.93,22.21,22.21,0,0,1-7.9-.85,2.17,2.17,0,0,1,.25,0,12.86,12.86,0,0,0,7.71-3.29,11.05,11.05,0,0,0,2.41-3.18,11.79,11.79,0,0,0,1.31-7,14.41,14.41,0,0,0-.43-1.81l-.09-.29,0,0a1.64,1.64,0,0,0,1.09-1.62c0-.66,0-1.33-.07-2,0-.43-.1-.86-.13-1.3a4.79,4.79,0,0,1,.15-2.08,3.23,3.23,0,0,0-2.11,1.44,3.92,3.92,0,0,0-.66,2.52l-.35-.38a9.76,9.76,0,0,0-7.56-3.51,8.3,8.3,0,0,0-4.62,1.42,7.71,7.71,0,0,0-3.26,4.13,6.53,6.53,0,0,0,1.13,6.38,4.84,4.84,0,0,0,3.43,1.88,4.16,4.16,0,0,0,3.06-.84,2.88,2.88,0,0,0,1.18-2.34,1.72,1.72,0,0,0-.93-1.66,1.36,1.36,0,0,0-1.75.45,1.37,1.37,0,0,0,2.08,1.75c.08-.08.15-.17.28-.32a1.72,1.72,0,0,1-.41,1A3.21,3.21,0,0,1,476,527a4.18,4.18,0,0,1-3.55-1.91,5.23,5.23,0,0,1-.71-4.81,6.54,6.54,0,0,1,4.73-4.47h.19a2.29,2.29,0,0,0-.69,1.85,2.38,2.38,0,0,0,.4,1.09c.69-.27,1.33-.53,2-.8a8.24,8.24,0,0,0,1.07-.54,1.33,1.33,0,0,0,.68-1.55,1.06,1.06,0,0,1,0-.14c.19,0,.35.07.51.12a8.3,8.3,0,0,1,5.37,4.49,10,10,0,0,1,.61,7.45c0,.12-.08.23-.15.44a3.24,3.24,0,0,0-2.06-2.21,7.91,7.91,0,0,1-.52,2.66,8.68,8.68,0,0,0-.25,1.35,1.94,1.94,0,0,0,.6,1.63l.09.11s0,0,0,.06c-.18.2-.36.43-.57.63a10.66,10.66,0,0,1-7.59,3,12.48,12.48,0,0,1-5.92-1.47l-.2-.13.4,0a3.13,3.13,0,0,0,2.31-1.2,2.26,2.26,0,0,0,.47-1.11c-.21,0-.41,0-.6,0-.48-.07-1-.17-1.45-.25s-1.1-.17-1.64-.21a3,3,0,0,0-.84.09,1.9,1.9,0,0,0-1.24.92l-.11.18-.07.05A41.53,41.53,0,0,1,463.11,529.38Z" transform="translate(-148.12 -36.7)"/><path class="cls-1" d="M467.79,513a3.46,3.46,0,0,0-1.6-.82c-.79-.19-1.6-.35-2.44-.53,0,.2-.07.37-.08.55-.07.73-.17,1.47-.2,2.21a3,3,0,0,0,.48,1.9,1.42,1.42,0,0,1-.69-.07,6,6,0,0,1-2.25-1.47,9.07,9.07,0,0,1-1.64-2.11,1.27,1.27,0,0,0-.11-.15c0,.14,0,.22,0,.31a10.55,10.55,0,0,0,3.76,6.85,4.78,4.78,0,0,0,4,1.12c.37-.07.74-.23,1.11-.34a.37.37,0,0,0,.25-.34,7.8,7.8,0,0,1,1.14-3.19,8.54,8.54,0,0,1,5-3.84l.31-.09c0-.05,0-.09,0-.11a7.07,7.07,0,0,0-2.26-1.4,3.69,3.69,0,0,0-2.79,0l-.21.06a6.35,6.35,0,0,1,1-1.22,8.62,8.62,0,0,1,5.74-2.43,15.55,15.55,0,0,1,5.34.57c.91.25,1.81.59,2.71.89a.41.41,0,0,0,.25,0c-.4-.19-.79-.39-1.2-.57a18.87,18.87,0,0,0-7-1.72,9.66,9.66,0,0,0-3.88.57,6.56,6.56,0,0,0-3.58,3.13c-.08.14-.15.28-.24.41.3-2.74,2.32-6.09,7.41-6.41l-.28,0A8.73,8.73,0,0,0,471,506a6.48,6.48,0,0,0-3.28,6.5C467.76,512.59,467.77,512.73,467.79,513Z" transform="translate(-148.12 -36.7)"/><path class="cls-1" d="M514,543.41a10.84,10.84,0,0,1-4.27-3.53c.1,0,.21.07.31.12a4.72,4.72,0,0,0,2.37.42,2.63,2.63,0,0,0,1.44-.55c-.28,0-.56.13-.85.16a4.4,4.4,0,0,1-2.23-.41,10.27,10.27,0,0,1-3.35-2.42s0-.07-.09-.14l.19,0a3.64,3.64,0,0,0,2.92-2.17,7.77,7.77,0,0,0,.7-3.21,11,11,0,0,0-.34-3,.67.67,0,0,0-.15-.29c0,.11-.06.21-.08.32a7.34,7.34,0,0,1-1.26,3.07,6.21,6.21,0,0,1-.75.79,2,2,0,0,1-.43.25,4.36,4.36,0,0,0-.73-2.75c-.17-.35-.37-.68-.56-1h-.11a11.5,11.5,0,0,0-1.89,1.1,2.12,2.12,0,0,0-.85,1.25l-.27-.12c-.35-.13-.7-.29-1.06-.39a3,3,0,0,0-2.58.47,5.53,5.53,0,0,0-1.75,2.21l.41,0a11.46,11.46,0,0,1,5.75,2,14.35,14.35,0,0,1,3.57,3.47,16.73,16.73,0,0,0,3.23,3.28,6.51,6.51,0,0,0,2.18,1.18,3.43,3.43,0,0,0,.9.13.82.82,0,0,0,.73-.35.67.67,0,0,0,0-.88.68.68,0,0,0-.8-.15.67.67,0,0,0-.37.76C513.93,543.15,514,543.25,514,543.41Z" transform="translate(-148.12 -36.7)"/><path class="cls-1" d="M473.82,546.31a3.73,3.73,0,0,0,3.48-.16c-1.53,2.63-1.09,5,.82,7.15a.94.94,0,0,0,0-.16S478,553,478,553a7.82,7.82,0,0,1-.86-3.85,6.52,6.52,0,0,1,.83-2.92l.16-.23c.59.53.57,1.23,0,2.14.33.27.67.27,1.27,0v.45a2.3,2.3,0,0,0,.5,1.47c.29.34.39.36.78.15.23-.12.43-.27.66-.42a1.87,1.87,0,0,0,2,.42,1.53,1.53,0,0,0-.21-.13,2.12,2.12,0,0,1-1.22-1.38,8.72,8.72,0,0,1-.31-1.52c-.1-.81-.15-1.63-.25-2.45a7,7,0,0,0-.68-2.36,5.79,5.79,0,0,0-1.79-2.09,1.67,1.67,0,0,0-.06.24,9.4,9.4,0,0,1-1.31,3.37,6.22,6.22,0,0,1-1.23,1.52,3.06,3.06,0,0,1-2.27.87Z" transform="translate(-148.12 -36.7)"/><path class="cls-1" d="M486.15,553.09a1.61,1.61,0,0,0,.85-1.46l.76-.22A.35.35,0,0,0,488,551a1.69,1.69,0,0,0-.47-1.11c-.14-.16-.29-.3-.46-.47a1.07,1.07,0,0,0,.76-.78,1.44,1.44,0,0,1-1.19-.56,1.54,1.54,0,0,1-.26-1,3.16,3.16,0,0,0,2.69-2.17,7.76,7.76,0,0,1-.77.58,2.93,2.93,0,0,1-1.59.38,7.41,7.41,0,0,1-2.51-.48,6.82,6.82,0,0,1-1.73-.86,1.48,1.48,0,0,0-.05.24,4.91,4.91,0,0,0,1.09,3.48c.46.58,1,1.11,1.46,1.68a13.51,13.51,0,0,1,.88,1.09,2,2,0,0,1,.29,1.84A.71.71,0,0,0,486.15,553.09Z" transform="translate(-148.12 -36.7)"/><path class="cls-1" d="M453.49,535.72a1.27,1.27,0,0,0,.26,1.32,1.94,1.94,0,0,0,1.73.62,3,3,0,0,0,2.52-1.89,4.38,4.38,0,0,0-.46-4.46,5.07,5.07,0,0,0-2.82-2h-.11l-.06,0,.46.36a5.89,5.89,0,0,1,1.86,2.44,4.17,4.17,0,0,1,.16,3,2.74,2.74,0,0,1-1.06,1.46,1.88,1.88,0,0,1-1.23.36,1.24,1.24,0,0,1-1.19-1Z" transform="translate(-148.12 -36.7)"/><path class="cls-1" d="M495.85,545.75a2.55,2.55,0,0,0-.53-1.11,3,3,0,0,0-1.41-1,4.21,4.21,0,0,0-2.76-.12,1.69,1.69,0,0,0-.76.43.54.54,0,0,0,.23,1,3.38,3.38,0,0,0,.76.14c.54,0,1.08,0,1.62,0l.43,0A4.41,4.41,0,0,1,495.85,545.75Z" transform="translate(-148.12 -36.7)"/><path class="cls-1" d="M466.77,510.56a1,1,0,1,0-1.48.07A1,1,0,0,0,466.77,510.56Z" transform="translate(-148.12 -36.7)"/><path class="cls-1" d="M483.88,551.42a.69.69,0,0,0,.09,1,.7.7,0,0,0,1-.08.69.69,0,1,0-1.07-.87Z" transform="translate(-148.12 -36.7)"/><path class="cls-1" d="M464.57,508a.7.7,0,0,0,1-.08.69.69,0,0,0-.08-.95.68.68,0,1,0-.9,1Z" transform="translate(-148.12 -36.7)"/><path class="cls-1" d="M468.17,541.41a.68.68,0,0,0-.06-1,.69.69,0,1,0,.06,1Z" transform="translate(-148.12 -36.7)"/><path class="cls-1" d="M466.7,508.71a.68.68,0,1,0,.91-1,.69.69,0,0,0-1,.05A.68.68,0,0,0,466.7,508.71Z" transform="translate(-148.12 -36.7)"/><path class="cls-1" d="M481.78,552.36a.68.68,0,0,0,.93-1,.68.68,0,1,0-.93,1Z" transform="translate(-148.12 -36.7)"/><path class="cls-1" d="M469.57,541.2a.45.45,0,0,0,0-.61.43.43,0,1,0-.59.63A.45.45,0,0,0,469.57,541.2Z" transform="translate(-148.12 -36.7)"/><path class="cls-1" d="M483.64,552.76a.42.42,0,0,0-.6,0,.43.43,0,0,0,0,.6.44.44,0,0,0,.61,0A.43.43,0,0,0,483.64,552.76Z" transform="translate(-148.12 -36.7)"/><path class="cls-1" d="M469,541.84a.43.43,0,0,0-.6.06.43.43,0,0,0,.67.54A.44.44,0,0,0,469,541.84Z" transform="translate(-148.12 -36.7)"/><path class="cls-1" d="M460.46,392.68a5.45,5.45,0,0,1,3.93,2.46l-.1-.07A7.14,7.14,0,0,0,460,393.4a8.7,8.7,0,0,0-2.33.17,9.51,9.51,0,0,1-3.72.1,7.9,7.9,0,0,1-4.7-2.77,10.79,10.79,0,0,1-1.92-3.36,15.89,15.89,0,0,1-1-5.76c0-.06,0-.13,0-.19a.11.11,0,0,1,0-.07,25.07,25.07,0,0,0,.86,3.72,16.1,16.1,0,0,0,1.51,3.51s0,0,.06,0a1.16,1.16,0,0,1,1,0c.4.16.78.35,1.17.52s.57.27.86.38a2.31,2.31,0,0,0,1.79.09,2.41,2.41,0,0,1-1.11,1.06,3.73,3.73,0,0,1-1.47.39.84.84,0,0,0,.14.06,7.8,7.8,0,0,0,4.94-.08,11,11,0,0,0,4.11-2.66l.37-.38a2.45,2.45,0,0,1-.29-.23.76.76,0,0,1-.13-.55,1.58,1.58,0,0,1,.88-1.23,8.22,8.22,0,0,1,0,1.4s.08-.06.1-.1a2.78,2.78,0,0,0,.33-.64,4.27,4.27,0,0,1,1.44-2.18l1-.9.18-.18a1.48,1.48,0,0,0,.45-1.46,1,1,0,0,1,.5,1l.49.21c.13,0,.15.15.14.27a1.07,1.07,0,0,1-.35.67,4.73,4.73,0,0,1-.4.34.71.71,0,0,1,.45.6.92.92,0,0,0-.84.26,1.05,1.05,0,0,0-.26.65,2.27,2.27,0,0,1,1.33.87,1.89,1.89,0,0,1,.32.81l-.05-.06a1.94,1.94,0,0,0-1.74-.91,3.53,3.53,0,0,0-3,1.51l-.44.61a1.35,1.35,0,0,1,1.34.16.85.85,0,0,1,.35.59,2,2,0,0,0-.94.2l-.58.23c-.38.12-.74.16-1-.26l-.25.21a8.6,8.6,0,0,1-2.48,1.65,6.73,6.73,0,0,1-4.4.41l-.16,0h0a.47.47,0,0,0,.25.13,6.2,6.2,0,0,0,2.49.36,10,10,0,0,0,2.87-.54c.71-.24,1.42-.52,2.12-.8a30.17,30.17,0,0,1,3.57-1.13,24.48,24.48,0,0,1,4.33-.73l.38,0,0,0a1.74,1.74,0,0,1,1.33-1.14c.41-.11.84-.15,1.26-.22l.62-.09a1.38,1.38,0,0,0,.74-.31,2.76,2.76,0,0,1-.48,1.78l0,0,.3-.17a10.85,10.85,0,0,1,4-1.56A5.27,5.27,0,0,1,482,390a1.78,1.78,0,0,1,.27.51l-.14-.14a6.63,6.63,0,0,0-2.26-1.66,6.34,6.34,0,0,0-3.6-.39,10.63,10.63,0,0,0-3.05,1.06l-.26.14s0,0,0,.06a15.45,15.45,0,0,1,7.25,3.27l.09-.13a1.23,1.23,0,0,1,1-.56,2.11,2.11,0,0,1,.9.11c.56.19,1.11.4,1.66.61a2.65,2.65,0,0,0,1,.26,1.89,1.89,0,0,1-.75.85,3.08,3.08,0,0,1-1.07.36,9.27,9.27,0,0,0,4.37.7l-.1-.16a.63.63,0,0,1,0-.89,2.36,2.36,0,0,1,.69-.57l1.53-.82.9-.48a1.31,1.31,0,0,0,.57-.55,1.11,1.11,0,0,1,.39.84,2.1,2.1,0,0,1-.35,1.16,1.39,1.39,0,0,0-.11.21,12.2,12.2,0,0,0,3.48-3.35l0,.08a10.93,10.93,0,0,1-2.88,3.75,7.69,7.69,0,0,1-5.11,1.81,8.06,8.06,0,0,1-4-1.15,3.29,3.29,0,0,0-.46-.23c.32.42.65.84.94,1.28s.57.9.83,1.36.49,1,.71,1.46a16.62,16.62,0,0,0-4.92-5.43,4.26,4.26,0,0,1,.53,1.22,2.21,2.21,0,0,1-.08,1.34,4.77,4.77,0,0,0-1.33-1.21l-.83-.59a6.36,6.36,0,0,1-1.18-1,1.55,1.55,0,0,1-.37-1.49,15.34,15.34,0,0,0-5.37-.94l.16.08a8.86,8.86,0,0,1,4.46,3.63,7.73,7.73,0,0,1,1,2.56,8,8,0,0,1-.48,4.88,8.76,8.76,0,0,1-.63,1.11,1.74,1.74,0,0,1-.11.18s0,0,0,0a1.13,1.13,0,0,1,.41,1.27c-.11.45-.27.88-.42,1.31s-.23.55-.34.83a3.25,3.25,0,0,0-.29,1.4,2.23,2.23,0,0,1-1.12-1.35,2.69,2.69,0,0,1,.05-1.79l-.31.19a6.66,6.66,0,0,1-5.65.87,5.72,5.72,0,0,1-2.77-1.81,5.16,5.16,0,0,1-1.36-3.34,4.48,4.48,0,0,1,1.95-4,3.39,3.39,0,0,1,2.62-.59,2.82,2.82,0,0,1,1.85,1.14,2,2,0,0,1,.34,1.77,1.16,1.16,0,0,1-.93.91.93.93,0,0,1-1.07-.63.94.94,0,0,1,1.71-.75,1.66,1.66,0,0,1,.12.26,1.23,1.23,0,0,0-.07-.75,2.21,2.21,0,0,0-1.52-1.35,2.87,2.87,0,0,0-2.7.58,3.59,3.59,0,0,0-1.38,3,4.47,4.47,0,0,0,2.27,3.84s0,0,.12,0a1.58,1.58,0,0,1,.37-2c.4.32.78.61,1.14.91a5.22,5.22,0,0,1,.6.55.91.91,0,0,1,.15,1.16l0,.08.36,0a5.71,5.71,0,0,0,4.39-1.94,6.88,6.88,0,0,0,1.82-4.79c0-.08,0-.17,0-.32a2.23,2.23,0,0,1-1.78,1.07,5.11,5.11,0,0,0,.16-1.86,7.34,7.34,0,0,1,.1-.93,1.32,1.32,0,0,1,.71-1l.08-.06s0,0,0,0c-.08-.17-.15-.36-.25-.53a7.34,7.34,0,0,0-4.44-3.4,8.58,8.58,0,0,0-4.18-.15l-.16.05.26.09a2.15,2.15,0,0,1,1.29,1.23,1.52,1.52,0,0,1,.1.82,3.31,3.31,0,0,0-.39-.11l-1-.12c-.37-.05-.75-.09-1.12-.17a2,2,0,0,1-.53-.22,1.34,1.34,0,0,1-.65-.84.74.74,0,0,0,0-.14l0,0A27.2,27.2,0,0,0,460.46,392.68Z" transform="translate(-148.12 -36.7)"/><path class="cls-1" d="M460.41,404.4a2.31,2.31,0,0,1-1.2.24c-.57,0-1.13-.07-1.72-.11,0-.15,0-.26.05-.38.1-.5.18-1,.3-1.49a2.06,2.06,0,0,1,.67-1.17.85.85,0,0,0-.46-.08,4.07,4.07,0,0,0-1.77.54A6.25,6.25,0,0,0,454.8,403l-.1.08c0-.1,0-.16.06-.21a7.24,7.24,0,0,1,3.78-3.8,3.24,3.24,0,0,1,2.85,0,5.87,5.87,0,0,1,.67.43.24.24,0,0,1,.1.27,5.35,5.35,0,0,0,.15,2.32,5.78,5.78,0,0,0,2.56,3.48l.18.12s0,.05,0,.06a4.74,4.74,0,0,1-1.76.5,2.54,2.54,0,0,1-1.82-.56l-.14-.08a4.67,4.67,0,0,0,.41,1,6,6,0,0,0,3.32,2.7,11,11,0,0,0,3.63.63c.65,0,1.3,0,2-.07a.34.34,0,0,1,.17,0c-.3.05-.59.11-.89.15a13.1,13.1,0,0,1-4.95-.19,6.82,6.82,0,0,1-2.45-1.12,4.56,4.56,0,0,1-1.76-2.74,1.67,1.67,0,0,0-.08-.32c-.32,1.86.38,4.45,3.67,5.64l-.19-.05a5.93,5.93,0,0,1-2.91-1.69,4.45,4.45,0,0,1-.92-4.91C460.32,404.63,460.36,404.54,460.41,404.4Z" transform="translate(-148.12 -36.7)"/><path class="cls-1" d="M496.67,393.12a7.48,7.48,0,0,0-3.49,1.52l.23,0a3.27,3.27,0,0,1,1.64.17,1.81,1.81,0,0,1,.84.64c-.17-.09-.34-.19-.52-.27a3,3,0,0,0-1.55-.15,7.07,7.07,0,0,0-2.67.95l-.08.08.12.06a2.47,2.47,0,0,1,1.5,2,5,5,0,0,1-.15,2.25,7.11,7.11,0,0,1-.78,1.89.41.41,0,0,1-.16.16c0-.07,0-.15,0-.22a5.15,5.15,0,0,0-.24-2.27,4.66,4.66,0,0,0-.35-.66,1.79,1.79,0,0,0-.24-.24,2.94,2.94,0,0,1-1,1.67c-.18.19-.37.38-.56.56l-.07,0a7.59,7.59,0,0,1-1-1.08,1.45,1.45,0,0,1-.32-1l-.21,0c-.25,0-.51.06-.76.06a2.08,2.08,0,0,1-1.62-.8,3.79,3.79,0,0,1-.73-1.79l.28.05a8,8,0,0,0,4.17-.22,9.94,9.94,0,0,0,3-1.61,11.45,11.45,0,0,1,2.75-1.55,4.35,4.35,0,0,1,1.67-.36,2.55,2.55,0,0,1,.61.08.58.58,0,0,1,.42.38.47.47,0,0,1-.2.57.49.49,0,0,1-.56-.06.47.47,0,0,1-.1-.57Z" transform="translate(-148.12 -36.7)"/><path class="cls-1" d="M470.73,383.57a2.52,2.52,0,0,1,2.26.77,3.87,3.87,0,0,1,1.9-4.56s0,.07-.05.1l-.09.08a5.36,5.36,0,0,0-1.29,2.37,4.47,4.47,0,0,0,0,2.09l.06.18c.49-.24.61-.7.38-1.42.27-.11.49-.05.84.25q0-.17.09-.3a1.51,1.51,0,0,1,.6-.88c.26-.16.33-.16.55.05s.23.27.35.41a1.27,1.27,0,0,1,1.39.1l-.16,0a1.45,1.45,0,0,0-1.07.68,7,7,0,0,0-.49.94c-.23.52-.41,1-.63,1.57a5,5,0,0,1-.9,1.43,4,4,0,0,1-1.58,1,.86.86,0,0,1,0-.17,6.37,6.37,0,0,0-.22-2.46,4.72,4.72,0,0,0-.52-1.25,2.12,2.12,0,0,0-1.34-1Z" transform="translate(-148.12 -36.7)"/><path class="cls-1" d="M480.15,381.44a1.13,1.13,0,0,1,.28,1.13l.45.29a.24.24,0,0,1,.1.3,1.18,1.18,0,0,1-.52.64c-.12.08-.25.14-.4.22a.77.77,0,0,1,.36.66,1,1,0,0,0-.89.14,1.11,1.11,0,0,0-.36.58,2.17,2.17,0,0,1,1.37,1.94c-.15-.19-.26-.37-.4-.53a2,2,0,0,0-1-.55,4.86,4.86,0,0,0-1.74-.16,5,5,0,0,0-1.31.23c0-.06,0-.11,0-.16a3.4,3.4,0,0,1,1.39-2.09c.41-.29.85-.55,1.27-.82a8.83,8.83,0,0,0,.8-.56,1.38,1.38,0,0,0,.54-1.16A.43.43,0,0,1,480.15,381.44Z" transform="translate(-148.12 -36.7)"/><path class="cls-1" d="M455.32,386.68a.88.88,0,0,1,.43-.82,1.32,1.32,0,0,1,1.25-.08,2.09,2.09,0,0,1,1.31,1.73,3,3,0,0,1-1.15,2.84,3.44,3.44,0,0,1-2.26.81h-.07l0,0,.37-.15a4,4,0,0,0,1.69-1.25,2.82,2.82,0,0,0,.67-1.94,1.87,1.87,0,0,0-.42-1.16,1.29,1.29,0,0,0-.74-.48.85.85,0,0,0-1,.42Z" transform="translate(-148.12 -36.7)"/><path class="cls-1" d="M485.14,388.13a1.81,1.81,0,0,1-.56.63,2.14,2.14,0,0,1-1.12.4,2.91,2.91,0,0,1-1.84-.45,1.15,1.15,0,0,1-.42-.43.37.37,0,0,1,.34-.6,2.44,2.44,0,0,1,.53.05l1.07.28.28.07A3,3,0,0,0,485.14,388.13Z" transform="translate(-148.12 -36.7)"/><path class="cls-1" d="M459.29,405.79a.71.71,0,1,1-1.29.61.71.71,0,0,1,1.29-.61Z" transform="translate(-148.12 -36.7)"/><path class="cls-1" d="M478.33,382.11a.47.47,0,0,1,.87-.36.47.47,0,1,1-.87.36Z" transform="translate(-148.12 -36.7)"/><path class="cls-1" d="M457.36,407a.47.47,0,1,1,.39.85.46.46,0,0,1-.63-.22A.47.47,0,0,1,457.36,407Z" transform="translate(-148.12 -36.7)"/><path class="cls-1" d="M466.07,385.72a.47.47,0,1,1-.84.4.48.48,0,0,1,.21-.62A.46.46,0,0,1,466.07,385.72Z" transform="translate(-148.12 -36.7)"/><path class="cls-1" d="M458.89,407a.47.47,0,0,1,.63.23.46.46,0,0,1-.23.61.46.46,0,0,1-.63-.21A.46.46,0,0,1,458.89,407Z" transform="translate(-148.12 -36.7)"/><path class="cls-1" d="M477.13,381.1a.47.47,0,0,1,.42.83.47.47,0,1,1-.42-.83Z" transform="translate(-148.12 -36.7)"/><path class="cls-1" d="M467,386.13a.29.29,0,0,1-.52.27.29.29,0,1,1,.52-.27Z" transform="translate(-148.12 -36.7)"/><path class="cls-1" d="M478.43,381.18a.27.27,0,0,1-.39-.12.29.29,0,1,1,.39.12Z" transform="translate(-148.12 -36.7)"/><path class="cls-1" d="M466.73,385.6a.29.29,0,0,1-.39-.15.29.29,0,1,1,.54-.23A.29.29,0,0,1,466.73,385.6Z" transform="translate(-148.12 -36.7)"/><path class="cls-1" d="M396.62,393.92a5.39,5.39,0,0,0-3.93,2.45l.09-.07a7.14,7.14,0,0,1,4.35-1.67,8.7,8.7,0,0,1,2.33.17,9.51,9.51,0,0,0,3.72.1,7.94,7.94,0,0,0,4.7-2.76,11.23,11.23,0,0,0,1.92-3.36,16,16,0,0,0,1-5.77v-.19a.36.36,0,0,0,0-.07,27.5,27.5,0,0,1-.86,3.72,16.13,16.13,0,0,1-1.52,3.51s-.05,0-.06,0a1.12,1.12,0,0,0-1,0c-.39.15-.78.34-1.17.51s-.57.27-.86.38a2.28,2.28,0,0,1-1.78.09,2.36,2.36,0,0,0,1.11,1.06,3.65,3.65,0,0,0,1.46.4l-.14.06a7.88,7.88,0,0,1-4.94-.09,10.85,10.85,0,0,1-4.1-2.66c-.13-.12-.25-.25-.37-.38a1.64,1.64,0,0,0,.28-.23.72.72,0,0,0,.14-.55,1.59,1.59,0,0,0-.89-1.23,8.21,8.21,0,0,0,0,1.4s-.09-.05-.11-.09a3.56,3.56,0,0,1-.32-.65,4.35,4.35,0,0,0-1.44-2.18l-1-.89c-.07-.06-.13-.13-.19-.19a1.48,1.48,0,0,1-.44-1.46,1,1,0,0,0-.51,1l-.49.21a.24.24,0,0,0-.14.27,1.12,1.12,0,0,0,.35.68c.12.11.26.21.4.33a.75.75,0,0,0-.45.6.94.94,0,0,1,.85.26,1.14,1.14,0,0,1,.26.66,2.3,2.3,0,0,0-1.33.86,1.89,1.89,0,0,0-.32.81l.05-.05a1.91,1.91,0,0,1,1.74-.91,3.47,3.47,0,0,1,3,1.5l.45.61a1.35,1.35,0,0,0-1.34.16.86.86,0,0,0-.36.59,2,2,0,0,1,.94.2l.59.23a.76.76,0,0,0,1-.25l.24.21a8.82,8.82,0,0,0,2.49,1.64,6.77,6.77,0,0,0,4.39.42l.17,0h.05a.63.63,0,0,1-.25.14,6.25,6.25,0,0,1-2.5.35,10.25,10.25,0,0,1-2.86-.53c-.72-.25-1.42-.53-2.13-.8a29.64,29.64,0,0,0-3.57-1.14,24.33,24.33,0,0,0-4.33-.73l-.37,0s0,0,0-.05a1.77,1.77,0,0,0-1.34-1.14c-.41-.11-.84-.15-1.26-.22l-.62-.09a1.35,1.35,0,0,1-.73-.31,2.65,2.65,0,0,0,.48,1.78l0,0-.29-.17a10.92,10.92,0,0,0-4-1.56,5.57,5.57,0,0,0-3.46.49,5.45,5.45,0,0,0-2.05,1.88,2.26,2.26,0,0,0-.27.51.86.86,0,0,0,.14-.13,6.79,6.79,0,0,1,2.27-1.67,6.25,6.25,0,0,1,3.6-.38,10.31,10.31,0,0,1,3.05,1l.25.14a.16.16,0,0,1,0,.06,15.52,15.52,0,0,0-7.24,3.27.74.74,0,0,1-.09-.12,1.23,1.23,0,0,0-1-.57,2.33,2.33,0,0,0-.91.11c-.56.19-1.1.4-1.66.61a2.6,2.6,0,0,1-1,.26,1.89,1.89,0,0,0,.75.85,3,3,0,0,0,1.07.36,9.16,9.16,0,0,1-4.37.7l.1-.15a.64.64,0,0,0,0-.9,2.3,2.3,0,0,0-.69-.56c-.51-.29-1-.55-1.54-.83-.3-.16-.6-.31-.89-.48a1.21,1.21,0,0,1-.57-.55,1.06,1.06,0,0,0-.39.84,2.07,2.07,0,0,0,.34,1.16.57.57,0,0,1,.11.22,12.34,12.34,0,0,1-3.47-3.36s0,.06,0,.09a10.89,10.89,0,0,0,2.89,3.74,7.73,7.73,0,0,0,5.1,1.82,8.31,8.31,0,0,0,4-1.15,3.88,3.88,0,0,1,.45-.24c-.31.43-.64.84-.94,1.28s-.57.9-.82,1.36a15.21,15.21,0,0,0-.72,1.46,16.65,16.65,0,0,1,4.93-5.43,4.29,4.29,0,0,0-.54,1.22,2.37,2.37,0,0,0,.08,1.34,4.91,4.91,0,0,1,1.33-1.21l.83-.58a6.53,6.53,0,0,0,1.19-1,1.53,1.53,0,0,0,.36-1.48,15.39,15.39,0,0,1,5.37-.95L386,392a8.83,8.83,0,0,0-4.45,3.63,7.54,7.54,0,0,0-1,2.56,8.16,8.16,0,0,0,.48,4.88,12.17,12.17,0,0,0,.63,1.11c0,.07.08.12.11.18v0a1.12,1.12,0,0,0-.42,1.27c.12.45.28.88.43,1.31s.23.55.34.83a3.4,3.4,0,0,1,.29,1.4,2.23,2.23,0,0,0,1.12-1.35,2.66,2.66,0,0,0-.05-1.78l.3.18a6.67,6.67,0,0,0,5.65.87,5.8,5.8,0,0,0,2.78-1.81,5.27,5.27,0,0,0,1.36-3.34,4.47,4.47,0,0,0-2-4,3.38,3.38,0,0,0-2.62-.59,2.91,2.91,0,0,0-1.85,1.14,2,2,0,0,0-.33,1.77,1.16,1.16,0,0,0,.93.91.92.92,0,0,0,1.06-.63.93.93,0,0,0-1.7-.75c0,.06-.07.14-.13.26a1.23,1.23,0,0,1,.08-.75A2.18,2.18,0,0,1,388.6,398a2.9,2.9,0,0,1,2.71.58,3.65,3.65,0,0,1,1.38,3,4.48,4.48,0,0,1-2.27,3.84.5.5,0,0,1-.13,0,1.51,1.51,0,0,0,.1-1.35,1.41,1.41,0,0,0-.47-.64l-1.14.9a6.2,6.2,0,0,0-.6.55.93.93,0,0,0-.15,1.16l.05.08-.36,0a5.61,5.61,0,0,1-4.39-1.94,6.79,6.79,0,0,1-1.82-4.79c0-.08,0-.17,0-.32a2.24,2.24,0,0,0,1.78,1.07,5.3,5.3,0,0,1-.16-1.85,7.3,7.3,0,0,0-.09-.94,1.34,1.34,0,0,0-.71-1l-.08-.05,0,0c.08-.17.15-.36.25-.53a7.35,7.35,0,0,1,4.43-3.4,8.61,8.61,0,0,1,4.19-.15l.15.05-.26.09a2.17,2.17,0,0,0-1.29,1.23,1.52,1.52,0,0,0-.09.82,2.85,2.85,0,0,1,.39-.11c.33-.05.67-.07,1-.12s.76-.09,1.13-.17a2.2,2.2,0,0,0,.53-.22,1.27,1.27,0,0,0,.64-.84.57.57,0,0,0,0-.14l0,0A26.11,26.11,0,0,1,396.62,393.92Z" transform="translate(-148.12 -36.7)"/><path class="cls-1" d="M396.66,405.63a2.33,2.33,0,0,0,1.21.24c.56,0,1.12-.07,1.71-.11,0-.14,0-.26-.05-.38-.09-.5-.17-1-.29-1.49a2.13,2.13,0,0,0-.68-1.17.9.9,0,0,1,.47-.08,4,4,0,0,1,1.76.54,6.32,6.32,0,0,1,1.48,1.08l.11.08a1.27,1.27,0,0,0-.07-.21,7.22,7.22,0,0,0-3.77-3.8,3.26,3.26,0,0,0-2.86,0c-.23.12-.44.29-.66.43a.24.24,0,0,0-.1.27,5.35,5.35,0,0,1-.15,2.32,5.82,5.82,0,0,1-2.56,3.48L392,407s0,.06.05.06a4.64,4.64,0,0,0,1.75.5,2.48,2.48,0,0,0,1.83-.56l.13-.08a4.46,4.46,0,0,1-.41,1,5.92,5.92,0,0,1-3.32,2.7,10.65,10.65,0,0,1-3.62.63c-.66,0-1.31,0-2-.06a.22.22,0,0,0-.17,0c.3.05.6.11.9.15a13,13,0,0,0,4.94-.2,6.67,6.67,0,0,0,2.45-1.12,4.47,4.47,0,0,0,1.76-2.74c0-.11,0-.21.08-.32.33,1.87-.37,4.46-3.66,5.64l.19,0a6,6,0,0,0,2.9-1.7,4.43,4.43,0,0,0,.93-4.91Z" transform="translate(-148.12 -36.7)"/><path class="cls-1" d="M360.41,394.36a7.29,7.29,0,0,1,3.48,1.51l-.22,0A3.27,3.27,0,0,0,362,396a1.84,1.84,0,0,0-.85.64c.18-.09.35-.19.53-.27a3,3,0,0,1,1.55-.15,7.1,7.1,0,0,1,2.66,1,.24.24,0,0,1,.09.07l-.12.06a2.47,2.47,0,0,0-1.51,2,5.34,5.34,0,0,0,.15,2.25,7.49,7.49,0,0,0,.79,1.89.38.38,0,0,0,.15.16,1.62,1.62,0,0,0,0-.22,5.1,5.1,0,0,1,.25-2.26,4.22,4.22,0,0,1,.34-.67,1.79,1.79,0,0,1,.24-.24,3,3,0,0,0,1,1.67c.18.2.38.38.56.56,0,0,.06,0,.08,0a6.59,6.59,0,0,0,1-1.08,1.51,1.51,0,0,0,.33-1l.2,0c.26,0,.51.06.77.06a2.06,2.06,0,0,0,1.61-.8,3.8,3.8,0,0,0,.74-1.79l-.28.05a7.88,7.88,0,0,1-4.17-.22,9.83,9.83,0,0,1-3-1.61,11.33,11.33,0,0,0-2.76-1.54,4.14,4.14,0,0,0-1.66-.37,2.57,2.57,0,0,0-.62.08.58.58,0,0,0-.41.38.46.46,0,0,0,.19.57.48.48,0,0,0,.56-.06.47.47,0,0,0,.1-.57A2.51,2.51,0,0,0,360.41,394.36Z" transform="translate(-148.12 -36.7)"/><path class="cls-1" d="M386.34,384.8a2.56,2.56,0,0,0-2.26.77,3.86,3.86,0,0,0-1.9-4.56l.06.1.08.09a5.27,5.27,0,0,1,1.3,2.37,4.43,4.43,0,0,1,0,2.08,1.21,1.21,0,0,1-.05.18c-.5-.23-.62-.7-.38-1.42-.28-.11-.5-.05-.84.25q0-.17-.09-.3a1.58,1.58,0,0,0-.61-.88c-.25-.16-.32-.16-.54,0a4.71,4.71,0,0,0-.35.41,1.26,1.26,0,0,0-1.39.1l.16,0a1.5,1.5,0,0,1,1.07.68,7,7,0,0,1,.49.94c.22.52.41,1.05.63,1.57a5,5,0,0,0,.89,1.43,4,4,0,0,0,1.58,1v-.17a6.4,6.4,0,0,1,.22-2.46,4,4,0,0,1,.52-1.24,2.09,2.09,0,0,1,1.33-1S386.29,384.84,386.34,384.8Z" transform="translate(-148.12 -36.7)"/><path class="cls-1" d="M376.93,382.68a1.09,1.09,0,0,0-.28,1.12l-.46.29a.23.23,0,0,0-.09.3,1.14,1.14,0,0,0,.52.64l.39.23a.72.72,0,0,0-.35.65,1,1,0,0,1,.89.14,1.1,1.1,0,0,1,.35.58,2.16,2.16,0,0,0-1.36,1.94c.14-.19.25-.37.39-.53a2.08,2.08,0,0,1,1-.55,5.16,5.16,0,0,1,1.75-.16,4.58,4.58,0,0,1,1.3.24.86.86,0,0,0,0-.17,3.38,3.38,0,0,0-1.38-2.09c-.41-.29-.86-.54-1.28-.82a8.68,8.68,0,0,1-.79-.56,1.32,1.32,0,0,1-.54-1.15A.26.26,0,0,0,376.93,382.68Z" transform="translate(-148.12 -36.7)"/><path class="cls-1" d="M401.76,387.91a.88.88,0,0,0-.43-.82,1.35,1.35,0,0,0-1.25-.08,2.06,2.06,0,0,0-1.31,1.73,3,3,0,0,0,1.15,2.85,3.48,3.48,0,0,0,2.25.8h.07l0,0-.38-.15a4,4,0,0,1-1.69-1.25,2.92,2.92,0,0,1-.67-1.94,1.87,1.87,0,0,1,.42-1.16,1.35,1.35,0,0,1,.74-.48.85.85,0,0,1,1,.42Z" transform="translate(-148.12 -36.7)"/><path class="cls-1" d="M371.93,389.36a1.82,1.82,0,0,0,.56.63,2.12,2.12,0,0,0,1.12.4,2.93,2.93,0,0,0,1.85-.45,1.16,1.16,0,0,0,.42-.43.37.37,0,0,0-.34-.6,2.33,2.33,0,0,0-.53.06c-.36.08-.72.18-1.08.28l-.28.07A3,3,0,0,1,371.93,389.36Z" transform="translate(-148.12 -36.7)"/><path class="cls-1" d="M397.79,407a.71.71,0,1,0,1.28.62.71.71,0,1,0-1.28-.62Z" transform="translate(-148.12 -36.7)"/><path class="cls-1" d="M378.74,383.35a.47.47,0,0,0-.24-.61.48.48,0,0,0-.63.24.47.47,0,1,0,.87.37Z" transform="translate(-148.12 -36.7)"/><path class="cls-1" d="M399.72,408.26a.48.48,0,0,0-.63.24.47.47,0,0,0,.23.61.46.46,0,0,0,.63-.22A.47.47,0,0,0,399.72,408.26Z" transform="translate(-148.12 -36.7)"/><path class="cls-1" d="M391,387a.46.46,0,0,0,.22.63A.48.48,0,1,0,391,387Z" transform="translate(-148.12 -36.7)"/><path class="cls-1" d="M398.18,408.22a.47.47,0,0,0-.62.23.47.47,0,0,0,.86.4A.47.47,0,0,0,398.18,408.22Z" transform="translate(-148.12 -36.7)"/><path class="cls-1" d="M380,382.33a.47.47,0,1,0,.21.63A.46.46,0,0,0,380,382.33Z" transform="translate(-148.12 -36.7)"/><path class="cls-1" d="M390.12,387.36a.29.29,0,1,0,.39-.13A.3.3,0,0,0,390.12,387.36Z" transform="translate(-148.12 -36.7)"/><path class="cls-1" d="M378.65,382.41a.28.28,0,0,0,.39-.12.29.29,0,0,0-.12-.39.3.3,0,0,0-.4.12A.29.29,0,0,0,378.65,382.41Z" transform="translate(-148.12 -36.7)"/><path class="cls-1" d="M390.35,386.83a.28.28,0,0,0,.38-.15.29.29,0,0,0-.15-.38.31.31,0,0,0-.39.15A.29.29,0,0,0,390.35,386.83Z" transform="translate(-148.12 -36.7)"/><rect class="cls-2" x="222.61" y="305.28" width="114.96" height="47.42" rx="2.79"/><rect class="cls-2" x="222.61" y="286.37" width="114.96" height="32.13" rx="2.79"/><rect class="cls-3" x="238.02" y="312.05" width="84.13" height="32.84" rx="0.34"/><rect class="cls-4" x="238.02" y="312.05" width="84.13" height="32.72" rx="0.34"/><circle class="cls-5" cx="251.27" cy="321.51" r="4.34"/><circle class="cls-6" cx="280.22" cy="321.51" r="4.34"/><circle class="cls-7" cx="294.7" cy="321.51" r="4.34"/><circle class="cls-8" cx="309.17" cy="321.51" r="4.34"/><circle class="cls-9" cx="265.75" cy="321.51" r="4.34"/><circle class="cls-10" cx="251.27" cy="335.3" r="4.34"/><circle class="cls-11" cx="265.75" cy="335.3" r="4.34"/><circle class="cls-12" cx="280.22" cy="335.3" r="4.34"/><circle class="cls-13" cx="294.7" cy="335.3" r="4.34"/><circle class="cls-14" cx="309.17" cy="335.3" r="4.34"/><path class="cls-2" d="M399.13,357.18h-.6v-.4a1.37,1.37,0,0,0,.39,0,.47.47,0,0,0,.24-.13,1,1,0,0,0,.16-.28h.38V360h-.57Z" transform="translate(-148.12 -36.7)"/><path class="cls-2" d="M413,359.57a1.71,1.71,0,0,1,.12-.67,2.64,2.64,0,0,1,.45-.62,2.39,2.39,0,0,0,.44-.58,1.08,1.08,0,0,0,.12-.5.52.52,0,0,0-.07-.32.28.28,0,0,0-.22-.09q-.3,0-.3.36v.39H413v-.36a1,1,0,0,1,.22-.68.79.79,0,0,1,.63-.23.82.82,0,0,1,.64.23,1,1,0,0,1,.22.68,1.49,1.49,0,0,1-.16.65,3.32,3.32,0,0,1-.55.74,1.73,1.73,0,0,0-.34.44.64.64,0,0,0-.09.36v.08h1.09V360H413Z" transform="translate(-148.12 -36.7)"/><path class="cls-2" d="M427.78,359.78a1,1,0,0,1-.21-.67v-.29h.54v.32q0,.36.3.36a.28.28,0,0,0,.22-.09.52.52,0,0,0,.07-.32v-.3a.56.56,0,0,0-.08-.36.37.37,0,0,0-.29-.11h-.19v-.52h.2a.37.37,0,0,0,.26-.08.41.41,0,0,0,.09-.3v-.27a.44.44,0,0,0-.08-.28.29.29,0,0,0-.21-.08c-.18,0-.27.11-.27.34v.24h-.55v-.2a.93.93,0,0,1,.22-.67.78.78,0,0,1,.62-.23.79.79,0,0,1,.63.23.94.94,0,0,1,.21.67v.13a.91.91,0,0,1-.1.47.49.49,0,0,1-.3.26h0a.62.62,0,0,1,.32.27,1,1,0,0,1,.1.48v.33a.93.93,0,0,1-.22.67.85.85,0,0,1-.64.23A.83.83,0,0,1,427.78,359.78Z" transform="translate(-148.12 -36.7)"/><path class="cls-2" d="M442.76,359.31h-1.09v-.52l1-2.47h.63v2.47h.27v.52h-.27V360h-.58Zm0-.52v-1.43h0l-.56,1.43Z" transform="translate(-148.12 -36.7)"/><path class="cls-2" d="M456.74,359.78a1,1,0,0,1-.22-.69v-.28h.54v.33c0,.23.1.35.3.35s.3-.12.3-.35v-.82q0-.36-.3-.36t-.3.36v0h-.54l.1-2h1.52v.52h-1l-.05.87h0a.55.55,0,0,1,.49-.26.57.57,0,0,1,.48.21,1,1,0,0,1,.16.62v.82a1,1,0,0,1-.22.69,1,1,0,0,1-1.27,0Z" transform="translate(-148.12 -36.7)"/><path class="cls-2" d="M456.58,373.63a1,1,0,0,1-.22-.68V371a1,1,0,0,1,.22-.68,1,1,0,0,1,1.3,0,1,1,0,0,1,.22.68V373a1,1,0,0,1-.22.68,1,1,0,0,1-1.3,0Zm.95-.64v-2q0-.36-.3-.36t-.3.36v2q0,.36.3.36T457.53,373Z" transform="translate(-148.12 -36.7)"/><path class="cls-2" d="M442.14,373.63a1,1,0,0,1-.22-.68v-.07h.55V373c0,.24.09.36.29.36a.3.3,0,0,0,.24-.1.62.62,0,0,0,.08-.35v-.7h0a.53.53,0,0,1-.52.32.55.55,0,0,1-.48-.22,1.07,1.07,0,0,1-.16-.62V371a1,1,0,0,1,.23-.68.83.83,0,0,1,.64-.24.85.85,0,0,1,.65.24,1,1,0,0,1,.22.68v1.89c0,.63-.29.95-.87.95A.83.83,0,0,1,442.14,373.63Zm.94-2V371q0-.36-.3-.36c-.2,0-.29.12-.29.36v.64c0,.24.09.36.29.36S443.08,371.87,443.08,371.63Z" transform="translate(-148.12 -36.7)"/><path class="cls-2" d="M427.61,373.63a.87.87,0,0,1-.23-.67v-.32a1.08,1.08,0,0,1,.09-.46.59.59,0,0,1,.28-.28v0a.59.59,0,0,1-.27-.27,1.13,1.13,0,0,1-.08-.45V371a.93.93,0,0,1,.22-.67.9.9,0,0,1,.65-.23.89.89,0,0,1,.65.23.94.94,0,0,1,.23.67v.15a.76.76,0,0,1-.35.72v0a.59.59,0,0,1,.28.28,1.08,1.08,0,0,1,.09.46V373a.82.82,0,0,1-.9.91A.86.86,0,0,1,427.61,373.63Zm1-.7v-.35c0-.27-.11-.41-.33-.41s-.32.14-.32.41v.35c0,.28.11.42.32.42S428.6,373.21,428.6,372.93Zm0-1.65V371c0-.25-.1-.37-.31-.37s-.3.12-.3.37v.28c0,.25.1.37.3.37S428.58,371.53,428.58,371.28Z" transform="translate(-148.12 -36.7)"/><path class="cls-2" d="M414.33,370.69h-1.16v-.53h1.72v.5l-.9,3.15h-.58Z" transform="translate(-148.12 -36.7)"/><path class="cls-2" d="M398.72,373.63a1,1,0,0,1-.23-.68v-1.89c0-.63.29-.95.88-.95a.83.83,0,0,1,.64.24,1,1,0,0,1,.21.68v.07h-.54V371q0-.36-.3-.36a.33.33,0,0,0-.24.1.61.61,0,0,0-.07.35v.7h0a.53.53,0,0,1,.52-.32.52.52,0,0,1,.47.22,1,1,0,0,1,.16.62V373a1,1,0,0,1-.22.68.84.84,0,0,1-.65.24A.83.83,0,0,1,398.72,373.63Zm.94-.64v-.65q0-.36-.3-.36c-.19,0-.29.12-.29.36V373c0,.24.1.36.29.36S399.66,373.23,399.66,373Z" transform="translate(-148.12 -36.7)"/><rect class="cls-4" x="19.45" y="448.46" width="57.22" height="56.82"/><rect class="cls-15" x="21.15" y="449.95" width="53.55" height="53.18"/><rect class="cls-4" x="178.05" y="495.45" width="35.99" height="35.99" transform="translate(272.36 -24.94) rotate(45)"/><rect class="cls-16" x="177.91" y="495.04" width="36.37" height="36.37" transform="translate(272.22 -25.04) rotate(45)"/><rect class="cls-16" x="29.81" y="458.63" width="36.23" height="36.23"/><rect class="cls-4" x="184.29" y="501.69" width="23.51" height="23.51" transform="translate(272.36 -24.94) rotate(45)"/><rect class="cls-16" x="183.61" y="501.01" width="24.83" height="24.94" transform="translate(272.38 -24.91) rotate(45)"/><rect class="cls-4" x="191.96" y="509.44" width="8.16" height="8.16" transform="translate(272.42 -24.91) rotate(45)"/><rect class="cls-4" x="191.96" y="509.44" width="8.16" height="8.16" transform="translate(519.9 195.09) rotate(80.06)"/><rect class="cls-4" x="191.96" y="509.44" width="8.16" height="8.16" transform="translate(596.32 514.3) rotate(114.8)"/><rect class="cls-4" x="191.96" y="509.44" width="8.16" height="8.16" transform="translate(580.19 339.58) rotate(96.44)"/><rect class="cls-4" x="191.96" y="509.44" width="8.16" height="8.16" transform="translate(474.46 823.53) rotate(150)"/><rect class="cls-4" x="19.32" y="297.99" width="57.22" height="56.82"/><rect class="cls-15" x="21.02" y="299.47" width="53.55" height="53.18"/><rect class="cls-4" x="177.92" y="344.97" width="35.99" height="35.99" transform="translate(165.92 -68.92) rotate(45)"/><rect class="cls-16" x="177.78" y="344.57" width="36.37" height="36.37" transform="translate(165.78 -69.02) rotate(45)"/><rect class="cls-16" x="29.68" y="308.15" width="36.23" height="36.23"/><rect class="cls-4" x="184.16" y="351.22" width="23.51" height="23.51" transform="translate(165.92 -68.92) rotate(45)"/><rect class="cls-16" x="183.48" y="350.54" width="24.83" height="24.94" transform="translate(165.94 -68.89) rotate(45)"/><rect class="cls-4" x="191.84" y="358.97" width="8.16" height="8.16" transform="translate(165.98 -68.9) rotate(45)"/><rect class="cls-4" x="191.84" y="358.97" width="8.16" height="8.16" transform="translate(371.59 70.71) rotate(80.06)"/><rect class="cls-4" x="191.84" y="358.97" width="8.16" height="8.16" transform="translate(459.55 300.81) rotate(114.8)"/><rect class="cls-4" x="191.84" y="358.97" width="8.16" height="8.16" transform="translate(430.52 172.37) rotate(96.44)"/><rect class="cls-4" x="191.84" y="358.97" width="8.16" height="8.16" transform="translate(398.99 542.8) rotate(150)"/><rect class="cls-4" x="487.48" y="298.37" width="57.22" height="56.82"/><rect class="cls-15" x="489.19" y="299.86" width="53.55" height="53.18"/><rect class="cls-4" x="646.08" y="345.36" width="35.99" height="35.99" transform="translate(303.31 -399.85) rotate(45)"/><rect class="cls-16" x="645.95" y="344.95" width="36.37" height="36.37" transform="translate(303.18 -399.95) rotate(45)"/><rect class="cls-16" x="497.85" y="308.54" width="36.23" height="36.23"/><rect class="cls-4" x="652.33" y="351.6" width="23.51" height="23.51" transform="translate(303.32 -399.85) rotate(45)"/><rect class="cls-16" x="651.65" y="350.92" width="24.83" height="24.94" transform="translate(303.34 -399.82) rotate(45)"/><rect class="cls-4" x="660" y="359.35" width="8.16" height="8.16" transform="translate(303.37 -399.83) rotate(45)"/><rect class="cls-4" x="660" y="359.35" width="8.16" height="8.16" transform="translate(759.32 -390.11) rotate(80.06)"/><rect class="cls-4" x="660" y="359.35" width="8.16" height="8.16" transform="translate(1124.46 -123.62) rotate(114.8)"/><rect class="cls-4" x="660" y="359.35" width="8.16" height="8.16" transform="translate(951.55 -292.42) rotate(96.44)"/><rect class="cls-4" x="660" y="359.35" width="8.16" height="8.16" transform="translate(1272.79 309.44) rotate(150)"/><rect class="cls-4" x="487.48" y="448.4" width="57.22" height="56.82"/><rect class="cls-15" x="489.19" y="449.88" width="53.55" height="53.18"/><rect class="cls-4" x="646.08" y="495.38" width="35.99" height="35.99" transform="translate(409.4 -355.91) rotate(45)"/><rect class="cls-16" x="645.94" y="494.98" width="36.37" height="36.37" transform="translate(409.26 -356.01) rotate(45)"/><rect class="cls-16" x="497.84" y="458.56" width="36.23" height="36.23"/><rect class="cls-4" x="652.32" y="501.62" width="23.51" height="23.51" transform="translate(409.4 -355.91) rotate(45)"/><rect class="cls-16" x="651.64" y="500.95" width="24.83" height="24.94" transform="translate(409.42 -355.88) rotate(45)"/><rect class="cls-4" x="660" y="509.38" width="8.16" height="8.16" transform="translate(409.45 -355.89) rotate(45)"/><rect class="cls-4" x="660" y="509.38" width="8.16" height="8.16" transform="translate(907.09 -265.98) rotate(80.06)"/><rect class="cls-4" x="660" y="509.38" width="8.16" height="8.16" transform="translate(1260.64 89.34) rotate(114.8)"/><rect class="cls-4" x="660" y="509.38" width="8.16" height="8.16" transform="translate(1100.62 -125.58) rotate(96.44)"/><rect class="cls-4" x="660" y="509.38" width="8.16" height="8.16" transform="translate(1347.8 589.38) rotate(150)"/><rect class="cls-2" y="502.85" width="557.77" height="15.76"/><rect class="cls-2" x="1.21" y="284.52" width="555.4" height="15.41"/><rect class="cls-2" x="1.1" y="276.66" width="554.65" height="13.55"/><rect class="cls-2" x="577.9" y="426.86" width="240.62" height="15.37" rx="0.42" transform="translate(984.63 -300.36) rotate(90)"/><rect class="cls-2" x="39.4" y="422.87" width="238.86" height="21.42" rx="0.94" transform="translate(444.29 238.05) rotate(90)"/><rect class="cls-2" x="346.62" y="438.31" width="164.24" height="53.95" transform="translate(745.91 -0.15) rotate(90)"/><rect x="409.53" y="389.17" width="37.62" height="151.15" transform="translate(708.57 892.79) rotate(180)"/><rect class="cls-2" x="344.41" y="456.02" width="168.65" height="21.42" transform="translate(747.36 1.29) rotate(90)"/><rect class="cls-17" x="247.26" y="285.27" width="65" height="16.82" rx="0.34"/><rect class="cls-18" x="243.87" y="283.2" width="71.77" height="20.96" rx="0.34"/><text class="cls-19" transform="translate(267.09 296.33)">12<tspan class="cls-20" x="9.94" y="0">345</tspan></text><polygon class="cls-21" points="557.05 276.63 2.53 276.66 41.67 218.48 520.98 218.45 557.05 276.63"/><path class="cls-21" d="M691.23,58.7l-527.35-.05a12.2,12.2,0,0,0-12,14.6l34.42,172a12.2,12.2,0,0,0,12,9.81l461.2.05a12.2,12.2,0,0,0,12-10l31.73-172A12.21,12.21,0,0,0,691.23,58.7Z" transform="translate(-148.12 -36.7)"/><polygon class="cls-2" points="557.77 26.63 0.88 26.63 11.32 0 552.75 0 557.77 26.63"/><polygon class="cls-2" points="40.24 218.4 0 277.89 9.79 277.05 44.53 218.4 40.24 218.4"/><polygon class="cls-2" points="521.55 218.57 557.77 277.85 548.6 276.78 517.52 218.47 521.55 218.57"/><rect class="cls-2" x="41.34" y="216.11" width="479.84" height="2.36"/><polyline class="cls-2" points="521.46 218.62 557.77 26.62 551.69 26.62 517.3 218.45"/><polyline class="cls-2" points="40.21 218.48 0.88 26.62 6.92 26.52 44.35 218.24"/></g></svg>