<svg xmlns="http://www.w3.org/2000/svg" xmlns:xlink="http://www.w3.org/1999/xlink" viewBox="0 0 784.52 422.17"><defs><style>.cls-1,.cls-4{fill:#d11cb8;}.cls-1{fill-rule:evenodd;}.cls-2,.cls-20,.cls-7{fill:#fff;}.cls-19,.cls-3{fill:none;stroke-width:0.25px;}.cls-3{stroke:#fff;}.cls-19,.cls-3,.cls-5,.cls-6,.cls-7{stroke-miterlimit:10;}.cls-5,.cls-6{stroke:#d11cb8;}.cls-5{stroke-width:0.5px;}.cls-19,.cls-7{stroke:#1d1d1b;}.cls-8{fill:url(#Dégradé_sans_nom_57);}.cls-9{fill:url(#Dégradé_sans_nom_57-2);}.cls-10{fill:url(#Dégradé_sans_nom_57-3);}.cls-11{fill:url(#Dégradé_sans_nom_57-4);}.cls-12{fill:url(#Dégradé_sans_nom_57-5);}.cls-13{fill:url(#Dégradé_sans_nom_57-6);}.cls-14{fill:url(#Dégradé_sans_nom_57-7);}.cls-15{fill:url(#Dégradé_sans_nom_57-8);}.cls-16{fill:url(#Dégradé_sans_nom_57-9);}.cls-17{fill:url(#Dégradé_sans_nom_57-10);}.cls-18{fill:#1d1d1b;opacity:0.67;}.cls-20{font-size:9.31px;font-family:NeonDesmonRegular, NeonDesmon;letter-spacing:0.15em;}.cls-21{letter-spacing:0.08em;}</style><radialGradient id="Dégradé_sans_nom_57" cx="350.99" cy="144.95" r="6.1" gradientUnits="userSpaceOnUse"><stop offset="0" stop-color="#706f6f"/><stop offset="0.25" stop-color="#535251"/><stop offset="0.55" stop-color="#353534"/><stop offset="0.81" stop-color="#232321"/><stop offset="1" stop-color="#1d1d1b"/></radialGradient><radialGradient id="Dégradé_sans_nom_57-2" cx="391.71" cy="144.95" r="6.1" xlink:href="#Dégradé_sans_nom_57"/><radialGradient id="Dégradé_sans_nom_57-3" cx="412.07" cy="144.95" r="6.1" xlink:href="#Dégradé_sans_nom_57"/><radialGradient id="Dégradé_sans_nom_57-4" cx="432.43" cy="144.95" r="6.1" xlink:href="#Dégradé_sans_nom_57"/><radialGradient id="Dégradé_sans_nom_57-5" cx="371.35" cy="144.95" r="6.1" xlink:href="#Dégradé_sans_nom_57"/><radialGradient id="Dégradé_sans_nom_57-6" cx="350.99" cy="164.34" r="6.1" xlink:href="#Dégradé_sans_nom_57"/><radialGradient id="Dégradé_sans_nom_57-7" cx="371.35" cy="164.34" r="6.1" xlink:href="#Dégradé_sans_nom_57"/><radialGradient id="Dégradé_sans_nom_57-8" cx="391.71" cy="164.34" r="6.1" xlink:href="#Dégradé_sans_nom_57"/><radialGradient id="Dégradé_sans_nom_57-9" cx="412.07" cy="164.34" r="6.1" xlink:href="#Dégradé_sans_nom_57"/><radialGradient id="Dégradé_sans_nom_57-10" cx="432.43" cy="164.34" r="6.1" xlink:href="#Dégradé_sans_nom_57"/></defs><title>Coffre_Fort_Ferme</title><g id="Calque_4" data-name="Calque 4"><rect y="48.54" width="782.3" height="373.63"/><path class="cls-1" d="M370.05,473.36a11.1,11.1,0,0,1-9.14-2.6l.23.08a14.58,14.58,0,0,0,9.5.83,18.06,18.06,0,0,0,4.5-1.67,19.69,19.69,0,0,1,7.28-2.3,16.24,16.24,0,0,1,10.82,2.77A22.57,22.57,0,0,1,399,476a32.66,32.66,0,0,1,5.17,10.8c0,.13.07.25.1.38a.31.31,0,0,1,0,.16,52.65,52.65,0,0,0-3.81-6.85,33,33,0,0,0-5-6.05c-.07,0-.11,0-.13,0a2.33,2.33,0,0,1-2,.62c-.87-.08-1.74-.23-2.61-.35-.64-.09-1.27-.2-1.91-.26a4.8,4.8,0,0,0-3.57.84,5,5,0,0,1,1.59-2.73,7.66,7.66,0,0,1,2.66-1.6,2.91,2.91,0,0,0-.31,0,16.1,16.1,0,0,0-9.69,3,22.37,22.37,0,0,0-6.57,7.57c-.18.32-.34.64-.51,1a4,4,0,0,1,.69.29,1.43,1.43,0,0,1,.57,1,3.23,3.23,0,0,1-1,2.92c-.2-1-.84-1.74-.87-2.75-.05.09-.14.16-.16.25a6.81,6.81,0,0,0-.27,1.46,8.83,8.83,0,0,1-1.6,5.12c-.5.77-1,1.56-1.49,2.34-.1.15-.18.31-.27.47a3.06,3.06,0,0,0-.05,3.13c-.78-.12-1.3-.71-1.58-1.77l-1.08-.12c-.28,0-.39-.21-.43-.47a2.18,2.18,0,0,1,.3-1.52c.17-.3.38-.57.6-.89a1.5,1.5,0,0,1-1.23-.92,1.94,1.94,0,0,0,1.51-1,2.18,2.18,0,0,0,.15-1.43,4.63,4.63,0,0,1-3.11-1,3.86,3.86,0,0,1-1.09-1.4.76.76,0,0,1,.13.07,3.9,3.9,0,0,0,4,.8,7.17,7.17,0,0,0,5-4.66c.15-.45.32-.89.52-1.45a2.77,2.77,0,0,1-2.73.44,1.68,1.68,0,0,1-1-1,4,4,0,0,0,1.74-.93q.49-.4,1-.78a1.53,1.53,0,0,1,2.11-.07c.14-.2.26-.37.37-.55a17.87,17.87,0,0,1,4-4.66,13.88,13.88,0,0,1,8.42-3.31l.35,0,.1,0a1,1,0,0,0-.57-.13,13.16,13.16,0,0,0-5.13.71,20.58,20.58,0,0,0-5.33,2.7c-1.27.89-2.5,1.84-3.74,2.78a63.3,63.3,0,0,1-6.38,4.27,50.87,50.87,0,0,1-8.12,3.89l-.72.27s-.06.08-.06.11a3.56,3.56,0,0,1-2,3,24.5,24.5,0,0,1-2.36,1.15c-.38.18-.78.34-1.17.52a2.85,2.85,0,0,0-1.27,1,5.5,5.5,0,0,1-.07-3.77l-.1,0c-.16.17-.33.34-.49.52a22.41,22.41,0,0,1-7,5.36,10.88,10.88,0,0,1-12.2-1.53,4.26,4.26,0,0,1-.82-.87l.36.19a13.63,13.63,0,0,0,5.4,2,13,13,0,0,0,7.32-1.28,21.55,21.55,0,0,0,5.41-3.82l.42-.41s0-.06,0-.15a31.64,31.64,0,0,1-16.13-2.32c0,.13-.08.21-.11.3a2.49,2.49,0,0,1-1.63,1.68,4.32,4.32,0,0,1-1.84.3c-1.21-.06-2.41-.17-3.61-.26a5.44,5.44,0,0,0-2.16.06,3.82,3.82,0,0,1,1-2.09,6.22,6.22,0,0,1,1.91-1.32,18.74,18.74,0,0,0-9,1.11l.28.24a1.32,1.32,0,0,1,.49,1.78,5,5,0,0,1-1,1.5c-.84.84-1.71,1.66-2.56,2.49-.5.49-1,1-1.48,1.46a2.56,2.56,0,0,0-.82,1.41,2.22,2.22,0,0,1-1.24-1.43,4.15,4.15,0,0,1,0-2.49,1.94,1.94,0,0,0,.09-.48,25.17,25.17,0,0,0-4.94,8.57,1,1,0,0,1,0-.17,22.2,22.2,0,0,1,3.56-9,15.78,15.78,0,0,1,9-6.49,16.84,16.84,0,0,1,8.49,0,6.84,6.84,0,0,0,1,.2c-.87-.66-1.76-1.29-2.59-2s-1.63-1.45-2.4-2.22-1.52-1.61-2.24-2.46a34.28,34.28,0,0,0,12.79,7.89,9,9,0,0,1-1.74-2.1,4.68,4.68,0,0,1-.61-2.69,9.68,9.68,0,0,0,3.31,1.64l2,.67a12.92,12.92,0,0,1,2.92,1.36,3.09,3.09,0,0,1,1.56,2.71,31.15,31.15,0,0,0,11.11-1.2c-.11,0-.23,0-.35-.06a18.07,18.07,0,0,1-10.84-4.62,15.72,15.72,0,0,1-3.4-4.48,16.65,16.65,0,0,1-1.83-9.89,20.94,20.94,0,0,1,.6-2.55c0-.15.09-.28.12-.41s0-.05-.05-.06a2.31,2.31,0,0,1-1.53-2.27c0-.94,0-1.88.09-2.82,0-.61.14-1.21.19-1.82a6.84,6.84,0,0,0-.21-2.93,4.57,4.57,0,0,1,3,2,5.55,5.55,0,0,1,.92,3.55l.49-.54a13.74,13.74,0,0,1,10.64-4.93,11.69,11.69,0,0,1,6.5,2,10.79,10.79,0,0,1,4.58,5.8,9.19,9.19,0,0,1-1.59,9,6.85,6.85,0,0,1-4.83,2.64,5.83,5.83,0,0,1-4.29-1.19,4.09,4.09,0,0,1-1.67-3.29,2.41,2.41,0,0,1,1.32-2.32,1.88,1.88,0,0,1,2.45.63,1.92,1.92,0,0,1-2.92,2.46c-.12-.11-.22-.25-.4-.45a2.51,2.51,0,0,0,.58,1.44A4.51,4.51,0,0,0,352,470a5.86,5.86,0,0,0,5-2.68,7.41,7.41,0,0,0,1-6.77,9.18,9.18,0,0,0-6.66-6.28,1,1,0,0,0-.27,0,3.2,3.2,0,0,1,.41,4.14c-1-.39-1.87-.74-2.76-1.13a11.66,11.66,0,0,1-1.5-.75,1.88,1.88,0,0,1-1-2.19s0-.1.05-.19c-.28.06-.5.1-.72.16a11.65,11.65,0,0,0-7.55,6.32,14.06,14.06,0,0,0-.87,10.48c.05.16.12.33.22.62a4.57,4.57,0,0,1,2.9-3.11,10.87,10.87,0,0,0,.73,3.74,12.22,12.22,0,0,1,.35,1.9,2.72,2.72,0,0,1-.84,2.29l-.13.15s0,0,0,.09c.25.28.5.61.79.89a15,15,0,0,0,10.67,4.18,17.59,17.59,0,0,0,8.34-2.08l.27-.18-.56,0a4.42,4.42,0,0,1-3.24-1.7,3.08,3.08,0,0,1-.66-1.56,7.66,7.66,0,0,0,.83,0c.69-.1,1.37-.24,2.05-.35s1.54-.24,2.31-.3a4.32,4.32,0,0,1,1.18.13,2.74,2.74,0,0,1,1.74,1.29l.16.26s0,0,.1.06A56.08,56.08,0,0,0,370.05,473.36Z" transform="translate(-26.64 -88.31)"/><path class="cls-1" d="M363.47,450.25a4.87,4.87,0,0,1,2.25-1.16c1.12-.27,2.25-.49,3.43-.75.05.3.1.53.12.77.1,1,.23,2.08.27,3.11a4.3,4.3,0,0,1-.67,2.69,2.05,2.05,0,0,0,1-.11,8.27,8.27,0,0,0,3.17-2.07,12.72,12.72,0,0,0,2.3-3,2.27,2.27,0,0,1,.17-.22c0,.2,0,.32,0,.44a14.87,14.87,0,0,1-5.29,9.64,6.71,6.71,0,0,1-5.64,1.57,14.68,14.68,0,0,1-1.56-.47.51.51,0,0,1-.35-.48,10.84,10.84,0,0,0-1.61-4.49,12,12,0,0,0-7-5.4l-.43-.13c0-.06,0-.12.05-.15a9.68,9.68,0,0,1,3.17-2,5.21,5.21,0,0,1,3.92.07l.31.09a9.76,9.76,0,0,0-1.37-1.73,12.17,12.17,0,0,0-8.08-3.42,22.32,22.32,0,0,0-7.5.81c-1.29.35-2.55.82-3.82,1.24a.57.57,0,0,1-.35,0l1.68-.81a26.72,26.72,0,0,1,9.86-2.42,13.91,13.91,0,0,1,5.46.8,9.29,9.29,0,0,1,5,4.41c.11.2.22.4.34.58-.42-3.85-3.26-8.56-10.42-9l.4,0a12.34,12.34,0,0,1,6.69,1.69,9.13,9.13,0,0,1,4.61,9.15C363.52,449.74,363.5,449.94,363.47,450.25Z" transform="translate(-26.64 -88.31)"/><path class="cls-1" d="M298.45,493.09a15.28,15.28,0,0,0,6-5l-.44.17a6.68,6.68,0,0,1-3.33.6,3.72,3.72,0,0,1-2-.79,12.1,12.1,0,0,0,1.2.23,6,6,0,0,0,3.13-.57,14.67,14.67,0,0,0,4.71-3.4,1.76,1.76,0,0,0,.13-.2l-.27-.05a5.09,5.09,0,0,1-4.1-3.05,10.85,10.85,0,0,1-1-4.52,15,15,0,0,1,.47-4.17.92.92,0,0,1,.22-.41c0,.15.08.3.1.45a10.42,10.42,0,0,0,1.78,4.32,8.47,8.47,0,0,0,1.05,1.11,3.29,3.29,0,0,0,.61.35,6.17,6.17,0,0,1,1-3.87c.25-.48.52-.95.79-1.42.06,0,.12,0,.16,0a15.25,15.25,0,0,1,2.65,1.54,3,3,0,0,1,1.19,1.75l.39-.16c.5-.19,1-.41,1.49-.55a4.27,4.27,0,0,1,3.63.66,7.64,7.64,0,0,1,2.46,3.11l-.57.05a16.19,16.19,0,0,0-8.09,2.81,20.28,20.28,0,0,0-5,4.89,23.65,23.65,0,0,1-4.55,4.61,9.36,9.36,0,0,1-3.07,1.67,6,6,0,0,1-1.27.18,1.14,1.14,0,0,1-1-.5,1,1,0,0,1,.05-1.23,1,1,0,0,1,1.14-.22,1,1,0,0,1,.52,1.08C298.58,492.73,298.52,492.86,298.45,493.09Z" transform="translate(-26.64 -88.31)"/><path class="cls-1" d="M355,497.16a5.17,5.17,0,0,1-4.89-.22c2.15,3.7,1.53,7-1.16,10.06l.06-.22c0-.08.08-.15.11-.22a10.84,10.84,0,0,0,1.21-5.41,9.28,9.28,0,0,0-1.17-4.11l-.22-.32c-.83.74-.81,1.72.06,3-.47.37-.95.38-1.8,0,0,.23,0,.44,0,.64a3.11,3.11,0,0,1-.7,2.07c-.4.47-.55.51-1.1.21-.31-.17-.6-.39-.92-.59a2.63,2.63,0,0,1-2.79.59c.14-.09.21-.15.29-.19a3,3,0,0,0,1.72-1.94,13.86,13.86,0,0,0,.43-2.13c.15-1.15.21-2.3.35-3.45a9.89,9.89,0,0,1,.95-3.32,8.2,8.2,0,0,1,2.53-2.94c0,.14.06.24.08.34a13.39,13.39,0,0,0,1.83,4.73,8.6,8.6,0,0,0,1.74,2.15,4.3,4.3,0,0,0,3.2,1.22Z" transform="translate(-26.64 -88.31)"/><path class="cls-1" d="M337.65,506.71a2.27,2.27,0,0,1-1.2-2.06l-1.06-.32a.46.46,0,0,1-.35-.52,2.36,2.36,0,0,1,.65-1.57c.2-.22.41-.42.65-.66a1.53,1.53,0,0,1-1.07-1.1,2,2,0,0,0,1.68-.78,2.22,2.22,0,0,0,.36-1.34,4.45,4.45,0,0,1-3.79-3.05,13.44,13.44,0,0,0,1.08.82,4.21,4.21,0,0,0,2.25.53,10.63,10.63,0,0,0,3.53-.67,10,10,0,0,0,2.43-1.21,3.09,3.09,0,0,1,.08.33,6.94,6.94,0,0,1-1.55,4.9c-.63.82-1.36,1.56-2,2.35-.43.51-.87,1-1.24,1.54a2.77,2.77,0,0,0-.41,2.59A1.52,1.52,0,0,1,337.65,506.71Z" transform="translate(-26.64 -88.31)"/><path class="cls-1" d="M383.59,482.27a1.79,1.79,0,0,1-.37,1.86,2.74,2.74,0,0,1-2.43.87,4.26,4.26,0,0,1-3.56-2.66,6.19,6.19,0,0,1,.65-6.26,7.15,7.15,0,0,1,4-2.88l.15,0,.08.07-.64.5a8.13,8.13,0,0,0-2.62,3.43,5.88,5.88,0,0,0-.22,4.21,3.89,3.89,0,0,0,1.49,2.05,2.67,2.67,0,0,0,1.73.51,1.73,1.73,0,0,0,1.67-1.37Z" transform="translate(-26.64 -88.31)"/><path class="cls-1" d="M324,496.38a3.77,3.77,0,0,1,.74-1.56,4.46,4.46,0,0,1,2-1.43,6,6,0,0,1,3.89-.16,2.4,2.4,0,0,1,1.07.61.77.77,0,0,1-.33,1.38,4.28,4.28,0,0,1-1.07.18c-.76.05-1.52.05-2.28.07l-.6,0A6.19,6.19,0,0,0,324,496.38Z" transform="translate(-26.64 -88.31)"/><path class="cls-1" d="M364.91,446.88a1.46,1.46,0,1,1,2.08.1A1.44,1.44,0,0,1,364.91,446.88Z" transform="translate(-26.64 -88.31)"/><path class="cls-1" d="M340.84,504.35a1,1,0,1,1-1.37-.15A1,1,0,0,1,340.84,504.35Z" transform="translate(-26.64 -88.31)"/><path class="cls-1" d="M368,443.33a1,1,0,0,1-1.38-.11,1,1,0,0,1,.11-1.34,1,1,0,1,1,1.27,1.45Z" transform="translate(-26.64 -88.31)"/><path class="cls-1" d="M362.94,490.27a1,1,0,0,1,.08-1.37,1,1,0,0,1,1.29,1.45A1,1,0,0,1,362.94,490.27Z" transform="translate(-26.64 -88.31)"/><path class="cls-1" d="M365,444.29a1,1,0,1,1-1.27-1.44,1,1,0,1,1,1.27,1.44Z" transform="translate(-26.64 -88.31)"/><path class="cls-1" d="M343.8,505.68a1,1,0,1,1,.05-1.37A.95.95,0,0,1,343.8,505.68Z" transform="translate(-26.64 -88.31)"/><path class="cls-1" d="M361,490a.6.6,0,0,1,0-.85.59.59,0,0,1,.84,0,.61.61,0,0,1,0,.85A.62.62,0,0,1,361,490Z" transform="translate(-26.64 -88.31)"/><path class="cls-1" d="M341.19,506.25a.56.56,0,0,1,.83,0,.59.59,0,0,1,0,.84.62.62,0,0,1-.85,0A.58.58,0,0,1,341.19,506.25Z" transform="translate(-26.64 -88.31)"/><path class="cls-1" d="M361.73,490.88a.59.59,0,0,1,.84.09.61.61,0,0,1-.09.84.63.63,0,0,1-.85-.08A.62.62,0,0,1,361.73,490.88Z" transform="translate(-26.64 -88.31)"/><path class="cls-1" d="M467.07,473.28a11.09,11.09,0,0,0,9.14-2.6,1.43,1.43,0,0,0-.22.08,14.75,14.75,0,0,1-9.51.83,18.06,18.06,0,0,1-4.5-1.67,19.83,19.83,0,0,0-7.28-2.31,16.25,16.25,0,0,0-10.82,2.78,22.7,22.7,0,0,0-5.71,5.52A33,33,0,0,0,433,486.72c0,.13-.07.25-.1.38a.31.31,0,0,0,0,.16,53.86,53.86,0,0,1,3.81-6.85,33.36,33.36,0,0,1,5-6.05h.13a2.36,2.36,0,0,0,2,.63c.87-.08,1.73-.23,2.6-.35.64-.09,1.27-.2,1.91-.26a4.8,4.8,0,0,1,3.57.84,5,5,0,0,0-1.58-2.73,7.8,7.8,0,0,0-2.67-1.6c.1,0,.21,0,.31,0a16.08,16.08,0,0,1,9.69,3,22.37,22.37,0,0,1,6.57,7.57c.18.31.34.64.51,1a4.93,4.93,0,0,0-.69.3,1.43,1.43,0,0,0-.57,1,3.26,3.26,0,0,0,1,2.92c.2-1,.85-1.74.87-2.75a.76.76,0,0,1,.16.25,6.84,6.84,0,0,1,.27,1.45,8.93,8.93,0,0,0,1.6,5.13l1.5,2.34c.09.15.17.31.26.47a3,3,0,0,1,.05,3.13c.78-.12,1.3-.71,1.58-1.77l1.09-.12c.28,0,.38-.21.42-.47a2.18,2.18,0,0,0-.3-1.52c-.17-.3-.38-.57-.6-.89a1.5,1.5,0,0,0,1.23-.92,1.94,1.94,0,0,1-1.51-1,2.2,2.2,0,0,1-.15-1.44,4.67,4.67,0,0,0,3.12-.95,3.83,3.83,0,0,0,1.08-1.4l-.13.07a3.89,3.89,0,0,1-3.94.8,7.17,7.17,0,0,1-5-4.66c-.15-.45-.32-.89-.52-1.45a2.77,2.77,0,0,0,2.73.44,1.72,1.72,0,0,0,1-1,3.92,3.92,0,0,1-1.74-.93c-.34-.27-.68-.53-1-.78a1.53,1.53,0,0,0-2.11-.07,6.39,6.39,0,0,1-.36-.55,18.26,18.26,0,0,0-4-4.66,13.87,13.87,0,0,0-8.43-3.31l-.35,0-.1,0a1,1,0,0,1,.57-.13,13.16,13.16,0,0,1,5.13.71,20.7,20.7,0,0,1,5.33,2.69c1.27.9,2.5,1.85,3.74,2.79a63.3,63.3,0,0,0,6.38,4.27,51.28,51.28,0,0,0,8.12,3.89l.72.27c0,.05.06.08.06.11a3.58,3.58,0,0,0,2,3c.75.44,1.57.78,2.36,1.15.39.18.79.34,1.17.52a2.85,2.85,0,0,1,1.27,1,5.5,5.5,0,0,0,.07-3.77l.1-.05c.16.17.33.34.49.52a22.34,22.34,0,0,0,7.06,5.36A10.87,10.87,0,0,0,508,490.87a4.54,4.54,0,0,0,.82-.87l-.36.19a13.63,13.63,0,0,1-5.4,2,13,13,0,0,1-7.32-1.28,21.32,21.32,0,0,1-5.4-3.82c-.15-.14-.29-.27-.43-.42s0-.05,0-.14A31.75,31.75,0,0,0,506,484.2l.11.3a2.49,2.49,0,0,0,1.63,1.68,4.67,4.67,0,0,0,1.85.3c1.2-.06,2.4-.17,3.61-.26a5.4,5.4,0,0,1,2.15.06,3.82,3.82,0,0,0-1-2.09,6.22,6.22,0,0,0-1.91-1.32,18.86,18.86,0,0,1,9,1.1c-.12.11-.19.18-.28.25a1.31,1.31,0,0,0-.48,1.78,4.7,4.7,0,0,0,1,1.5c.83.84,1.7,1.66,2.55,2.49.5.48,1,1,1.49,1.46a2.54,2.54,0,0,1,.81,1.41,2.22,2.22,0,0,0,1.24-1.43,4.18,4.18,0,0,0,0-2.5,1.78,1.78,0,0,1-.09-.47,25.17,25.17,0,0,1,4.94,8.57,1,1,0,0,0,0-.17,22.3,22.3,0,0,0-3.56-9,15.78,15.78,0,0,0-9-6.48,17,17,0,0,0-8.49,0,5.88,5.88,0,0,1-1,.21c.86-.66,1.75-1.29,2.58-2s1.63-1.45,2.4-2.22,1.52-1.61,2.24-2.46A34.28,34.28,0,0,1,505,482.8a8.82,8.82,0,0,0,1.74-2.11,4.65,4.65,0,0,0,.61-2.68,9.86,9.86,0,0,1-3.31,1.64l-2,.67a13,13,0,0,0-2.91,1.35,3.15,3.15,0,0,0-1.57,2.72,31.15,31.15,0,0,1-11.11-1.2c.11,0,.23-.05.35-.06a18.07,18.07,0,0,0,10.84-4.62A15.72,15.72,0,0,0,501,474a16.65,16.65,0,0,0,1.83-9.89,20.94,20.94,0,0,0-.6-2.55c0-.15-.09-.28-.12-.41s0-.05.05-.06a2.29,2.29,0,0,0,1.53-2.27c0-.94,0-1.88-.09-2.82,0-.61-.14-1.22-.19-1.82a6.69,6.69,0,0,1,.22-2.93,4.59,4.59,0,0,0-3,2,5.55,5.55,0,0,0-.92,3.55l-.49-.54a13.74,13.74,0,0,0-10.64-4.93,11.69,11.69,0,0,0-6.5,2,10.75,10.75,0,0,0-4.58,5.8,9.2,9.2,0,0,0,1.59,9A6.85,6.85,0,0,0,484,470.8a5.8,5.8,0,0,0,4.29-1.19,4.08,4.08,0,0,0,1.67-3.29,2.42,2.42,0,0,0-1.32-2.33,1.9,1.9,0,0,0-2.45.64,1.92,1.92,0,0,0,2.92,2.46c.12-.12.22-.25.4-.46a2.58,2.58,0,0,1-.57,1.45,4.55,4.55,0,0,1-3.76,1.79,5.86,5.86,0,0,1-5-2.68,7.44,7.44,0,0,1-1-6.77,9.19,9.19,0,0,1,6.66-6.28,1,1,0,0,1,.27,0,3.17,3.17,0,0,0-1,2.61,3.11,3.11,0,0,0,.57,1.53c.95-.39,1.86-.74,2.75-1.13a11,11,0,0,0,1.5-.75,2.09,2.09,0,0,0,.91-2.39l.72.17a11.63,11.63,0,0,1,7.55,6.32A14,14,0,0,1,500,471c-.05.17-.12.34-.22.63a4.55,4.55,0,0,0-2.9-3.11,10.91,10.91,0,0,1-.73,3.74,12.22,12.22,0,0,0-.35,1.9,2.72,2.72,0,0,0,.85,2.29s.08.1.12.15,0,0,0,.09c-.25.28-.5.61-.79.89a15,15,0,0,1-10.67,4.18,17.59,17.59,0,0,1-8.34-2.08l-.27-.18.56,0a4.38,4.38,0,0,0,3.24-1.69,3.08,3.08,0,0,0,.66-1.56,5.71,5.71,0,0,1-.83,0c-.69-.09-1.37-.23-2.05-.34s-1.54-.24-2.31-.3a4.2,4.2,0,0,0-1.17.13,2.76,2.76,0,0,0-1.75,1.29l-.15.26-.1.06A55.13,55.13,0,0,1,467.07,473.28Z" transform="translate(-26.64 -88.31)"/><path class="cls-1" d="M473.65,450.17A4.78,4.78,0,0,0,471.4,449c-1.12-.27-2.25-.49-3.43-.75-.05.29-.09.53-.12.77-.1,1-.23,2.07-.27,3.11a4.3,4.3,0,0,0,.67,2.69,2.05,2.05,0,0,1-1-.11,8.35,8.35,0,0,1-3.17-2.07,12.72,12.72,0,0,1-2.3-3,1.77,1.77,0,0,0-.16-.22,2.91,2.91,0,0,0,0,.44,14.76,14.76,0,0,0,5.28,9.63,6.69,6.69,0,0,0,5.64,1.58,14.74,14.74,0,0,0,1.56-.48.49.49,0,0,0,.35-.47,11.13,11.13,0,0,1,1.61-4.49,12,12,0,0,1,7-5.4l.43-.13a1,1,0,0,0,0-.15,9.83,9.83,0,0,0-3.18-2,5.21,5.21,0,0,0-3.92.07,2.11,2.11,0,0,1-.31.08,10.56,10.56,0,0,1,1.37-1.72,12.12,12.12,0,0,1,8.08-3.42,22.16,22.16,0,0,1,7.51.81c1.28.35,2.54.82,3.81,1.24a.58.58,0,0,0,.35,0c-.56-.27-1.11-.56-1.68-.81a26.72,26.72,0,0,0-9.86-2.42,13.84,13.84,0,0,0-5.45.8,9.28,9.28,0,0,0-5,4.41c-.11.2-.22.4-.34.58.42-3.86,3.27-8.56,10.42-9-.13,0-.26,0-.4,0a12.34,12.34,0,0,0-6.69,1.69,9.1,9.1,0,0,0-4.6,9.15C473.6,449.66,473.62,449.86,473.65,450.17Z" transform="translate(-26.64 -88.31)"/><path class="cls-1" d="M538.68,493a15.21,15.21,0,0,1-6-5l.43.17a6.7,6.7,0,0,0,3.33.6,3.72,3.72,0,0,0,2-.79,11.57,11.57,0,0,1-1.2.23,6,6,0,0,1-3.13-.57,14.67,14.67,0,0,1-4.71-3.4s-.07-.11-.13-.2l.27-.05a5.09,5.09,0,0,0,4.1-3,10.69,10.69,0,0,0,1-4.52,15,15,0,0,0-.47-4.17.92.92,0,0,0-.22-.41c0,.15-.07.3-.1.45a10.42,10.42,0,0,1-1.78,4.32,7.85,7.85,0,0,1-1.05,1.11,3,3,0,0,1-.61.35,6.17,6.17,0,0,0-1-3.87c-.24-.48-.52-.95-.78-1.42a.32.32,0,0,0-.17,0,15,15,0,0,0-2.65,1.54,3,3,0,0,0-1.19,1.75l-.39-.16a14.08,14.08,0,0,0-1.49-.55,4.27,4.27,0,0,0-3.63.66,7.64,7.64,0,0,0-2.46,3.11l.57.05a16.1,16.1,0,0,1,8.09,2.81,20.42,20.42,0,0,1,5,4.88,23.38,23.38,0,0,0,4.55,4.61,9.2,9.2,0,0,0,3.07,1.68,6,6,0,0,0,1.27.18,1.17,1.17,0,0,0,1-.5,1,1,0,0,0-.05-1.24,1,1,0,0,0-1.66.87A5,5,0,0,0,538.68,493Z" transform="translate(-26.64 -88.31)"/><path class="cls-1" d="M482.13,497.08a5.17,5.17,0,0,0,4.89-.23c-2.14,3.71-1.52,7,1.16,10.07a1.8,1.8,0,0,0-.06-.22c0-.08-.08-.15-.11-.22a10.84,10.84,0,0,1-1.21-5.41A9.24,9.24,0,0,1,488,497l.22-.32c.84.74.81,1.72-.06,3,.48.37.95.38,1.8,0,0,.23,0,.44,0,.64a3.11,3.11,0,0,0,.7,2.07c.41.47.55.51,1.1.21.31-.17.6-.39.92-.6a2.63,2.63,0,0,0,2.8.6c-.15-.09-.22-.15-.3-.19a3,3,0,0,1-1.72-1.94,13.86,13.86,0,0,1-.43-2.13c-.14-1.15-.21-2.3-.34-3.45a10.14,10.14,0,0,0-1-3.32,8.2,8.2,0,0,0-2.53-2.94c0,.13-.06.24-.08.34a13.39,13.39,0,0,1-1.83,4.73,8.79,8.79,0,0,1-1.74,2.15,4.34,4.34,0,0,1-3.2,1.22Z" transform="translate(-26.64 -88.31)"/><path class="cls-1" d="M499.47,506.63a2.28,2.28,0,0,0,1.2-2.06l1.07-.32a.45.45,0,0,0,.34-.52,2.28,2.28,0,0,0-.65-1.57c-.2-.22-.41-.42-.65-.66a1.53,1.53,0,0,0,1.07-1.1,2,2,0,0,1-1.68-.78,2.24,2.24,0,0,1-.36-1.35,4.41,4.41,0,0,0,3.79-3,11.87,11.87,0,0,1-1.08.82,4.29,4.29,0,0,1-2.24.53,10.64,10.64,0,0,1-3.54-.67,10,10,0,0,1-2.43-1.21,3.09,3.09,0,0,0-.08.33,6.94,6.94,0,0,0,1.55,4.9c.64.82,1.36,1.56,2,2.35a18.16,18.16,0,0,1,1.24,1.54,2.74,2.74,0,0,1,.41,2.59A1.5,1.5,0,0,0,499.47,506.63Z" transform="translate(-26.64 -88.31)"/><path class="cls-1" d="M453.53,482.18a1.8,1.8,0,0,0,.38,1.87,2.72,2.72,0,0,0,2.42.87,4.26,4.26,0,0,0,3.56-2.66,6.19,6.19,0,0,0-.65-6.26,7.15,7.15,0,0,0-4-2.88l-.14,0s0,0-.09.07l.64.5a8.13,8.13,0,0,1,2.62,3.43,5.83,5.83,0,0,1,.22,4.21,3.89,3.89,0,0,1-1.49,2.05,2.72,2.72,0,0,1-1.72.51,1.74,1.74,0,0,1-1.68-1.37Z" transform="translate(-26.64 -88.31)"/><path class="cls-1" d="M513.12,496.3a3.71,3.71,0,0,0-.74-1.56,4.46,4.46,0,0,0-2-1.43,6,6,0,0,0-3.89-.16,2.47,2.47,0,0,0-1.07.6.77.77,0,0,0,.33,1.38,4.37,4.37,0,0,0,1.07.19c.76.05,1.52.05,2.28.07l.6,0A6.1,6.1,0,0,1,513.12,496.3Z" transform="translate(-26.64 -88.31)"/><path class="cls-1" d="M472.21,446.8a1.46,1.46,0,1,0-2.08.1A1.45,1.45,0,0,0,472.21,446.8Z" transform="translate(-26.64 -88.31)"/><path class="cls-1" d="M496.28,504.27a1,1,0,0,0,.13,1.34,1,1,0,0,0,1.38-.12,1,1,0,1,0-1.51-1.22Z" transform="translate(-26.64 -88.31)"/><path class="cls-1" d="M469.12,443.25a1,1,0,0,0,1.38-.11,1,1,0,0,0-.11-1.34,1,1,0,0,0-1.37.08A1,1,0,0,0,469.12,443.25Z" transform="translate(-26.64 -88.31)"/><path class="cls-1" d="M474.18,490.19a.94.94,0,0,0-.08-1.37,1,1,0,0,0-1.29,1.45A1,1,0,0,0,474.18,490.19Z" transform="translate(-26.64 -88.31)"/><path class="cls-1" d="M472.12,444.21a1,1,0,0,0,1.37-.11,1,1,0,1,0-1.37.11Z" transform="translate(-26.64 -88.31)"/><path class="cls-1" d="M493.33,505.6a1,1,0,0,0,1.31-1.41,1,1,0,1,0-1.31,1.41Z" transform="translate(-26.64 -88.31)"/><path class="cls-1" d="M476.15,489.89a.59.59,0,1,0-.86-.82.59.59,0,1,0,.86.82Z" transform="translate(-26.64 -88.31)"/><path class="cls-1" d="M495.94,506.16a.58.58,0,0,0-.84,0,.6.6,0,0,0,0,.84.63.63,0,0,0,.86,0A.61.61,0,0,0,495.94,506.16Z" transform="translate(-26.64 -88.31)"/><path class="cls-1" d="M475.4,490.8a.61.61,0,0,0-.85.08.62.62,0,0,0,.09.85.63.63,0,0,0,.85-.08A.62.62,0,0,0,475.4,490.8Z" transform="translate(-26.64 -88.31)"/><polygon points="784.49 48.51 1.22 48.54 56.51 0.03 733.54 0 784.49 48.51"/><rect class="cls-2" y="48.54" width="784.49" height="33.92"/><polygon class="cls-2" points="0 48.54 53.96 1.67 67.4 1.65 16.88 48.54 0 48.54"/><path class="cls-1" d="M373,283.64a7.62,7.62,0,0,0-5.29,3.8l.12-.1a10,10,0,0,1,6-2.74,12.42,12.42,0,0,1,3.28,0,13.34,13.34,0,0,0,5.23-.2,11.1,11.1,0,0,0,6.35-4.3,15.69,15.69,0,0,0,2.4-4.89,22.56,22.56,0,0,0,.83-8.17,2.48,2.48,0,0,0,0-.27.14.14,0,0,0,0-.1,36.74,36.74,0,0,1-.87,5.31,23.12,23.12,0,0,1-1.81,5.06c-.05,0-.07,0-.09,0a1.59,1.59,0,0,0-1.41.06c-.55.25-1.07.55-1.6.83s-.78.42-1.18.61a3.28,3.28,0,0,1-2.49.29,3.45,3.45,0,0,0,1.65,1.39,5.3,5.3,0,0,0,2.09.41.69.69,0,0,1-.19.1,11.07,11.07,0,0,1-6.94.33,15.33,15.33,0,0,1-6-3.37c-.19-.16-.37-.33-.55-.5a2.49,2.49,0,0,0,.37-.35,1,1,0,0,0,.14-.78,2.23,2.23,0,0,0-1.35-1.65,10.72,10.72,0,0,0,.08,2c-.05,0-.13-.07-.16-.12a4.57,4.57,0,0,1-.51-.88,6.1,6.1,0,0,0-2.22-2.93c-.51-.38-1-.77-1.51-1.16l-.28-.25a2.08,2.08,0,0,1-.76-2,1.43,1.43,0,0,0-.61,1.51l-.67.33a.33.33,0,0,0-.17.4,1.57,1.57,0,0,0,.55.92c.18.15.38.28.59.43a1,1,0,0,0-.58.88,1.29,1.29,0,0,1,1.21.3,1.47,1.47,0,0,1,.43.89,3.16,3.16,0,0,0-1.79,1.33,2.79,2.79,0,0,0-.38,1.16.45.45,0,0,0,.07-.07,2.68,2.68,0,0,1,2.36-1.44,4.94,4.94,0,0,1,4.33,1.85l.67.81a1.92,1.92,0,0,0-1.86.35,1.15,1.15,0,0,0-.45.86,2.65,2.65,0,0,1,1.34.2l.84.26c.54.14,1,.16,1.38-.44l.36.27a12.23,12.23,0,0,0,3.64,2.09,9.58,9.58,0,0,0,6.21.18l.22-.07h.08a.74.74,0,0,1-.34.21,8.85,8.85,0,0,1-3.47.73,14,14,0,0,1-4.07-.5c-1-.28-2-.61-3.06-.93a44.91,44.91,0,0,0-5.11-1.28,35.21,35.21,0,0,0-6.14-.62h-.53l-.06-.05a2.47,2.47,0,0,0-2-1.49,17.8,17.8,0,0,0-1.79-.19l-.88-.07a1.89,1.89,0,0,1-1.05-.37,3.75,3.75,0,0,0,.83,2.45l-.06.06-.43-.22A15.26,15.26,0,0,0,350,278a7.77,7.77,0,0,0-4.81,1,7.61,7.61,0,0,0-2.7,2.82,3,3,0,0,0-.34.75l.19-.21a9.52,9.52,0,0,1,3-2.54,8.8,8.8,0,0,1,5-.86,14.43,14.43,0,0,1,4.37,1.21l.37.16s0,0,.05.09a21.76,21.76,0,0,0-9.87,5.24l-.14-.17a1.73,1.73,0,0,0-1.44-.7,3,3,0,0,0-1.26.23c-.77.32-1.52.67-2.27,1a3.92,3.92,0,0,1-1.4.46,2.63,2.63,0,0,0,1.12,1.12,4.28,4.28,0,0,0,1.54.4,12.82,12.82,0,0,1-6.07,1.38,2,2,0,0,1,.12-.22.89.89,0,0,0-.1-1.26,3.3,3.3,0,0,0-1-.73c-.74-.35-1.49-.68-2.23-1-.43-.19-.87-.38-1.3-.59a1.81,1.81,0,0,1-.85-.73,1.53,1.53,0,0,0-.47,1.22,2.83,2.83,0,0,0,.59,1.6,1.38,1.38,0,0,1,.17.29,17.22,17.22,0,0,1-5.18-4.39,1.17,1.17,0,0,0,.05.11,15.35,15.35,0,0,0,4.38,5,10.87,10.87,0,0,0,7.33,2.09,11.64,11.64,0,0,0,5.48-2,4.17,4.17,0,0,1,.61-.38c-.4.63-.83,1.24-1.2,1.88s-.72,1.32-1,2-.6,1.39-.87,2.11a23.41,23.41,0,0,1,6.42-8.06,6.52,6.52,0,0,0-.64,1.76,3.26,3.26,0,0,0,.24,1.88,6.65,6.65,0,0,1,1.75-1.83l1.12-.89a8.8,8.8,0,0,0,1.56-1.55,2.14,2.14,0,0,0,.39-2.11,21.27,21.27,0,0,1,7.45-1.81,2.39,2.39,0,0,1-.22.12,12.42,12.42,0,0,0-5.93,5.5,11,11,0,0,0-1.15,3.68,11.45,11.45,0,0,0,1.11,6.81,14.38,14.38,0,0,0,1,1.5,1.46,1.46,0,0,0,.17.24s0,0,0,.05a1.57,1.57,0,0,0-.46,1.82c.19.61.46,1.2.71,1.8.17.38.37.75.55,1.13a4.59,4.59,0,0,1,.53,1.94,3.17,3.17,0,0,0,1.46-2,3.8,3.8,0,0,0-.24-2.51l.45.24a9.44,9.44,0,0,0,8,.71,8,8,0,0,0,3.73-2.8,7.37,7.37,0,0,0,1.61-4.8,6.31,6.31,0,0,0-3.11-5.43,4.66,4.66,0,0,0-3.73-.58,4,4,0,0,0-2.49,1.76,2.8,2.8,0,0,0-.32,2.51,1.64,1.64,0,0,0,1.39,1.19,1.29,1.29,0,0,0,1.44-1,1.32,1.32,0,0,0-2.46-.9c-.05.1-.08.21-.15.38a1.72,1.72,0,0,1,0-1.06,3.1,3.1,0,0,1,2-2,4,4,0,0,1,3.85.57,5.1,5.1,0,0,1,2.21,4.14,6.31,6.31,0,0,1-2.84,5.6l-.17.07a2.17,2.17,0,0,0,0-1.91,2.27,2.27,0,0,0-.72-.86c-.53.47-1,.91-1.52,1.37a7.75,7.75,0,0,0-.79.83,1.3,1.3,0,0,0-.11,1.64.72.72,0,0,1,.07.11l-.5.06a8,8,0,0,1-6.34-2.33,9.63,9.63,0,0,1-3-6.56c0-.12,0-.24,0-.45a3.15,3.15,0,0,0,2.6,1.34,7.26,7.26,0,0,1-.4-2.59,8,8,0,0,0-.22-1.3,1.88,1.88,0,0,0-1.07-1.29l-.12-.07s0,0,0-.05c.09-.24.18-.51.3-.76a10.31,10.31,0,0,1,5.92-5.17,12,12,0,0,1,5.86-.59l.22.05-.36.16a3,3,0,0,0-1.7,1.84,2.27,2.27,0,0,0-.06,1.16c.19-.06.36-.15.54-.19l1.4-.25c.53-.11,1.05-.2,1.56-.35a2.89,2.89,0,0,0,.73-.35,1.88,1.88,0,0,0,.83-1.24,1.42,1.42,0,0,1,0-.2s0,0,.05-.06A39.09,39.09,0,0,1,373,283.64Z" transform="translate(-26.64 -88.31)"/><path class="cls-1" d="M374.06,300.09a3.39,3.39,0,0,0,1.72.22c.79-.08,1.57-.2,2.39-.31,0-.2-.06-.37-.1-.53-.18-.69-.33-1.39-.55-2.07a2.92,2.92,0,0,0-1-1.57,1.23,1.23,0,0,1,.65-.16,5.66,5.66,0,0,1,2.52.6,8.5,8.5,0,0,1,2.17,1.38l.16.1a2.34,2.34,0,0,0-.11-.28,10.1,10.1,0,0,0-5.64-5,4.58,4.58,0,0,0-4,.29,9.54,9.54,0,0,0-.9.67.33.33,0,0,0-.12.38,7.72,7.72,0,0,1,0,3.28,8.23,8.23,0,0,1-3.29,5.11l-.24.18a.23.23,0,0,0,.06.09,6.81,6.81,0,0,0,2.51.54,3.53,3.53,0,0,0,2.51-.95s.09-.06.18-.13a6.49,6.49,0,0,1-.48,1.43,8.36,8.36,0,0,1-4.42,4.08,15.32,15.32,0,0,1-5,1.22c-.92.07-1.84.06-2.75.08a.43.43,0,0,0-.24.06c.43,0,.85.1,1.28.13a18.2,18.2,0,0,0,6.92-.72,9.44,9.44,0,0,0,3.33-1.79,6.38,6.38,0,0,0,2.23-4,3.54,3.54,0,0,1,.08-.45c.62,2.59-.12,6.29-4.63,8.24l.26-.07a8.47,8.47,0,0,0,3.92-2.65,6.24,6.24,0,0,0,.86-7Z" transform="translate(-26.64 -88.31)"/><path class="cls-1" d="M322.16,287.52a10.47,10.47,0,0,1,5,1.81h-.32a4.63,4.63,0,0,0-2.29.39,2.52,2.52,0,0,0-1.12,1,7.15,7.15,0,0,1,.72-.42,4.19,4.19,0,0,1,2.15-.36,10,10,0,0,1,3.83,1.11l.13.09-.16.1a3.46,3.46,0,0,0-1.94,2.92,7.29,7.29,0,0,0,.41,3.14,10.25,10.25,0,0,0,1.28,2.59.53.53,0,0,0,.23.21c0-.11,0-.21,0-.32a7.06,7.06,0,0,1,.15-3.2,5.09,5.09,0,0,1,.42-1,2.23,2.23,0,0,1,.31-.36,4.32,4.32,0,0,0,1.55,2.26l.84.73c.05,0,.09,0,.11,0a10.87,10.87,0,0,0,1.35-1.61,2.09,2.09,0,0,0,.37-1.41h.29a9.73,9.73,0,0,0,1.08,0,2.9,2.9,0,0,0,2.19-1.27,5.23,5.23,0,0,0,.87-2.57,2.58,2.58,0,0,0-.38.1,11.17,11.17,0,0,1-5.88.06,13.84,13.84,0,0,1-4.37-2,16.38,16.38,0,0,0-4-1.92,6.4,6.4,0,0,0-2.37-.37,3.66,3.66,0,0,0-.86.18.81.81,0,0,0-.55.56.66.66,0,0,0,.32.78.68.68,0,0,0,.79-.12.66.66,0,0,0,.08-.82A2.85,2.85,0,0,0,322.16,287.52Z" transform="translate(-26.64 -88.31)"/><path class="cls-1" d="M357.71,271.78a3.52,3.52,0,0,0-3.1,1.28,5.46,5.46,0,0,0-3.08-6.23,1,1,0,0,0,.09.13.63.63,0,0,0,.12.11,7.44,7.44,0,0,1,2,3.22,6.27,6.27,0,0,1,.2,2.92,2.5,2.5,0,0,1-.07.26c-.71-.29-.92-.93-.66-2-.39-.13-.7,0-1.16.42-.05-.15-.09-.28-.14-.41a2.24,2.24,0,0,0-.94-1.18c-.37-.2-.47-.2-.76.12s-.29.39-.45.6a1.81,1.81,0,0,0-1.94.27,2,2,0,0,0,.23.05,2.07,2.07,0,0,1,1.56.85,9.24,9.24,0,0,1,.77,1.28c.36.71.67,1.44,1,2.15a6.85,6.85,0,0,0,1.38,1.92,5.7,5.7,0,0,0,2.31,1.31c0-.1,0-.17,0-.24a9.05,9.05,0,0,1,.08-3.48,6.06,6.06,0,0,1,.63-1.79,3,3,0,0,1,1.78-1.53Z" transform="translate(-26.64 -88.31)"/><path class="cls-1" d="M344.3,269.64a1.55,1.55,0,0,0-.29,1.6l-.62.45a.33.33,0,0,0-.1.42,1.59,1.59,0,0,0,.79.86c.17.1.36.18.57.28a1,1,0,0,0-.43,1,1.37,1.37,0,0,1,1.26.11,1.5,1.5,0,0,1,.54.79,3,3,0,0,0-1.73,2.84c.18-.28.32-.55.5-.78a2.87,2.87,0,0,1,1.33-.86,7.82,7.82,0,0,1,4.28-.17,1.42,1.42,0,0,0,0-.24,4.75,4.75,0,0,0-2.13-2.8c-.6-.38-1.24-.69-1.86-1a13.28,13.28,0,0,1-1.16-.71,1.9,1.9,0,0,1-.87-1.57A.39.39,0,0,0,344.3,269.64Z" transform="translate(-26.64 -88.31)"/><path class="cls-1" d="M379.62,274.76a1.2,1.2,0,0,0-.67-1.12,1.88,1.88,0,0,0-1.77,0,2.93,2.93,0,0,0-1.68,2.54,4.24,4.24,0,0,0,1.87,3.89,4.93,4.93,0,0,0,3.24.94l.1,0,0-.07-.54-.17a5.7,5.7,0,0,1-2.48-1.6,4.05,4.05,0,0,1-1.12-2.67,2.61,2.61,0,0,1,.49-1.67,1.82,1.82,0,0,1,1-.73,1.19,1.19,0,0,1,1.4.49A1.27,1.27,0,0,1,379.62,274.76Z" transform="translate(-26.64 -88.31)"/><path class="cls-1" d="M337.89,279.47a2.56,2.56,0,0,0,.84.83,3,3,0,0,0,1.61.46,4,4,0,0,0,2.55-.8,1.67,1.67,0,0,0,.55-.63c.21-.47,0-.84-.53-.82a3.1,3.1,0,0,0-.74.13c-.49.15-1,.32-1.48.49l-.39.12A4.27,4.27,0,0,1,337.89,279.47Z" transform="translate(-26.64 -88.31)"/><path class="cls-1" d="M375.77,301.93a1,1,0,0,0,1.86.75,1,1,0,1,0-1.86-.75Z" transform="translate(-26.64 -88.31)"/><path class="cls-1" d="M346.91,270.41a.68.68,0,0,0-.39-.83.69.69,0,0,0-.87.4.67.67,0,1,0,1.26.43Z" transform="translate(-26.64 -88.31)"/><path class="cls-1" d="M378.59,303.5a.66.66,0,0,0-.48,1.23.64.64,0,0,0,.86-.37A.65.65,0,0,0,378.59,303.5Z" transform="translate(-26.64 -88.31)"/><path class="cls-1" d="M364.44,274.38a.65.65,0,1,0,1.22.47.65.65,0,1,0-1.22-.47Z" transform="translate(-26.64 -88.31)"/><path class="cls-1" d="M376.43,303.58a.66.66,0,1,0,.39.86A.65.65,0,0,0,376.43,303.58Z" transform="translate(-26.64 -88.31)"/><path class="cls-1" d="M348.51,268.88a.65.65,0,0,0-.87.36.66.66,0,0,0,.35.85.65.65,0,0,0,.87-.35A.63.63,0,0,0,348.51,268.88Z" transform="translate(-26.64 -88.31)"/><path class="cls-1" d="M363.23,275a.42.42,0,0,0,.21.54.41.41,0,0,0,.54-.21.41.41,0,0,0-.2-.55A.44.44,0,0,0,363.23,275Z" transform="translate(-26.64 -88.31)"/><path class="cls-1" d="M346.69,269.11a.39.39,0,0,0,.54-.2.41.41,0,0,0-.21-.55.43.43,0,0,0-.54.22A.4.4,0,0,0,346.69,269.11Z" transform="translate(-26.64 -88.31)"/><path class="cls-1" d="M363.51,274.27A.42.42,0,0,0,364,274a.41.41,0,1,0-.78-.28A.42.42,0,0,0,363.51,274.27Z" transform="translate(-26.64 -88.31)"/><path class="cls-1" d="M464.6,283.64a7.62,7.62,0,0,1,5.3,3.8l-.13-.1a9.94,9.94,0,0,0-5.94-2.74,12.5,12.5,0,0,0-3.29,0,13.36,13.36,0,0,1-5.23-.2,11.11,11.11,0,0,1-6.34-4.3,15.48,15.48,0,0,1-2.4-4.89,22.34,22.34,0,0,1-.83-8.17,2.45,2.45,0,0,1,0-.27.24.24,0,0,1,.05-.1,36.74,36.74,0,0,0,.87,5.31,22.62,22.62,0,0,0,1.81,5.06s.07,0,.09,0a1.59,1.59,0,0,1,1.41.06c.54.25,1.07.55,1.6.83s.77.42,1.17.61a3.31,3.31,0,0,0,2.5.29,3.45,3.45,0,0,1-1.65,1.39,5.35,5.35,0,0,1-2.1.41,1.18,1.18,0,0,0,.19.1,11.1,11.1,0,0,0,6.95.33,15.33,15.33,0,0,0,6-3.37l.55-.5a2.59,2.59,0,0,1-.38-.35,1,1,0,0,1-.13-.78,2.22,2.22,0,0,1,1.34-1.65,9.91,9.91,0,0,1-.08,2,.74.74,0,0,0,.17-.12,4.53,4.53,0,0,0,.5-.88,6.12,6.12,0,0,1,2.23-2.93l1.5-1.16.28-.25a2.06,2.06,0,0,0,.76-2,1.4,1.4,0,0,1,.61,1.51c.23.12.45.23.68.33a.33.33,0,0,1,.16.4,1.47,1.47,0,0,1-.55.92,6,6,0,0,1-.59.43,1,1,0,0,1,.58.88,1.29,1.29,0,0,0-1.21.3,1.53,1.53,0,0,0-.43.89,3.13,3.13,0,0,1,1.79,1.33,2.53,2.53,0,0,1,.38,1.16.46.46,0,0,0-.07-.07,2.68,2.68,0,0,0-2.36-1.44,4.92,4.92,0,0,0-4.32,1.85c-.2.25-.42.5-.68.81a1.93,1.93,0,0,1,1.87.35,1.18,1.18,0,0,1,.45.86,2.65,2.65,0,0,0-1.34.2l-.85.26c-.54.14-1,.16-1.37-.44l-.37.27a12.18,12.18,0,0,1-3.63,2.09,9.58,9.58,0,0,1-6.21.18l-.23-.07h-.07a.74.74,0,0,0,.34.21,8.81,8.81,0,0,0,3.47.73,14,14,0,0,0,4.07-.5c1-.28,2-.61,3.06-.93a44.39,44.39,0,0,1,5.11-1.28,35.12,35.12,0,0,1,6.14-.62h.53l.06-.05a2.46,2.46,0,0,1,2-1.49c.59-.11,1.2-.14,1.79-.19l.88-.07a1.89,1.89,0,0,0,1.06-.37,3.75,3.75,0,0,1-.83,2.45l.06.06.43-.22a15.21,15.21,0,0,1,5.8-1.83,7.78,7.78,0,0,1,4.81,1,7.69,7.69,0,0,1,2.7,2.82,2.67,2.67,0,0,1,.33.75l-.19-.21a9.49,9.49,0,0,0-3-2.54,8.81,8.81,0,0,0-5-.86,14.49,14.49,0,0,0-4.38,1.21l-.37.16a.41.41,0,0,0,0,.09,21.86,21.86,0,0,1,9.87,5.24l.14-.17a1.73,1.73,0,0,1,1.44-.7,3,3,0,0,1,1.26.23c.76.32,1.51.67,2.27,1a3.85,3.85,0,0,0,1.4.46,2.63,2.63,0,0,1-1.12,1.12,4.28,4.28,0,0,1-1.54.4,12.82,12.82,0,0,0,6.07,1.38l-.13-.22a.9.9,0,0,1,.1-1.26,3.35,3.35,0,0,1,1-.73c.74-.35,1.48-.68,2.23-1,.43-.19.87-.38,1.29-.59a1.79,1.79,0,0,0,.86-.73A1.57,1.57,0,0,1,508,286a3,3,0,0,1-.59,1.6,1.05,1.05,0,0,0-.17.29,17.18,17.18,0,0,0,5.17-4.39.36.36,0,0,1,0,.11,15.35,15.35,0,0,1-4.38,5,10.87,10.87,0,0,1-7.33,2.09,11.64,11.64,0,0,1-5.48-2,4.28,4.28,0,0,0-.62-.38c.41.63.83,1.24,1.21,1.88s.72,1.32,1,2,.6,1.39.87,2.11a23.53,23.53,0,0,0-6.42-8.06,6.18,6.18,0,0,1,.63,1.76,3.17,3.17,0,0,1-.23,1.88,6.8,6.8,0,0,0-1.75-1.83l-1.12-.89a8.86,8.86,0,0,1-1.57-1.55,2.14,2.14,0,0,1-.38-2.11,21.32,21.32,0,0,0-7.45-1.81l.21.12a12.38,12.38,0,0,1,5.93,5.5A10.54,10.54,0,0,1,486.7,291a11.38,11.38,0,0,1-1.11,6.81,14.28,14.28,0,0,1-1,1.5,2.49,2.49,0,0,1-.17.24s0,0,0,.05a1.57,1.57,0,0,1,.46,1.82c-.19.61-.46,1.2-.71,1.8-.17.38-.38.75-.55,1.13a4.74,4.74,0,0,0-.54,1.94,3.16,3.16,0,0,1-1.45-2,3.86,3.86,0,0,1,.23-2.51l-.44.24a9.44,9.44,0,0,1-8,.71,8,8,0,0,1-3.73-2.8,7.37,7.37,0,0,1-1.61-4.8,6.3,6.3,0,0,1,3.1-5.43,4.66,4.66,0,0,1,3.73-.58,4,4,0,0,1,2.5,1.76,2.8,2.8,0,0,1,.31,2.51,1.64,1.64,0,0,1-1.39,1.19,1.3,1.3,0,0,1-1.44-1,1.32,1.32,0,0,1,2.46-.9c.05.1.09.21.16.38a1.72,1.72,0,0,0,0-1.06,3.09,3.09,0,0,0-2-2,4,4,0,0,0-3.84.57,5.07,5.07,0,0,0-2.21,4.14,6.3,6.3,0,0,0,2.83,5.6l.18.07a2.17,2.17,0,0,1,0-1.91,2.11,2.11,0,0,1,.72-.86c.52.47,1,.91,1.51,1.37a7.84,7.84,0,0,1,.8.83,1.31,1.31,0,0,1,.11,1.64l-.08.11.5.06a7.94,7.94,0,0,0,6.34-2.33,9.59,9.59,0,0,0,3-6.56c0-.12,0-.24,0-.45a3.13,3.13,0,0,1-2.59,1.34,7.49,7.49,0,0,0,.4-2.59,8,8,0,0,1,.21-1.3,1.87,1.87,0,0,1,1.08-1.29l.12-.07s0,0,0-.05c-.1-.24-.18-.51-.31-.76a10.32,10.32,0,0,0-5.91-5.17,12,12,0,0,0-5.86-.59,1.36,1.36,0,0,0-.22.05l.35.16a3,3,0,0,1,1.7,1.84,2.07,2.07,0,0,1,.06,1.16,5.62,5.62,0,0,0-.53-.19l-1.41-.25c-.52-.11-1-.2-1.56-.35a2.82,2.82,0,0,1-.72-.35,1.85,1.85,0,0,1-.83-1.24,1.42,1.42,0,0,1,0-.2l-.05-.06A38.74,38.74,0,0,0,464.6,283.64Z" transform="translate(-26.64 -88.31)"/><path class="cls-1" d="M463.49,300.09a3.38,3.38,0,0,1-1.72.22c-.78-.08-1.56-.2-2.39-.31,0-.2.07-.37.11-.53.17-.69.33-1.39.54-2.07a2.88,2.88,0,0,1,1.06-1.57,1.25,1.25,0,0,0-.65-.16,5.71,5.71,0,0,0-2.53.6,8.68,8.68,0,0,0-2.17,1.38.76.76,0,0,1-.16.1,2.34,2.34,0,0,1,.11-.28,10.15,10.15,0,0,1,5.65-5,4.58,4.58,0,0,1,4,.29,9.54,9.54,0,0,1,.9.67.32.32,0,0,1,.11.38,7.56,7.56,0,0,0,0,3.28,8.22,8.22,0,0,0,3.28,5.11l.25.18s0,.08-.06.09a6.81,6.81,0,0,1-2.51.54,3.56,3.56,0,0,1-2.52-.95.93.93,0,0,0-.18-.13,7.06,7.06,0,0,0,.49,1.43,8.32,8.32,0,0,0,4.42,4.08,15.32,15.32,0,0,0,5,1.22c.91.07,1.83.06,2.75.08a.4.4,0,0,1,.23.06c-.42,0-.84.1-1.27.13a18.2,18.2,0,0,1-6.92-.72,9.48,9.48,0,0,1-3.34-1.79,6.32,6.32,0,0,1-2.22-4c0-.15,0-.3-.08-.45-.63,2.59.12,6.29,4.63,8.24l-.26-.07a8.5,8.5,0,0,1-3.93-2.65,6.26,6.26,0,0,1-.85-7C463.34,300.4,463.4,300.28,463.49,300.09Z" transform="translate(-26.64 -88.31)"/><path class="cls-1" d="M515.4,287.52a10.51,10.51,0,0,0-5,1.81h.32a4.6,4.6,0,0,1,2.29.39,2.55,2.55,0,0,1,1.13,1c-.24-.14-.47-.3-.72-.42a4.19,4.19,0,0,0-2.15-.36A9.85,9.85,0,0,0,507.4,291l-.13.09.16.1a3.5,3.5,0,0,1,1.94,2.92,7.45,7.45,0,0,1-.41,3.14,11,11,0,0,1-1.28,2.59.59.59,0,0,1-.23.21l0-.32a7.06,7.06,0,0,0-.14-3.2,5.82,5.82,0,0,0-.42-1,2.37,2.37,0,0,0-.32-.36,4.21,4.21,0,0,1-1.55,2.26c-.27.25-.56.49-.84.73,0,0-.08,0-.1,0a10.94,10.94,0,0,1-1.36-1.61,2.14,2.14,0,0,1-.36-1.41h-.29a9.75,9.75,0,0,1-1.08,0,2.92,2.92,0,0,1-2.2-1.27,5.22,5.22,0,0,1-.86-2.57l.38.1a11.14,11.14,0,0,0,5.87.06,13.74,13.74,0,0,0,4.37-2,16.62,16.62,0,0,1,4-1.92,6.33,6.33,0,0,1,2.37-.37,3.66,3.66,0,0,1,.86.18.78.78,0,0,1,.54.56.64.64,0,0,1-.32.78.67.67,0,0,1-.78-.12.68.68,0,0,1-.09-.82A2,2,0,0,1,515.4,287.52Z" transform="translate(-26.64 -88.31)"/><path class="cls-1" d="M479.85,271.78a3.52,3.52,0,0,1,3.1,1.28c-.53-2.89.64-4.88,3.08-6.23l-.09.13-.12.11a7.55,7.55,0,0,0-2,3.22,6.27,6.27,0,0,0-.19,2.92,2.44,2.44,0,0,0,.06.26c.72-.29.93-.93.67-2,.39-.13.69,0,1.15.42,0-.15.1-.28.15-.41a2.18,2.18,0,0,1,.93-1.18c.37-.2.48-.2.76.12s.3.39.46.6a1.81,1.81,0,0,1,1.94.27,2,2,0,0,1-.23.05,2.07,2.07,0,0,0-1.56.85,8.36,8.36,0,0,0-.77,1.28c-.37.71-.68,1.44-1,2.15a7.09,7.09,0,0,1-1.39,1.92,5.64,5.64,0,0,1-2.31,1.31,1.42,1.42,0,0,1,0-.24,9.26,9.26,0,0,0-.09-3.48,6,6,0,0,0-.62-1.79,3,3,0,0,0-1.78-1.53Z" transform="translate(-26.64 -88.31)"/><path class="cls-1" d="M493.25,269.64a1.55,1.55,0,0,1,.3,1.6l.61.45a.31.31,0,0,1,.1.42,1.53,1.53,0,0,1-.78.86c-.18.1-.36.18-.58.28a1,1,0,0,1,.44,1,1.37,1.37,0,0,0-1.26.11,1.51,1.51,0,0,0-.55.79,3,3,0,0,1,1.74,2.84,8.1,8.1,0,0,0-.51-.78,2.79,2.79,0,0,0-1.32-.86,7.85,7.85,0,0,0-4.29-.17,1.42,1.42,0,0,1,0-.24,4.79,4.79,0,0,1,2.13-2.8c.61-.38,1.25-.69,1.87-1,.39-.23.79-.45,1.16-.71a1.87,1.87,0,0,0,.86-1.57A.39.39,0,0,1,493.25,269.64Z" transform="translate(-26.64 -88.31)"/><path class="cls-1" d="M457.94,274.76a1.2,1.2,0,0,1,.67-1.12,1.88,1.88,0,0,1,1.77,0,2.9,2.9,0,0,1,1.67,2.54,4.22,4.22,0,0,1-1.87,3.89A4.92,4.92,0,0,1,457,281l-.1,0,0-.07.53-.17a5.73,5.73,0,0,0,2.49-1.6,4.05,4.05,0,0,0,1.12-2.67,2.67,2.67,0,0,0-.49-1.67,1.88,1.88,0,0,0-1-.73,1.2,1.2,0,0,0-1.4.49Z" transform="translate(-26.64 -88.31)"/><path class="cls-1" d="M499.67,279.47a2.49,2.49,0,0,1-.85.83,3,3,0,0,1-1.61.46,4,4,0,0,1-2.55-.8,1.67,1.67,0,0,1-.55-.63.53.53,0,0,1,.54-.82,3.11,3.11,0,0,1,.73.13c.5.15,1,.32,1.49.49l.39.12A4.26,4.26,0,0,0,499.67,279.47Z" transform="translate(-26.64 -88.31)"/><path class="cls-1" d="M461.78,301.93a1,1,0,1,1-1.32-.55A1,1,0,0,1,461.78,301.93Z" transform="translate(-26.64 -88.31)"/><path class="cls-1" d="M490.65,270.41a.66.66,0,0,1,.39-.83.68.68,0,0,1,.86.4.66.66,0,0,1-.41.85A.65.65,0,0,1,490.65,270.41Z" transform="translate(-26.64 -88.31)"/><path class="cls-1" d="M459,303.5a.66.66,0,0,1,.48,1.23.66.66,0,1,1-.48-1.23Z" transform="translate(-26.64 -88.31)"/><path class="cls-1" d="M473.12,274.38a.64.64,0,0,1-.37.86.66.66,0,0,1-.5-1.23A.66.66,0,0,1,473.12,274.38Z" transform="translate(-26.64 -88.31)"/><path class="cls-1" d="M461.12,303.58a.66.66,0,1,1-.38.86A.65.65,0,0,1,461.12,303.58Z" transform="translate(-26.64 -88.31)"/><path class="cls-1" d="M489.05,268.88a.64.64,0,0,1,.86.36.64.64,0,0,1-.34.85.66.66,0,0,1-.88-.35A.65.65,0,0,1,489.05,268.88Z" transform="translate(-26.64 -88.31)"/><path class="cls-1" d="M474.32,275a.41.41,0,1,1-.75.33.41.41,0,1,1,.75-.33Z" transform="translate(-26.64 -88.31)"/><path class="cls-1" d="M490.86,269.11a.38.38,0,0,1-.53-.2.42.42,0,0,1,.2-.55.45.45,0,0,1,.55.22A.4.4,0,0,1,490.86,269.11Z" transform="translate(-26.64 -88.31)"/><path class="cls-1" d="M474,274.27a.41.41,0,0,1-.52-.25.42.42,0,0,1,.25-.53.41.41,0,1,1,.27.78Z" transform="translate(-26.64 -88.31)"/><rect class="cls-3" x="332.36" y="131.64" width="118.33" height="46.18" rx="0.34"/><rect class="cls-4" x="26.79" y="323.56" width="80.47" height="79.92"/><rect class="cls-5" x="29.18" y="325.65" width="75.31" height="74.8"/><rect class="cls-4" x="68.17" y="426.33" width="50.62" height="50.62" transform="translate(320.1 -22.12) rotate(45)"/><rect class="cls-6" x="67.97" y="425.76" width="51.15" height="51.15" transform="translate(319.91 -22.26) rotate(45)"/><rect class="cls-6" x="41.36" y="337.86" width="50.96" height="50.96"/><rect class="cls-4" x="76.94" y="435.11" width="33.07" height="33.07" transform="translate(320.1 -22.12) rotate(45)"/><rect class="cls-6" x="75.99" y="434.16" width="34.92" height="35.08" transform="translate(320.13 -22.08) rotate(45)"/><rect class="cls-4" x="87.74" y="446.02" width="11.48" height="11.48" transform="translate(320.18 -22.09) rotate(45)"/><rect class="cls-4" x="87.74" y="446.02" width="11.48" height="11.48" transform="translate(495.68 193.4) rotate(80.06)"/><rect class="cls-4" x="87.74" y="446.02" width="11.48" height="11.48" transform="translate(516.14 468.12) rotate(114.8)"/><rect class="cls-4" x="87.74" y="446.02" width="11.48" height="11.48" transform="translate(526.23 321.2) rotate(96.44)"/><rect class="cls-4" x="87.74" y="446.02" width="11.48" height="11.48" transform="translate(373.67 707.94) rotate(150)"/><rect class="cls-4" x="27.28" y="111.8" width="80.47" height="79.92"/><rect class="cls-5" x="29.68" y="113.89" width="75.31" height="74.8"/><rect class="cls-4" x="68.66" y="214.57" width="50.62" height="50.62" transform="translate(170.51 -84.49) rotate(45)"/><rect class="cls-6" x="68.47" y="214.01" width="51.15" height="51.15" transform="translate(170.32 -84.63) rotate(45)"/><rect class="cls-6" x="41.86" y="126.1" width="50.96" height="50.96"/><rect class="cls-4" x="77.44" y="223.35" width="33.07" height="33.07" transform="translate(170.51 -84.5) rotate(45)"/><rect class="cls-6" x="76.48" y="222.4" width="34.92" height="35.08" transform="translate(170.54 -84.46) rotate(45)"/><rect class="cls-4" x="88.24" y="234.26" width="11.48" height="11.48" transform="translate(170.59 -84.46) rotate(45)"/><rect class="cls-4" x="88.24" y="234.26" width="11.48" height="11.48" transform="translate(287.51 17.7) rotate(80.06)"/><rect class="cls-4" x="88.24" y="234.26" width="11.48" height="11.48" transform="translate(324.62 167.07) rotate(114.8)"/><rect class="cls-4" x="88.24" y="234.26" width="11.48" height="11.48" transform="translate(316.36 85.21) rotate(96.44)"/><rect class="cls-4" x="88.24" y="234.26" width="11.48" height="11.48" transform="translate(268.72 312.55) rotate(150)"/><rect class="cls-4" x="685.36" y="111.51" width="80.47" height="79.92"/><rect class="cls-5" x="687.75" y="113.6" width="75.31" height="74.8"/><rect class="cls-4" x="726.74" y="214.28" width="50.62" height="50.62" transform="translate(363.05 -549.91) rotate(45)"/><rect class="cls-6" x="726.54" y="213.71" width="51.15" height="51.15" transform="translate(362.86 -550.05) rotate(45)"/><rect class="cls-6" x="699.93" y="125.81" width="50.96" height="50.96"/><rect class="cls-4" x="735.52" y="223.06" width="33.07" height="33.07" transform="translate(363.05 -549.91) rotate(45)"/><rect class="cls-6" x="734.56" y="222.11" width="34.92" height="35.08" transform="translate(363.08 -549.87) rotate(45)"/><rect class="cls-4" x="746.31" y="233.97" width="11.48" height="11.48" transform="translate(363.13 -549.88) rotate(45)"/><rect class="cls-4" x="746.31" y="233.97" width="11.48" height="11.48" transform="translate(831.72 -630.73) rotate(80.06)"/><rect class="cls-4" x="746.31" y="233.97" width="11.48" height="11.48" transform="translate(1258.5 -430.71) rotate(114.8)"/><rect class="cls-4" x="746.31" y="233.97" width="11.48" height="11.48" transform="translate(1047.91 -569.04) rotate(96.44)"/><rect class="cls-4" x="746.31" y="233.97" width="11.48" height="11.48" transform="translate(1496.56 -17.03) rotate(150)"/><rect class="cls-4" x="686.31" y="323.47" width="80.47" height="79.92"/><rect class="cls-5" x="688.7" y="325.56" width="75.31" height="74.8"/><rect class="cls-4" x="727.69" y="426.24" width="50.62" height="50.62" transform="translate(513.2 -488.5) rotate(45)"/><rect class="cls-6" x="727.49" y="425.67" width="51.15" height="51.15" transform="translate(513.01 -488.64) rotate(45)"/><rect class="cls-6" x="700.88" y="337.77" width="50.96" height="50.96"/><rect class="cls-4" x="736.47" y="435.02" width="33.07" height="33.07" transform="translate(513.21 -488.5) rotate(45)"/><rect class="cls-6" x="735.51" y="434.07" width="34.92" height="35.08" transform="translate(513.24 -488.46) rotate(45)"/><rect class="cls-4" x="747.26" y="445.92" width="11.48" height="11.48" transform="translate(513.29 -488.47) rotate(45)"/><rect class="cls-4" x="747.26" y="445.92" width="11.48" height="11.48" transform="translate(1041.28 -456.3) rotate(80.06)"/><rect class="cls-4" x="747.26" y="445.92" width="11.48" height="11.48" transform="translate(1452.25 -130.69) rotate(114.8)"/><rect class="cls-4" x="747.26" y="445.92" width="11.48" height="11.48" transform="translate(1259.59 -334.27) rotate(96.44)"/><rect class="cls-4" x="747.26" y="445.92" width="11.48" height="11.48" transform="translate(1604.31 378.01) rotate(150)"/><rect class="cls-2" y="400" width="784.49" height="22.17"/><rect class="cls-7" x="0.64" y="80.68" width="782.72" height="33.92"/><rect class="cls-2" x="630.59" y="328.75" width="339.76" height="21.19" transform="translate(1113.18 -549.43) rotate(90)"/><rect class="cls-2" x="-126.94" y="323.05" width="337.29" height="30.13" transform="translate(353.18 208.1) rotate(90)"/><rect class="cls-2" x="303.31" y="345.99" width="231.2" height="75.88" transform="translate(776.2 -123.28) rotate(90)"/><rect x="394.31" y="272.84" width="52.92" height="215.47" transform="translate(814.9 672.84) rotate(180)"/><rect class="cls-2" x="305.5" y="373.6" width="231.65" height="30.13" transform="translate(783.36 -120.97) rotate(90)"/><rect class="cls-2" x="310.67" y="122.12" width="161.69" height="66.69" rx="2.79"/><rect class="cls-2" x="310.67" y="95.53" width="161.69" height="45.18" rx="2.79"/><rect class="cls-4" x="332.36" y="131.64" width="118.33" height="46.04" rx="0.34"/><circle class="cls-8" cx="350.99" cy="144.95" r="6.1"/><circle class="cls-9" cx="391.71" cy="144.95" r="6.1"/><circle class="cls-10" cx="412.07" cy="144.95" r="6.1"/><circle class="cls-11" cx="432.43" cy="144.95" r="6.1"/><circle class="cls-12" cx="371.35" cy="144.95" r="6.1"/><circle class="cls-13" cx="350.99" cy="164.34" r="6.1"/><circle class="cls-14" cx="371.35" cy="164.34" r="6.1"/><circle class="cls-15" cx="391.71" cy="164.34" r="6.1"/><circle class="cls-16" cx="412.07" cy="164.34" r="6.1"/><circle class="cls-17" cx="432.43" cy="164.34" r="6.1"/><path class="cls-2" d="M377.26,231.81h-.85v-.57a2.12,2.12,0,0,0,.56-.06.72.72,0,0,0,.33-.19,1.36,1.36,0,0,0,.22-.4h.54v5.14h-.8Z" transform="translate(-26.64 -88.31)"/><path class="cls-2" d="M396.72,235.17a2.39,2.39,0,0,1,.17-.94,3.14,3.14,0,0,1,.64-.87,4.28,4.28,0,0,0,.62-.82,1.57,1.57,0,0,0,.17-.7.75.75,0,0,0-.11-.46.39.39,0,0,0-.31-.13q-.42,0-.42.51v.55h-.76v-.5a1.35,1.35,0,0,1,.31-1,1.15,1.15,0,0,1,.89-.33,1.19,1.19,0,0,1,.9.33,1.4,1.4,0,0,1,.31,1,2.05,2.05,0,0,1-.23.92,4.53,4.53,0,0,1-.77,1,4.1,4.1,0,0,0-.49.62,1.13,1.13,0,0,0-.12.51V235h1.53v.74h-2.33Z" transform="translate(-26.64 -88.31)"/><path class="cls-2" d="M417.56,235.47a1.36,1.36,0,0,1-.31-.94v-.42H418v.45c0,.34.14.51.41.51a.41.41,0,0,0,.32-.13.75.75,0,0,0,.1-.45v-.42a.8.8,0,0,0-.12-.5.49.49,0,0,0-.4-.15h-.28v-.74h.3a.49.49,0,0,0,.36-.12.59.59,0,0,0,.12-.42v-.37a.59.59,0,0,0-.11-.39.35.35,0,0,0-.29-.13q-.39,0-.39.48v.34h-.76v-.28a1.36,1.36,0,0,1,.3-.94,1.34,1.34,0,0,1,1.76,0,1.33,1.33,0,0,1,.3.94V232a1.42,1.42,0,0,1-.14.67.83.83,0,0,1-.43.37h0a.82.82,0,0,1,.45.38,1.37,1.37,0,0,1,.14.68v.45a1.33,1.33,0,0,1-.3.94,1.19,1.19,0,0,1-.9.33A1.16,1.16,0,0,1,417.56,235.47Z" transform="translate(-26.64 -88.31)"/><path class="cls-2" d="M438.63,234.8h-1.54v-.74l1.46-3.47h.88v3.47h.39v.74h-.39v.93h-.8Zm0-.74v-2h0l-.79,2Z" transform="translate(-26.64 -88.31)"/><path class="cls-2" d="M458.28,235.46a1.42,1.42,0,0,1-.3-1v-.4h.76v.46c0,.33.14.5.42.5s.42-.17.42-.5V233.4c0-.33-.14-.5-.42-.5s-.42.17-.42.5v0H458l.14-2.87h2.13v.74h-1.41l-.06,1.22h0a.76.76,0,0,1,.7-.38.81.81,0,0,1,.67.31,1.43,1.43,0,0,1,.22.87v1.16a1.42,1.42,0,0,1-.3,1,1.39,1.39,0,0,1-1.8,0Z" transform="translate(-26.64 -88.31)"/><path class="cls-2" d="M458.06,254.93a1.33,1.33,0,0,1-.31-1v-2.7a1.33,1.33,0,0,1,.31-.95A1.18,1.18,0,0,1,459,250a1.16,1.16,0,0,1,.91.34,1.33,1.33,0,0,1,.32.95V254a1.33,1.33,0,0,1-.32,1,1.16,1.16,0,0,1-.91.34A1.18,1.18,0,0,1,458.06,254.93Zm1.33-.9v-2.8c0-.34-.14-.5-.42-.5s-.42.16-.42.5V254q0,.51.42.51T459.39,254Z" transform="translate(-26.64 -88.31)"/><path class="cls-2" d="M437.75,254.94a1.38,1.38,0,0,1-.31-1v-.09h.77V254c0,.33.14.5.41.5a.4.4,0,0,0,.34-.14.75.75,0,0,0,.11-.49v-1h0a.84.84,0,0,1-1.4.14,1.37,1.37,0,0,1-.23-.87v-.92a1.33,1.33,0,0,1,.31-.95,1.21,1.21,0,0,1,.91-.34,1.2,1.2,0,0,1,.91.34,1.33,1.33,0,0,1,.32.95v2.66c0,.89-.41,1.34-1.23,1.34A1.18,1.18,0,0,1,437.75,254.94Zm1.32-2.8v-.91c0-.34-.14-.5-.42-.5s-.41.16-.41.5v.91c0,.33.14.5.41.5S439.07,252.47,439.07,252.14Z" transform="translate(-26.64 -88.31)"/><path class="cls-2" d="M417.31,255A1.3,1.3,0,0,1,417,254v-.46a1.52,1.52,0,0,1,.12-.64,1,1,0,0,1,.41-.41h0a1,1,0,0,1-.38-.39,1.41,1.41,0,0,1-.12-.63v-.21a1.26,1.26,0,0,1,.32-.94,1.19,1.19,0,0,1,.91-.33,1.21,1.21,0,0,1,.91.33,1.26,1.26,0,0,1,.32.94v.21a1.06,1.06,0,0,1-.5,1h0a1,1,0,0,1,.41.41,1.52,1.52,0,0,1,.12.64V254a1.27,1.27,0,0,1-.33.94,1.22,1.22,0,0,1-.93.32A1.26,1.26,0,0,1,417.31,255Zm1.39-1v-.49c0-.39-.15-.58-.45-.58s-.46.19-.46.58V254c0,.39.16.58.46.58S418.7,254.35,418.7,254Zm0-2.32v-.4q0-.51-.42-.51c-.28,0-.43.17-.43.51v.4c0,.35.15.52.43.52S418.67,252,418.67,251.64Z" transform="translate(-26.64 -88.31)"/><path class="cls-2" d="M398.63,250.8H397v-.73h2.43v.7l-1.27,4.43h-.82Z" transform="translate(-26.64 -88.31)"/><path class="cls-2" d="M376.68,254.94a1.37,1.37,0,0,1-.32-1v-2.65c0-.89.41-1.34,1.23-1.34a1.14,1.14,0,0,1,.9.34,1.37,1.37,0,0,1,.31.95v.1H378v-.15c0-.34-.13-.5-.41-.5a.38.38,0,0,0-.34.14.75.75,0,0,0-.11.49v1h0a.75.75,0,0,1,.74-.45.77.77,0,0,1,.66.3,1.4,1.4,0,0,1,.23.88V254a1.37,1.37,0,0,1-.31,1,1.21,1.21,0,0,1-.91.33A1.19,1.19,0,0,1,376.68,254.94ZM378,254v-.91c0-.34-.14-.5-.41-.5s-.42.16-.42.5V254c0,.33.14.5.42.5S378,254.37,378,254Z" transform="translate(-26.64 -88.31)"/><rect class="cls-18" x="345.35" y="93.98" width="91.42" height="23.66" rx="0.34"/><rect class="cls-19" x="340.58" y="91.07" width="100.95" height="29.48" rx="0.34"/><text class="cls-20" transform="translate(372.62 109.53)">12<tspan class="cls-21" x="13.98" y="0">345</tspan></text><polygon class="cls-2" points="734.27 0 720.85 0 767.87 48.54 784.52 48.54 734.27 0"/><polygon class="cls-2" points="734.47 0 55.89 0 53.13 2.4 53.13 5.54 740.01 5.54 734.47 0"/></g></svg>