<svg xmlns="http://www.w3.org/2000/svg" xmlns:xlink="http://www.w3.org/1999/xlink" viewBox="0 0 698.91 438.4"><defs><style>.cls-1,.cls-17,.cls-4,.cls-6{stroke:#fff;}.cls-1,.cls-10,.cls-13,.cls-15,.cls-16,.cls-17,.cls-2,.cls-4,.cls-6,.cls-9{stroke-miterlimit:10;}.cls-1,.cls-15,.cls-4{stroke-width:0.5px;}.cls-2{fill:#1d1d1b;}.cls-13,.cls-2{stroke:#1d1d1b;}.cls-3{fill:#3c3c3b;}.cls-14,.cls-4{fill:#fff;}.cls-11,.cls-5{fill:#d11cb8;}.cls-10,.cls-15,.cls-16,.cls-17,.cls-6,.cls-9{fill:none;}.cls-11,.cls-12,.cls-7,.cls-8{opacity:0.82;}.cls-7{fill:url(#Dégradé_sans_nom_38);}.cls-8{fill:url(#Dégradé_sans_nom_38-2);}.cls-10,.cls-15,.cls-9{stroke:#000;}.cls-10{stroke-width:2px;}.cls-12{fill:url(#Dégradé_sans_nom_11);}.cls-16{stroke:#d11cb8;}.cls-17{stroke-width:0.25px;}</style><radialGradient id="Dégradé_sans_nom_38" cx="121.55" cy="314.86" r="69.91" gradientUnits="userSpaceOnUse"><stop offset="0" stop-color="#b3b3b3"/><stop offset="0.01" stop-color="#b4adb3"/><stop offset="0.11" stop-color="#bc87b4"/><stop offset="0.21" stop-color="#c265b6"/><stop offset="0.33" stop-color="#c84bb6"/><stop offset="0.45" stop-color="#cc36b7"/><stop offset="0.58" stop-color="#cf27b8"/><stop offset="0.74" stop-color="#d01fb8"/><stop offset="1" stop-color="#d11cb8"/></radialGradient><radialGradient id="Dégradé_sans_nom_38-2" cx="575.82" cy="314.86" r="69.91" xlink:href="#Dégradé_sans_nom_38"/><linearGradient id="Dégradé_sans_nom_11" x1="311.99" y1="389.32" x2="391.99" y2="250.76" gradientUnits="userSpaceOnUse"><stop offset="0" stop-color="#d11cb8" stop-opacity="0.82"/><stop offset="0.12" stop-color="#d122b9" stop-opacity="0.83"/><stop offset="0.27" stop-color="#d032bb" stop-opacity="0.84"/><stop offset="0.45" stop-color="#d04dbe" stop-opacity="0.87"/><stop offset="0.64" stop-color="#cf72c2" stop-opacity="0.91"/><stop offset="0.84" stop-color="#cda2c7" stop-opacity="0.96"/><stop offset="1" stop-color="#ccc"/></linearGradient></defs><title>Radio</title><g id="traits"><polygon class="cls-1" points="197.33 21.06 197.33 19.61 182.96 19.61 182.96 21.06 182.18 21.06 182.18 71.03 198.2 71.03 198.2 21.06 197.33 21.06"/><rect class="cls-1" x="502.3" y="13.34" width="15.84" height="57.41"/><rect class="cls-1" x="182.18" y="0.25" width="335.95" height="30.74" rx="3.32"/><circle class="cls-2" cx="142.22" cy="422.79" r="8.55"/><path class="cls-3" d="M227.27,517.11c-1.12-.4-2.87-1.5-4.08-1.33s-2.58,1.69-3.55,2.38l1.69,1c0-1.21.57-3.33,0-4.43s-2.53-2-3.51-2.69l-.27,2.06c1.16-.34,3.32-.49,4.2-1.36s1.13-3,1.51-4.16l-2.05.27c.68,1,1.48,3,2.56,3.6s3.22.17,4.43.18l-.8-1.92c-.75,1-2.37,2.33-2.66,3.54s.8,3.13,1.17,4.28c.43,1.37,2.6.79,2.17-.6l-1.17-3.68-.29,1.1,2.37-3.05a1.14,1.14,0,0,0-.79-1.92l-3.86,0,1,.56-2.16-3.19a1.14,1.14,0,0,0-2.06.26l-1.22,3.66.79-.78-3.71,1.07a1.14,1.14,0,0,0-.27,2.05l3.11,2.29-.56-1-.13,3.86a1.13,1.13,0,0,0,1.69,1l1.57-1.12c.36-.25,2-1.16,1.14-1s1,.55,1.38.69l1.81.65C228,519.78,228.62,517.6,227.27,517.11Z" transform="translate(-80.22 -91.24)"/><rect class="cls-1" x="0.25" y="64.26" width="698.41" height="373.9" rx="17.66"/><rect class="cls-4" x="10.23" y="80.78" width="677.29" height="341.84" rx="17.66"/><rect x="91.62" y="111.77" width="515.66" height="58.86" rx="10.6"/><path d="M230.92,180.87h0L280.42,272h6v1.38a14.14,14.14,0,0,1,4-.6H580.39l49.92-91.91Z" transform="translate(-80.22 -91.24)"/><rect class="cls-5" x="114.46" y="118.81" width="469.99" height="44.79"/><line class="cls-6" x1="118.01" y1="133.22" x2="118.22" y2="118.95"/><line class="cls-6" x1="125.23" y1="132.93" x2="125.43" y2="118.65"/><line class="cls-6" x1="132.45" y1="133.22" x2="132.65" y2="118.95"/><line class="cls-6" x1="139.66" y1="133.15" x2="139.87" y2="118.87"/><line class="cls-6" x1="154.1" y1="133.08" x2="154.3" y2="118.81"/><line class="cls-6" x1="161.31" y1="133.08" x2="161.52" y2="118.81"/><line class="cls-6" x1="175.74" y1="133.08" x2="175.95" y2="118.81"/><line class="cls-6" x1="168.53" y1="133.08" x2="168.73" y2="118.81"/><line class="cls-6" x1="146.85" y1="137.05" x2="147.11" y2="118.81"/><circle cx="121.55" cy="314.86" r="88.55"/><circle class="cls-7" cx="121.55" cy="314.86" r="69.91"/><circle cx="575.82" cy="314.86" r="88.55"/><circle class="cls-8" cx="575.82" cy="314.86" r="69.91"/><line class="cls-9" x1="263.83" y1="397.37" x2="436.75" y2="397.79"/><line class="cls-10" x1="10.64" y1="182.47" x2="690.28" y2="182.47"/><line class="cls-10" x1="9.45" y1="90.03" x2="688.83" y2="90.03"/><line class="cls-9" x1="258.91" y1="245.03" x2="440.82" y2="245.47"/><line class="cls-9" x1="258.91" y1="214.13" x2="346.16" y2="214.13"/><line class="cls-9" x1="353.56" y1="214.13" x2="440.82" y2="214.13"/><line class="cls-9" x1="306.82" y1="220.72" x2="394.07" y2="220.72"/><line class="cls-9" x1="327.16" y1="225.98" x2="373.74" y2="225.98"/><line class="cls-9" x1="300.83" y1="207.9" x2="400.06" y2="207.9"/><line class="cls-9" x1="352.86" y1="201.84" x2="452.08" y2="201.84"/><line class="cls-9" x1="247.65" y1="201.84" x2="346.87" y2="201.84"/><rect x="268.5" y="257.5" width="162.74" height="125.07"/><rect class="cls-11" x="283.36" y="267.29" width="137.26" height="105.5"/><rect class="cls-12" x="283.36" y="267.29" width="137.26" height="105.5"/><path d="M373,488.42H491.11l20.34-14.61H348.71l20.91,15A13.6,13.6,0,0,1,373,488.42Z" transform="translate(-80.22 -91.24)"/><circle class="cls-13" cx="668.37" cy="407.6" r="4.65"/><line class="cls-9" x1="313.52" y1="301.65" x2="386.51" y2="301.65"/><line class="cls-6" x1="189.57" y1="133.08" x2="189.78" y2="118.81"/><line class="cls-6" x1="196.79" y1="133.08" x2="196.99" y2="118.81"/><line class="cls-6" x1="211.22" y1="133.08" x2="211.43" y2="118.81"/><line class="cls-6" x1="204.01" y1="133.08" x2="204.21" y2="118.81"/><line class="cls-6" x1="182.33" y1="137.05" x2="182.59" y2="118.81"/><line class="cls-6" x1="225.52" y1="133.08" x2="225.72" y2="118.81"/><line class="cls-6" x1="232.73" y1="133.08" x2="232.94" y2="118.81"/><line class="cls-6" x1="247.17" y1="133.08" x2="247.37" y2="118.81"/><line class="cls-6" x1="239.95" y1="133.08" x2="240.15" y2="118.81"/><line class="cls-6" x1="218.27" y1="137.05" x2="218.53" y2="118.81"/><line class="cls-6" x1="262" y1="133.08" x2="262.21" y2="118.81"/><line class="cls-6" x1="269.22" y1="133.08" x2="269.42" y2="118.81"/><line class="cls-6" x1="283.65" y1="133.08" x2="283.86" y2="118.81"/><line class="cls-6" x1="276.44" y1="133.08" x2="276.64" y2="118.81"/><line class="cls-6" x1="254.76" y1="137.05" x2="255.02" y2="118.81"/><line class="cls-6" x1="298.01" y1="133.08" x2="298.21" y2="118.81"/><line class="cls-6" x1="305.23" y1="133.08" x2="305.43" y2="118.81"/><line class="cls-6" x1="319.66" y1="133.08" x2="319.86" y2="118.81"/><line class="cls-6" x1="312.44" y1="133.08" x2="312.65" y2="118.81"/><line class="cls-6" x1="290.76" y1="137.05" x2="291.03" y2="118.81"/><polygon points="355.46 164.82 349.83 144.4 343.83 164.82 355.46 164.82"/><line class="cls-6" x1="335.11" y1="133.08" x2="335.31" y2="118.81"/><line class="cls-6" x1="342.33" y1="133.08" x2="342.53" y2="118.81"/><line class="cls-6" x1="356.76" y1="133.08" x2="356.96" y2="118.81"/><line class="cls-6" x1="349.54" y1="133.08" x2="349.75" y2="118.81"/><line class="cls-6" x1="327.86" y1="137.05" x2="328.12" y2="118.81"/><line class="cls-6" x1="372.25" y1="133.08" x2="372.45" y2="118.81"/><line class="cls-6" x1="379.47" y1="133.08" x2="379.67" y2="118.81"/><line class="cls-6" x1="393.9" y1="133.08" x2="394.1" y2="118.81"/><line class="cls-6" x1="386.68" y1="133.08" x2="386.89" y2="118.81"/><line class="cls-6" x1="365.01" y1="137.05" x2="365.27" y2="118.81"/><line class="cls-6" x1="410.04" y1="133.08" x2="410.24" y2="118.81"/><line class="cls-6" x1="417.26" y1="133.08" x2="417.46" y2="118.81"/><line class="cls-6" x1="431.69" y1="133.08" x2="431.89" y2="118.81"/><line class="cls-6" x1="424.47" y1="133.08" x2="424.68" y2="118.81"/><line class="cls-6" x1="402.79" y1="137.05" x2="403.06" y2="118.81"/><line class="cls-6" x1="447.78" y1="133.08" x2="447.98" y2="118.81"/><line class="cls-6" x1="454.99" y1="133.08" x2="455.2" y2="118.81"/><line class="cls-6" x1="469.43" y1="133.08" x2="469.63" y2="118.81"/><line class="cls-6" x1="462.21" y1="133.08" x2="462.41" y2="118.81"/><line class="cls-6" x1="440.53" y1="137.05" x2="440.79" y2="118.81"/><line class="cls-6" x1="485.18" y1="133.08" x2="485.38" y2="118.81"/><line class="cls-6" x1="492.4" y1="133.08" x2="492.6" y2="118.81"/><line class="cls-6" x1="506.83" y1="133.08" x2="507.03" y2="118.81"/><line class="cls-6" x1="499.61" y1="133.08" x2="499.82" y2="118.81"/><line class="cls-6" x1="477.94" y1="137.05" x2="478.2" y2="118.81"/><line class="cls-6" x1="521.57" y1="133.08" x2="521.77" y2="118.81"/><line class="cls-6" x1="528.78" y1="133.08" x2="528.99" y2="118.81"/><line class="cls-6" x1="543.22" y1="133.08" x2="543.42" y2="118.81"/><line class="cls-6" x1="536" y1="133.08" x2="536.2" y2="118.81"/><line class="cls-6" x1="514.32" y1="137.05" x2="514.58" y2="118.81"/><line class="cls-6" x1="558.1" y1="133.08" x2="558.3" y2="118.81"/><line class="cls-6" x1="565.32" y1="133.08" x2="565.52" y2="118.81"/><line class="cls-6" x1="579.75" y1="133.08" x2="579.95" y2="118.81"/><line class="cls-6" x1="572.53" y1="133.08" x2="572.74" y2="118.81"/><line class="cls-6" x1="550.86" y1="137.05" x2="551.12" y2="118.81"/><circle class="cls-13" cx="33.15" cy="408.39" r="4.65"/><circle class="cls-13" cx="32.66" cy="101.43" r="4.65"/><circle class="cls-13" cx="668.08" cy="101.45" r="4.65"/><path class="cls-5" d="M749.86,193.32a3.52,3.52,0,0,0-1.43-.42c-.45.06-.89.53-1.25.78l1.13.65c0-.45.18-1.16-.06-1.57s-.87-.71-1.24-1l-.18,1.37a3.65,3.65,0,0,0,1.49-.53,4.05,4.05,0,0,0,.57-1.46l-1.37.18c.25.37.53,1,.94,1.26a3.74,3.74,0,0,0,1.57.11l-.53-1.28a4.77,4.77,0,0,0-.93,1.27c-.12.46.23,1.11.36,1.54.29.92,1.74.53,1.45-.4L750,192.7l-.19.73.73-.94a.76.76,0,0,0-.53-1.28h-1.19l.64.37-.67-1a.76.76,0,0,0-1.37.18l-.38,1.13.53-.52-1.15.33a.76.76,0,0,0-.18,1.37l1,.71-.37-.64,0,1.19a.75.75,0,0,0,1.13.65l1-.7-.58.08,1.13.41C750.37,195.1,750.76,193.65,749.86,193.32Z" transform="translate(-80.22 -91.24)"/><path class="cls-5" d="M750.11,499.51a3.48,3.48,0,0,0-1.42-.42c-.45.06-.89.53-1.25.78l1.12.65a3.2,3.2,0,0,0-.06-1.57c-.23-.41-.86-.71-1.23-1l-.18,1.37c.44-.13,1.15-.19,1.48-.53a3.88,3.88,0,0,0,.57-1.46l-1.37.18c.26.37.54,1,.94,1.26a3.8,3.8,0,0,0,1.58.11l-.53-1.28a4.57,4.57,0,0,0-.93,1.27c-.13.46.22,1.11.36,1.54.29.92,1.74.53,1.45-.4l-.36-1.14-.2.73.74-.94a.76.76,0,0,0-.53-1.28h-1.2l.65.37-.67-1a.76.76,0,0,0-1.37.18l-.38,1.13.52-.52-1.15.33a.76.76,0,0,0-.18,1.37l1,.71-.38-.64,0,1.19a.76.76,0,0,0,1.13.65l1-.7-.58.08,1.12.41C750.62,501.29,751,499.84,750.11,499.51Z" transform="translate(-80.22 -91.24)"/><path class="cls-5" d="M114.9,500.36a3.48,3.48,0,0,0-1.42-.42c-.45.06-.9.53-1.25.78l1.12.65a3.2,3.2,0,0,0-.06-1.57c-.23-.41-.86-.71-1.23-1l-.18,1.37a3.75,3.75,0,0,0,1.48-.53,3.88,3.88,0,0,0,.57-1.46l-1.37.17c.26.38.54,1,.94,1.27a3.8,3.8,0,0,0,1.58.11l-.53-1.28a4.57,4.57,0,0,0-.93,1.27c-.13.46.22,1.11.36,1.54.29.92,1.74.53,1.45-.4l-.36-1.14-.2.73.74-.94a.76.76,0,0,0-.53-1.28h-1.2l.65.37-.67-1a.76.76,0,0,0-1.37.18l-.38,1.13.52-.52-1.15.33a.76.76,0,0,0-.18,1.37l1,.71-.38-.65,0,1.2A.76.76,0,0,0,113,502l1-.7-.58.08,1.12.41C115.41,502.14,115.81,500.69,114.9,500.36Z" transform="translate(-80.22 -91.24)"/><path class="cls-5" d="M114.4,193.34a3.48,3.48,0,0,0-1.42-.42c-.45.06-.89.53-1.25.79l1.13.64c0-.45.17-1.16-.07-1.57s-.86-.71-1.23-1l-.18,1.37a3.54,3.54,0,0,0,1.48-.52,4.19,4.19,0,0,0,.58-1.47l-1.38.18c.26.37.54,1,.94,1.26a3.5,3.5,0,0,0,1.58.11l-.53-1.28a4.82,4.82,0,0,0-.93,1.28c-.13.46.23,1.1.36,1.54.29.91,1.74.52,1.45-.4l-.36-1.14-.2.73.74-1a.76.76,0,0,0-.53-1.28h-1.2l.65.37-.67-1a.76.76,0,0,0-1.37.18l-.38,1.14.52-.53-1.15.33a.76.76,0,0,0-.18,1.37l1,.72-.37-.65,0,1.19a.75.75,0,0,0,1.12.65l1-.69-.58.07,1.13.41C114.92,195.12,115.31,193.67,114.4,193.34Z" transform="translate(-80.22 -91.24)"/><path class="cls-14" d="M224.25,238.34a2.25,2.25,0,0,1-1.16-.3,2.17,2.17,0,0,1-.8-.82A2.33,2.33,0,0,1,222,236a2.15,2.15,0,0,1,.3-1.13,2,2,0,0,1,.8-.79,2.25,2.25,0,0,1,1.16-.29,2.21,2.21,0,0,1,1.15.29,2,2,0,0,1,.8.79,2.24,2.24,0,0,1,.29,1.13,2.55,2.55,0,0,1-.3,1.18,2.33,2.33,0,0,1-.8.82A2.21,2.21,0,0,1,224.25,238.34Zm0-3.92a1.93,1.93,0,0,1-1-.24,1.72,1.72,0,0,1-.66-.65,1.94,1.94,0,0,1,0-1.87,1.72,1.72,0,0,1,.66-.65,1.93,1.93,0,0,1,1-.24,1.78,1.78,0,0,1,.95.22,1.76,1.76,0,0,1,.89,1.6,1.85,1.85,0,0,1-.24.94,1.79,1.79,0,0,1-.66.65A1.88,1.88,0,0,1,224.25,234.42Zm0,3.25a1.35,1.35,0,0,0,.76-.22,1.56,1.56,0,0,0,.53-.58,1.73,1.73,0,0,0,.2-.83,1.71,1.71,0,0,0-.19-.79,1.5,1.5,0,0,0-.53-.56,1.55,1.55,0,0,0-.77-.2,1.5,1.5,0,0,0-.77.2,1.45,1.45,0,0,0-.54.56,1.6,1.6,0,0,0-.2.79,1.73,1.73,0,0,0,.2.83,1.48,1.48,0,0,0,.53.58A1.39,1.39,0,0,0,224.25,237.67Zm0-3.89a1,1,0,0,0,.57-.16,1.21,1.21,0,0,0,.41-.43,1.28,1.28,0,0,0,.15-.61,1.06,1.06,0,0,0-.55-1,1.24,1.24,0,0,0-.58-.14,1.14,1.14,0,0,0-.82.32,1.17,1.17,0,0,0-.33.81,1.13,1.13,0,0,0,.32.85A1.09,1.09,0,0,0,224.25,233.78Z" transform="translate(-80.22 -91.24)"/><path class="cls-14" d="M230,238.34a2.23,2.23,0,0,1-1.16-.3,2.17,2.17,0,0,1-.8-.82,2.33,2.33,0,0,1-.3-1.18,2.15,2.15,0,0,1,.3-1.13,2,2,0,0,1,.8-.79,2.45,2.45,0,0,1,2.31,0,2,2,0,0,1,.8.79,2.24,2.24,0,0,1,.29,1.13,2.55,2.55,0,0,1-.3,1.18,2.33,2.33,0,0,1-.8.82A2.21,2.21,0,0,1,230,238.34Zm0-3.92a1.9,1.9,0,0,1-1-.24,1.72,1.72,0,0,1-.66-.65,1.94,1.94,0,0,1,0-1.87A1.72,1.72,0,0,1,229,231a1.9,1.9,0,0,1,1-.24,1.78,1.78,0,0,1,.95.22,1.76,1.76,0,0,1,.89,1.6,1.85,1.85,0,0,1-.24.94,1.74,1.74,0,0,1-.67.65A1.81,1.81,0,0,1,230,234.42Zm0,3.25a1.35,1.35,0,0,0,.76-.22,1.56,1.56,0,0,0,.53-.58,1.73,1.73,0,0,0,.2-.83,1.6,1.6,0,0,0-.2-.79,1.4,1.4,0,0,0-.52-.56,1.6,1.6,0,0,0-1.55,0,1.5,1.5,0,0,0-.53.56,1.6,1.6,0,0,0-.2.79,1.73,1.73,0,0,0,.2.83,1.41,1.41,0,0,0,.53.58A1.39,1.39,0,0,0,230,237.67Zm0-3.89a1,1,0,0,0,.57-.16,1.21,1.21,0,0,0,.41-.43,1.28,1.28,0,0,0,.15-.61,1.06,1.06,0,0,0-.55-1,1.24,1.24,0,0,0-.58-.14,1.14,1.14,0,0,0-.82.32,1.17,1.17,0,0,0-.33.81,1.13,1.13,0,0,0,.32.85A1.09,1.09,0,0,0,230,233.78Z" transform="translate(-80.22 -91.24)"/><path class="cls-14" d="M259.8,238.34a2.23,2.23,0,0,1-1.16-.3,2.17,2.17,0,0,1-.8-.82,2.33,2.33,0,0,1-.3-1.18,2.15,2.15,0,0,1,.3-1.13,2,2,0,0,1,.8-.79,2.45,2.45,0,0,1,2.31,0,2,2,0,0,1,.8.79A2.24,2.24,0,0,1,262,236a2.55,2.55,0,0,1-.3,1.18,2.33,2.33,0,0,1-.8.82A2.21,2.21,0,0,1,259.8,238.34Zm0-3.92a1.9,1.9,0,0,1-1-.24,1.72,1.72,0,0,1-.66-.65,1.94,1.94,0,0,1,0-1.87,1.72,1.72,0,0,1,.66-.65,1.9,1.9,0,0,1,1-.24,1.78,1.78,0,0,1,.95.22,1.76,1.76,0,0,1,.89,1.6,1.85,1.85,0,0,1-.24.94,1.74,1.74,0,0,1-.67.65A1.81,1.81,0,0,1,259.8,234.42Zm0,3.25a1.35,1.35,0,0,0,.76-.22,1.56,1.56,0,0,0,.53-.58,1.73,1.73,0,0,0,.2-.83,1.6,1.6,0,0,0-.2-.79,1.4,1.4,0,0,0-.52-.56,1.6,1.6,0,0,0-1.55,0,1.5,1.5,0,0,0-.53.56,1.6,1.6,0,0,0-.2.79,1.73,1.73,0,0,0,.2.83,1.41,1.41,0,0,0,.53.58A1.39,1.39,0,0,0,259.8,237.67Zm0-3.89a1,1,0,0,0,.57-.16,1.21,1.21,0,0,0,.41-.43,1.28,1.28,0,0,0,.15-.61,1.06,1.06,0,0,0-.55-1,1.24,1.24,0,0,0-.58-.14,1.14,1.14,0,0,0-.82.32,1.17,1.17,0,0,0-.33.81,1.13,1.13,0,0,0,.32.85A1.09,1.09,0,0,0,259.8,233.78Z" transform="translate(-80.22 -91.24)"/><path class="cls-14" d="M265,230.77a2.25,2.25,0,0,1,1.16.3,2.14,2.14,0,0,1,.81.8,2.49,2.49,0,0,1,0,2.33,2.25,2.25,0,0,1-.81.81,2.46,2.46,0,0,1-2.32,0,2.14,2.14,0,0,1-.8-.81,2.41,2.41,0,0,1,0-2.33,2.05,2.05,0,0,1,.8-.8A2.25,2.25,0,0,1,265,230.77Zm0,.7a1.64,1.64,0,0,0-.8.2,1.48,1.48,0,0,0-.55.56,1.74,1.74,0,0,0,0,1.62,1.52,1.52,0,0,0,1.35.77,1.49,1.49,0,0,0,1.33-.77,1.67,1.67,0,0,0,0-1.62,1.45,1.45,0,0,0-.54-.56A1.63,1.63,0,0,0,265,231.47Zm2,2.71-2.38,3.91a.37.37,0,0,1-.34.21.4.4,0,0,1-.25-.09.38.38,0,0,1-.13-.22.4.4,0,0,1,.06-.26l1.59-2.59Z" transform="translate(-80.22 -91.24)"/><path class="cls-14" d="M296,230.77a2.26,2.26,0,0,1,1.17.3,2.05,2.05,0,0,1,.8.8,2.41,2.41,0,0,1,0,2.33,2.14,2.14,0,0,1-.8.81,2.36,2.36,0,0,1-1.17.29,2.31,2.31,0,0,1-1.15-.29,2.14,2.14,0,0,1-.8-.81,2.41,2.41,0,0,1,0-2.33,2.05,2.05,0,0,1,.8-.8A2.22,2.22,0,0,1,296,230.77Zm0,.7a1.6,1.6,0,0,0-.79.2,1.48,1.48,0,0,0-.55.56,1.67,1.67,0,0,0,0,1.62,1.55,1.55,0,0,0,.55.56,1.51,1.51,0,0,0,.79.21,1.48,1.48,0,0,0,.79-.21,1.55,1.55,0,0,0,.55-.56,1.67,1.67,0,0,0,0-1.62,1.48,1.48,0,0,0-.55-.56A1.57,1.57,0,0,0,296,231.47Zm2,2.71-2.38,3.91a.38.38,0,0,1-.72-.1.35.35,0,0,1,.06-.26l1.59-2.59Z" transform="translate(-80.22 -91.24)"/><path class="cls-14" d="M301.59,238.3a1.81,1.81,0,0,1-1.23-.45,2.82,2.82,0,0,1-.77-1.29,6.72,6.72,0,0,1-.26-2,6.63,6.63,0,0,1,.26-2,2.8,2.8,0,0,1,.77-1.3,1.81,1.81,0,0,1,1.23-.45,1.76,1.76,0,0,1,1.23.45,2.9,2.9,0,0,1,.78,1.31,6.93,6.93,0,0,1,.26,2,7,7,0,0,1-.26,2,2.92,2.92,0,0,1-.78,1.3A1.76,1.76,0,0,1,301.59,238.3Zm0-.75a1.07,1.07,0,0,0,.85-.39,2.43,2.43,0,0,0,.51-1.07,7.34,7.34,0,0,0,.16-1.56,6.63,6.63,0,0,0-.17-1.55,2.49,2.49,0,0,0-.51-1.07,1.1,1.1,0,0,0-1.68,0,2.54,2.54,0,0,0-.51,1.07,7.64,7.64,0,0,0,0,3.11,2.54,2.54,0,0,0,.51,1.07A1.05,1.05,0,0,0,301.59,237.55Z" transform="translate(-80.22 -91.24)"/><path class="cls-14" d="M332.22,230.77a2.23,2.23,0,0,1,1.16.3,2.14,2.14,0,0,1,.81.8,2.49,2.49,0,0,1,0,2.33,2.25,2.25,0,0,1-.81.81,2.32,2.32,0,0,1-1.16.29,2.35,2.35,0,0,1-1.16-.29,2.14,2.14,0,0,1-.8-.81,2.49,2.49,0,0,1,0-2.33,2.05,2.05,0,0,1,.8-.8A2.25,2.25,0,0,1,332.22,230.77Zm0,.7a1.64,1.64,0,0,0-.8.2,1.55,1.55,0,0,0-.55.56,1.74,1.74,0,0,0,0,1.62,1.64,1.64,0,0,0,.55.56,1.54,1.54,0,0,0,.8.21,1.51,1.51,0,0,0,.79-.21,1.64,1.64,0,0,0,.55-.56,1.74,1.74,0,0,0,0-1.62,1.55,1.55,0,0,0-.55-.56A1.6,1.6,0,0,0,332.23,231.47Zm2,2.71-2.38,3.91a.37.37,0,0,1-.58.12.34.34,0,0,1-.13-.22.34.34,0,0,1,.05-.26l1.59-2.59Z" transform="translate(-80.22 -91.24)"/><path class="cls-14" d="M337.41,238.3a.39.39,0,0,1-.27-.1.37.37,0,0,1-.11-.27v-6.26l-1,.34a.49.49,0,0,1-.19.05.37.37,0,0,1-.27-.11.36.36,0,0,1-.11-.26.37.37,0,0,1,.06-.21.31.31,0,0,1,.18-.15l1.49-.51.1,0,.09,0a.31.31,0,0,1,.26.12.35.35,0,0,1,.1.26v6.78a.34.34,0,0,1-.37.37Z" transform="translate(-80.22 -91.24)"/><path class="cls-14" d="M367.77,230.77a2.26,2.26,0,0,1,1.17.3,2.12,2.12,0,0,1,.8.8,2.49,2.49,0,0,1,0,2.33,2.22,2.22,0,0,1-.8.81,2.49,2.49,0,0,1-2.33,0,2.22,2.22,0,0,1-.8-.81,2.49,2.49,0,0,1,0-2.33,2.12,2.12,0,0,1,.8-.8A2.25,2.25,0,0,1,367.77,230.77Zm0,.7a1.57,1.57,0,0,0-.79.2,1.5,1.5,0,0,0-.56.56,1.74,1.74,0,0,0,0,1.62,1.58,1.58,0,0,0,.56.56,1.48,1.48,0,0,0,.79.21,1.51,1.51,0,0,0,.79-.21,1.64,1.64,0,0,0,.55-.56,1.74,1.74,0,0,0,0-1.62,1.55,1.55,0,0,0-.55-.56A1.6,1.6,0,0,0,367.78,231.47Zm2,2.71-2.37,3.91a.39.39,0,0,1-.34.21.37.37,0,0,1-.25-.09.34.34,0,0,1-.13-.22.34.34,0,0,1,0-.26l1.59-2.59Z" transform="translate(-80.22 -91.24)"/><path class="cls-14" d="M371.72,238.3a.39.39,0,0,1-.27-.1.37.37,0,0,1-.11-.27.38.38,0,0,1,.11-.26l2.92-3.45a2.24,2.24,0,0,0,.38-.58,1.47,1.47,0,0,0,.15-.6,1.71,1.71,0,0,0-.18-.8,1.47,1.47,0,0,0-.5-.55,1.41,1.41,0,0,0-.74-.19,1.44,1.44,0,0,0-.74.2,1.55,1.55,0,0,0-.52.56,1.66,1.66,0,0,0-.18.78.36.36,0,0,1-.38.36.35.35,0,0,1-.26-.1.34.34,0,0,1-.12-.26,2.35,2.35,0,0,1,.29-1.16,2.27,2.27,0,0,1,.79-.81,2.11,2.11,0,0,1,1.12-.3,2.14,2.14,0,0,1,1.11.29,2,2,0,0,1,.76.8,2.37,2.37,0,0,1,.28,1.18,2,2,0,0,1-.1.6,2.44,2.44,0,0,1-.28.56,4.49,4.49,0,0,1-.37.49l-2.47,2.86h3a.34.34,0,0,1,.27.12.38.38,0,0,1,.11.26.37.37,0,0,1-.11.27.36.36,0,0,1-.27.1Z" transform="translate(-80.22 -91.24)"/><path class="cls-14" d="M404.71,230.77a2.26,2.26,0,0,1,1.17.3,2.05,2.05,0,0,1,.8.8,2.49,2.49,0,0,1,0,2.33,2.14,2.14,0,0,1-.8.81,2.36,2.36,0,0,1-1.17.29,2.31,2.31,0,0,1-1.15-.29,2.25,2.25,0,0,1-.81-.81,2.49,2.49,0,0,1,0-2.33,2.14,2.14,0,0,1,.81-.8A2.22,2.22,0,0,1,404.71,230.77Zm0,.7a1.6,1.6,0,0,0-.79.2,1.5,1.5,0,0,0-.56.56,1.74,1.74,0,0,0,0,1.62,1.58,1.58,0,0,0,.56.56,1.51,1.51,0,0,0,.79.21,1.48,1.48,0,0,0,.79-.21,1.55,1.55,0,0,0,.55-.56,1.74,1.74,0,0,0,0-1.62,1.48,1.48,0,0,0-.55-.56A1.57,1.57,0,0,0,404.72,231.47Zm2,2.71-2.38,3.91a.39.39,0,0,1-.34.21.37.37,0,0,1-.25-.09.38.38,0,0,1-.13-.22.34.34,0,0,1,0-.26l1.59-2.59Z" transform="translate(-80.22 -91.24)"/><path class="cls-14" d="M410.49,238.35a2.55,2.55,0,0,1-1.21-.29,2.33,2.33,0,0,1-.84-.81,2.13,2.13,0,0,1-.31-1.15.4.4,0,0,1,.1-.28.3.3,0,0,1,.26-.11.31.31,0,0,1,.26.11.45.45,0,0,1,.09.28,1.43,1.43,0,0,0,.22.79,1.49,1.49,0,0,0,.58.56,1.64,1.64,0,0,0,.82.21,1.62,1.62,0,0,0,1.18-.42,1.46,1.46,0,0,0,.42-1.08,1.7,1.7,0,0,0-.2-.83,1.5,1.5,0,0,0-.55-.54,1.46,1.46,0,0,0-.78-.2.36.36,0,0,1-.26-.11.37.37,0,0,1-.11-.27.36.36,0,0,1,.11-.26.35.35,0,0,1,.26-.1,1.23,1.23,0,0,0,.62-.17,1.32,1.32,0,0,0,.46-.45,1.2,1.2,0,0,0,.17-.62,1.12,1.12,0,0,0-.35-.85,1.25,1.25,0,0,0-.92-.34,1.53,1.53,0,0,0-.72.16,1.31,1.31,0,0,0-.5.42,1.06,1.06,0,0,0-.18.6.39.39,0,0,1-.1.28.34.34,0,0,1-.25.11.33.33,0,0,1-.26-.11.36.36,0,0,1-.1-.27,1.73,1.73,0,0,1,.27-1,2,2,0,0,1,.75-.68,2.39,2.39,0,0,1,1.09-.24,2.12,2.12,0,0,1,1,.24,2,2,0,0,1,.71.68,1.81,1.81,0,0,1,.26,1,1.35,1.35,0,0,1-.16.64,1.83,1.83,0,0,1-.42.55,1.85,1.85,0,0,1-.56.38,2.17,2.17,0,0,1,.82.45,2,2,0,0,1,.48.69,2.4,2.4,0,0,1,.15.84,2.1,2.1,0,0,1-1.13,1.91A2.48,2.48,0,0,1,410.49,238.35Z" transform="translate(-80.22 -91.24)"/><path class="cls-14" d="M441.52,230.77a2.26,2.26,0,0,1,1.17.3,2.12,2.12,0,0,1,.8.8,2.49,2.49,0,0,1,0,2.33,2.22,2.22,0,0,1-.8.81,2.36,2.36,0,0,1-1.17.29,2.31,2.31,0,0,1-1.15-.29,2.17,2.17,0,0,1-.81-.81,2.49,2.49,0,0,1,0-2.33,2.08,2.08,0,0,1,.81-.8A2.22,2.22,0,0,1,441.52,230.77Zm0,.7a1.6,1.6,0,0,0-.79.2,1.5,1.5,0,0,0-.56.56,1.74,1.74,0,0,0,0,1.62,1.58,1.58,0,0,0,.56.56,1.51,1.51,0,0,0,.79.21,1.48,1.48,0,0,0,.79-.21,1.64,1.64,0,0,0,.55-.56,1.74,1.74,0,0,0,0-1.62,1.55,1.55,0,0,0-.55-.56A1.57,1.57,0,0,0,441.53,231.47Zm2,2.71-2.37,3.91a.39.39,0,0,1-.34.21.37.37,0,0,1-.25-.09.34.34,0,0,1-.13-.22.34.34,0,0,1,0-.26l1.59-2.59Z" transform="translate(-80.22 -91.24)"/><path class="cls-14" d="M448.15,238.3a.36.36,0,0,1-.36-.37V236.5h-3.45a.33.33,0,0,1-.25-.1.35.35,0,0,1-.12-.23.37.37,0,0,1,.07-.25l3.82-5a.32.32,0,0,1,.12-.11.35.35,0,0,1,.18,0,.32.32,0,0,1,.26.12.36.36,0,0,1,.1.27v4.67h.76a.45.45,0,0,1,.26.08.31.31,0,0,1,.11.27.29.29,0,0,1-.11.22.35.35,0,0,1-.26.1h-.76v1.43a.34.34,0,0,1-.37.37Zm-3.4-2.18-.14-.29h3.18V231.7l.19.2Z" transform="translate(-80.22 -91.24)"/><path class="cls-14" d="M479.79,230.77a2.23,2.23,0,0,1,1.16.3,2.14,2.14,0,0,1,.81.8,2.49,2.49,0,0,1,0,2.33,2.25,2.25,0,0,1-.81.81,2.32,2.32,0,0,1-1.16.29,2.35,2.35,0,0,1-1.16-.29,2.22,2.22,0,0,1-.8-.81,2.49,2.49,0,0,1,0-2.33,2.12,2.12,0,0,1,.8-.8A2.25,2.25,0,0,1,479.79,230.77Zm0,.7a1.64,1.64,0,0,0-.8.2,1.55,1.55,0,0,0-.55.56,1.74,1.74,0,0,0,0,1.62,1.64,1.64,0,0,0,.55.56,1.54,1.54,0,0,0,.8.21,1.51,1.51,0,0,0,.79-.21,1.64,1.64,0,0,0,.55-.56,1.74,1.74,0,0,0,0-1.62,1.55,1.55,0,0,0-.55-.56A1.6,1.6,0,0,0,479.8,231.47Zm2,2.71-2.38,3.91a.37.37,0,0,1-.58.12.34.34,0,0,1-.13-.22.34.34,0,0,1,.05-.26l1.59-2.59Z" transform="translate(-80.22 -91.24)"/><path class="cls-14" d="M485.74,238.3a2.38,2.38,0,0,1-2.11-1.19,2.41,2.41,0,0,1-.33-1.25.37.37,0,0,1,.11-.27.36.36,0,0,1,.26-.11.41.41,0,0,1,.28.11.37.37,0,0,1,.11.27,1.71,1.71,0,0,0,.22.87,1.64,1.64,0,0,0,1.46.82,1.71,1.71,0,0,0,.87-.22,1.64,1.64,0,0,0,.6-.6,1.83,1.83,0,0,0,0-1.74,1.57,1.57,0,0,0-.6-.6,1.71,1.71,0,0,0-.87-.23h-1.68a.33.33,0,0,1-.27-.11.33.33,0,0,1-.11-.26v-2.64a.33.33,0,0,1,.11-.26.34.34,0,0,1,.27-.12h3.37a.34.34,0,0,1,.27.12.36.36,0,0,1,.11.26.4.4,0,0,1-.11.27.37.37,0,0,1-.27.11h-3v1.88h1.32a2.36,2.36,0,0,1,1.25.33,2.27,2.27,0,0,1,.87.87,2.53,2.53,0,0,1,0,2.5,2.39,2.39,0,0,1-2.12,1.19Z" transform="translate(-80.22 -91.24)"/><path class="cls-14" d="M517.31,230.77a2.26,2.26,0,0,1,1.17.3,2.12,2.12,0,0,1,.8.8,2.49,2.49,0,0,1,0,2.33,2.22,2.22,0,0,1-.8.81,2.49,2.49,0,0,1-2.33,0,2.22,2.22,0,0,1-.8-.81,2.49,2.49,0,0,1,0-2.33,2.12,2.12,0,0,1,.8-.8A2.25,2.25,0,0,1,517.31,230.77Zm0,.7a1.6,1.6,0,0,0-.79.2,1.5,1.5,0,0,0-.56.56,1.74,1.74,0,0,0,0,1.62,1.58,1.58,0,0,0,.56.56,1.59,1.59,0,0,0,1.58,0,1.64,1.64,0,0,0,.55-.56,1.74,1.74,0,0,0,0-1.62,1.55,1.55,0,0,0-.55-.56A1.6,1.6,0,0,0,517.32,231.47Zm2,2.71-2.37,3.91a.39.39,0,0,1-.34.21.37.37,0,0,1-.25-.09.34.34,0,0,1-.13-.22.34.34,0,0,1,0-.26l1.59-2.59Z" transform="translate(-80.22 -91.24)"/><path class="cls-14" d="M523.09,238.3a2.26,2.26,0,0,1-1.17-.29,2.19,2.19,0,0,1-.8-.8,2.49,2.49,0,0,1,0-2.33,2.22,2.22,0,0,1,.8-.81,2.36,2.36,0,0,1,1.17-.29,2.31,2.31,0,0,1,1.15.29,2.25,2.25,0,0,1,.81.81,2.49,2.49,0,0,1,0,2.33,2.21,2.21,0,0,1-2,1.09Zm-2-3.4,2.38-3.91a.38.38,0,0,1,.34-.2.36.36,0,0,1,.25.08.38.38,0,0,1,.13.22.34.34,0,0,1-.05.26l-1.59,2.59Zm2,2.71a1.6,1.6,0,0,0,.79-.2,1.5,1.5,0,0,0,.56-.56,1.74,1.74,0,0,0,0-1.62,1.58,1.58,0,0,0-.56-.56,1.51,1.51,0,0,0-.79-.21,1.48,1.48,0,0,0-.79.21,1.64,1.64,0,0,0-.55.56,1.74,1.74,0,0,0,0,1.62,1.55,1.55,0,0,0,.55.56A1.57,1.57,0,0,0,523.08,237.61Z" transform="translate(-80.22 -91.24)"/><path class="cls-14" d="M555.28,230.77a2.25,2.25,0,0,1,1.16.3,2.05,2.05,0,0,1,.8.8,2.41,2.41,0,0,1,0,2.33,2.14,2.14,0,0,1-.8.81,2.35,2.35,0,0,1-1.16.29,2.32,2.32,0,0,1-1.16-.29,2.14,2.14,0,0,1-.8-.81,2.41,2.41,0,0,1,0-2.33,2.05,2.05,0,0,1,.8-.8A2.23,2.23,0,0,1,555.28,230.77Zm0,.7a1.5,1.5,0,0,0-.79.2,1.41,1.41,0,0,0-.55.56,1.55,1.55,0,0,0-.21.81,1.54,1.54,0,0,0,1.55,1.58,1.48,1.48,0,0,0,.79-.21,1.6,1.6,0,0,0,.76-1.37,1.55,1.55,0,0,0-.21-.81,1.41,1.41,0,0,0-.55-.56A1.48,1.48,0,0,0,555.28,231.47Zm2,2.71-2.38,3.91a.37.37,0,0,1-.34.2.44.44,0,0,1-.25-.08.38.38,0,0,1-.13-.23.34.34,0,0,1,.06-.25l1.59-2.6Z" transform="translate(-80.22 -91.24)"/><path class="cls-14" d="M559.73,238.3a.35.35,0,0,1-.26-.1.33.33,0,0,1-.11-.27.23.23,0,0,1,0-.11.49.49,0,0,1,.06-.13l2.86-6.17H559a.33.33,0,0,1-.27-.11.33.33,0,0,1-.11-.26.36.36,0,0,1,.11-.27.37.37,0,0,1,.27-.11h3.92a.36.36,0,0,1,.26.11.4.4,0,0,1,.11.27.44.44,0,0,1,0,.1.69.69,0,0,0,0,.1l-3.15,6.74A.35.35,0,0,1,559.73,238.3Z" transform="translate(-80.22 -91.24)"/><path class="cls-14" d="M591.2,230.77a2.23,2.23,0,0,1,1.16.3,2.14,2.14,0,0,1,.81.8,2.49,2.49,0,0,1,0,2.33,2.25,2.25,0,0,1-.81.81,2.32,2.32,0,0,1-1.16.29A2.35,2.35,0,0,1,590,235a2.14,2.14,0,0,1-.8-.81,2.49,2.49,0,0,1,0-2.33,2.05,2.05,0,0,1,.8-.8A2.25,2.25,0,0,1,591.2,230.77Zm0,.7a1.53,1.53,0,0,0-.8.2,1.48,1.48,0,0,0-.55.56,1.65,1.65,0,0,0-.2.81,1.61,1.61,0,0,0,.2.8,1.58,1.58,0,0,0,.55.57,1.54,1.54,0,0,0,.8.21,1.51,1.51,0,0,0,.79-.21,1.58,1.58,0,0,0,.55-.57,1.61,1.61,0,0,0,.2-.8,1.65,1.65,0,0,0-.2-.81,1.48,1.48,0,0,0-.55-.56A1.5,1.5,0,0,0,591.21,231.47Zm2,2.71-2.38,3.91a.36.36,0,0,1-.33.2.41.41,0,0,1-.25-.08.34.34,0,0,1-.13-.23.33.33,0,0,1,0-.25l1.59-2.6Z" transform="translate(-80.22 -91.24)"/><path class="cls-14" d="M597,238.34a2.25,2.25,0,0,1-1.16-.3,2.17,2.17,0,0,1-.8-.82,2.33,2.33,0,0,1-.3-1.18,2.21,2.21,0,0,1,.3-1.14,2.17,2.17,0,0,1,.8-.79,2.34,2.34,0,0,1,1.16-.28,2.3,2.3,0,0,1,1.15.28,2.17,2.17,0,0,1,.8.79,2.2,2.2,0,0,1,.29,1.14,2.55,2.55,0,0,1-.3,1.18,2.25,2.25,0,0,1-.8.82A2.21,2.21,0,0,1,597,238.34Zm0-3.92a1.93,1.93,0,0,1-1-.24,1.79,1.79,0,0,1-.66-.65,1.86,1.86,0,0,1-.24-.95,1.8,1.8,0,0,1,.24-.92A1.65,1.65,0,0,1,596,231a1.83,1.83,0,0,1,1-.25,1.84,1.84,0,0,1,1.6,2.77,1.79,1.79,0,0,1-.66.65A1.88,1.88,0,0,1,597,234.42Zm0,3.25a1.43,1.43,0,0,0,.76-.22,1.56,1.56,0,0,0,.53-.58,1.76,1.76,0,0,0,.2-.83,1.57,1.57,0,0,0-.19-.79,1.5,1.5,0,0,0-.53-.56,1.52,1.52,0,0,0-.77-.2,1.5,1.5,0,0,0-.77.2,1.45,1.45,0,0,0-.54.56,1.57,1.57,0,0,0-.19.79,1.75,1.75,0,0,0,.19.83,1.46,1.46,0,0,0,1.31.8Zm0-3.89a1.11,1.11,0,0,0,.57-.16,1.16,1.16,0,0,0,.41-.44,1.23,1.23,0,0,0,.15-.61,1,1,0,0,0-.14-.58,1.1,1.1,0,0,0-.4-.4,1.28,1.28,0,0,0-.59-.14,1.1,1.1,0,0,0-.82.32,1.22,1.22,0,0,0,0,1.66A1.09,1.09,0,0,0,597,233.78Z" transform="translate(-80.22 -91.24)"/><path class="cls-14" d="M628.35,230.77a2.25,2.25,0,0,1,1.16.3,2.05,2.05,0,0,1,.8.8,2.41,2.41,0,0,1,0,2.33,2.14,2.14,0,0,1-.8.81,2.46,2.46,0,0,1-2.32,0,2.14,2.14,0,0,1-.8-.81,2.41,2.41,0,0,1,0-2.33,2.05,2.05,0,0,1,.8-.8A2.25,2.25,0,0,1,628.35,230.77Zm0,.7a1.64,1.64,0,0,0-.8.2,1.48,1.48,0,0,0-.55.56,1.67,1.67,0,0,0,0,1.62,1.52,1.52,0,0,0,1.35.77,1.52,1.52,0,0,0,1.33-.77,1.67,1.67,0,0,0,0-1.62,1.41,1.41,0,0,0-.55-.56A1.56,1.56,0,0,0,628.36,231.47Zm2,2.71L628,238.09a.38.38,0,0,1-.72-.1.4.4,0,0,1,.06-.26l1.59-2.59Z" transform="translate(-80.22 -91.24)"/><path class="cls-14" d="M633.92,230.77a2.26,2.26,0,0,1,1.17.3,2.12,2.12,0,0,1,.8.8,2.49,2.49,0,0,1,0,2.33,2.22,2.22,0,0,1-.8.81,2.36,2.36,0,0,1-1.17.29,2.31,2.31,0,0,1-1.15-.29,2.25,2.25,0,0,1-.81-.81,2.49,2.49,0,0,1,0-2.33,2.14,2.14,0,0,1,.81-.8A2.22,2.22,0,0,1,633.92,230.77Zm0,.7a1.6,1.6,0,0,0-.79.2,1.5,1.5,0,0,0-.56.56,1.74,1.74,0,0,0,0,1.62,1.58,1.58,0,0,0,.56.56,1.51,1.51,0,0,0,.79.21,1.48,1.48,0,0,0,.79-.21,1.64,1.64,0,0,0,.55-.56,1.74,1.74,0,0,0,0-1.62,1.55,1.55,0,0,0-.55-.56A1.57,1.57,0,0,0,633.93,231.47Zm2,2.71-2.37,3.91a.39.39,0,0,1-.34.21.37.37,0,0,1-.25-.09.34.34,0,0,1-.13-.22.34.34,0,0,1,.05-.26l1.59-2.59Z" transform="translate(-80.22 -91.24)"/><line class="cls-15" x1="59.77" y1="273.82" x2="169.08" y2="378.23"/><line class="cls-15" x1="47" y1="273.82" x2="156.3" y2="378.23"/><line class="cls-15" x1="40.61" y1="281.81" x2="149.91" y2="386.21"/><line class="cls-15" x1="39.01" y1="292.99" x2="148.31" y2="397.39"/><line class="cls-15" x1="84.3" y1="246.86" x2="193.6" y2="351.27"/><line class="cls-15" x1="71.52" y1="246.86" x2="180.82" y2="351.27"/><line class="cls-15" x1="65.13" y1="254.85" x2="174.43" y2="359.25"/><line class="cls-15" x1="63.53" y1="266.03" x2="172.83" y2="370.43"/><line class="cls-15" x1="117.28" y1="228.96" x2="204.4" y2="310.26"/><line class="cls-15" x1="110.96" y1="232.8" x2="205.67" y2="323.28"/><line class="cls-15" x1="94.01" y1="230.71" x2="203.31" y2="335.11"/><line class="cls-15" x1="92.41" y1="241.89" x2="201.72" y2="346.3"/><line class="cls-15" x1="38.01" y1="304.01" x2="136.85" y2="398.43"/><line class="cls-15" x1="36.58" y1="314.86" x2="125.22" y2="399.53"/><line class="cls-15" x1="40.3" y1="332.5" x2="112.24" y2="401.22"/><line class="cls-15" x1="133.67" y1="231.36" x2="200.9" y2="294.09"/><line class="cls-15" x1="166.25" y1="255.39" x2="54.09" y2="356.72"/><line class="cls-15" x1="167.19" y1="242.65" x2="55.03" y2="343.97"/><line class="cls-15" x1="159.7" y1="235.69" x2="47.53" y2="337.02"/><line class="cls-15" x1="148.66" y1="233.27" x2="36.5" y2="334.6"/><line class="cls-15" x1="191.33" y1="281.83" x2="79.17" y2="383.16"/><line class="cls-15" x1="192.27" y1="269.09" x2="80.11" y2="370.42"/><line class="cls-15" x1="184.78" y1="262.13" x2="72.62" y2="363.46"/><line class="cls-15" x1="173.75" y1="259.71" x2="61.58" y2="361.04"/><line class="cls-15" x1="206.76" y1="316.04" x2="119.28" y2="396.95"/><line class="cls-15" x1="203.39" y1="309.45" x2="102.06" y2="400.99"/><line class="cls-15" x1="206.73" y1="292.71" x2="94.56" y2="394.03"/><line class="cls-15" x1="195.69" y1="290.29" x2="83.53" y2="391.62"/><line class="cls-15" x1="138.32" y1="230.93" x2="34.81" y2="324.45"/><line class="cls-15" x1="127.03" y1="229.24" x2="37.22" y2="310.38"/><line class="cls-15" x1="109.16" y1="231.65" x2="35.34" y2="298.34"/><line class="cls-15" x1="203.16" y1="332.22" x2="135.65" y2="394.65"/><circle class="cls-16" cx="121.55" cy="314.86" r="82.79"/><line class="cls-15" x1="515.3" y1="276.4" x2="624.6" y2="380.81"/><line class="cls-15" x1="502.52" y1="276.4" x2="611.82" y2="380.81"/><line class="cls-15" x1="496.13" y1="284.39" x2="605.43" y2="388.8"/><line class="cls-15" x1="493.26" y1="294.4" x2="599.43" y2="395.81"/><line class="cls-15" x1="539.82" y1="249.44" x2="649.12" y2="353.85"/><line class="cls-15" x1="527.04" y1="249.44" x2="636.34" y2="353.85"/><line class="cls-15" x1="520.65" y1="257.43" x2="629.96" y2="361.84"/><line class="cls-15" x1="519.06" y1="268.61" x2="628.36" y2="373.02"/><line class="cls-15" x1="572.8" y1="231.54" x2="659.92" y2="312.84"/><line class="cls-15" x1="566.48" y1="235.39" x2="661.98" y2="326.61"/><line class="cls-15" x1="549.53" y1="233.29" x2="658.84" y2="337.7"/><line class="cls-15" x1="547.94" y1="244.47" x2="657.24" y2="348.88"/><line class="cls-15" x1="491.36" y1="304.53" x2="591.1" y2="399.8"/><line class="cls-15" x1="492.1" y1="317.44" x2="580.23" y2="401.63"/><line class="cls-15" x1="495.82" y1="335.08" x2="563.74" y2="399.96"/><line class="cls-15" x1="589.2" y1="233.94" x2="656.43" y2="296.68"/><line class="cls-15" x1="621.78" y1="257.98" x2="509.61" y2="359.3"/><line class="cls-15" x1="622.72" y1="245.23" x2="510.55" y2="346.56"/><line class="cls-15" x1="615.22" y1="238.27" x2="503.06" y2="339.6"/><line class="cls-15" x1="604.19" y1="235.86" x2="492.02" y2="337.18"/><line class="cls-15" x1="646.86" y1="284.42" x2="534.69" y2="385.74"/><line class="cls-15" x1="647.8" y1="271.67" x2="535.63" y2="373"/><line class="cls-15" x1="640.3" y1="264.71" x2="528.14" y2="366.04"/><line class="cls-15" x1="629.27" y1="262.3" x2="517.1" y2="363.62"/><line class="cls-15" x1="659.09" y1="318.63" x2="571.6" y2="399.53"/><line class="cls-15" x1="655.72" y1="312.04" x2="561.33" y2="397.3"/><line class="cls-15" x1="659.06" y1="295.29" x2="546.89" y2="396.62"/><line class="cls-15" x1="651.22" y1="292.88" x2="539.05" y2="394.2"/><line class="cls-15" x1="598.58" y1="229.24" x2="496.4" y2="321.55"/><line class="cls-15" x1="582.55" y1="231.83" x2="493.27" y2="312.48"/><line class="cls-15" x1="564.68" y1="234.24" x2="490.86" y2="300.93"/><line class="cls-15" x1="655.49" y1="334.8" x2="587.98" y2="397.23"/><circle class="cls-16" cx="576.53" cy="314.9" r="82.79"/><rect x="297.66" y="315.38" width="104.41" height="62.85"/><rect x="313.52" y="307.99" width="72.99" height="13.73"/><line class="cls-17" x1="374.34" y1="318.28" x2="325.77" y2="318.3"/><line class="cls-17" x1="392.52" y1="367.71" x2="306.11" y2="367.69"/></g></svg>