<svg xmlns="http://www.w3.org/2000/svg" xmlns:xlink="http://www.w3.org/1999/xlink" viewBox="0 0 623.73 528.46"><defs><style>.cls-1,.cls-2,.cls-4{stroke:#fff;}.cls-1,.cls-2,.cls-4,.cls-5{stroke-miterlimit:10;}.cls-1,.cls-2{stroke-width:0.75px;opacity:0.5;}.cls-1{fill:url(#Dégradé_sans_nom_213);}.cls-2{fill:#f422e0;}.cls-3{fill:#1c1c1c;}.cls-4,.cls-5{fill:none;}.cls-4{stroke-width:5px;}.cls-5{stroke-width:6px;stroke:url(#Dégradé_sans_nom_199);}.cls-6{fill:url(#Dégradé_sans_nom_154);}.cls-7{fill:url(#Dégradé_sans_nom_154-2);}.cls-8{fill:url(#Dégradé_sans_nom_154-3);}.cls-9{fill:url(#Dégradé_sans_nom_154-4);}.cls-10{fill:url(#Dégradé_sans_nom_154-5);}.cls-11{fill:#fff;}.cls-12{fill:#d11cb8;}.cls-13{fill:url(#Dégradé_sans_nom_154-6);}.cls-14{fill:url(#Dégradé_sans_nom_154-7);}.cls-15{fill:url(#Dégradé_sans_nom_154-8);}.cls-16{fill:url(#Dégradé_sans_nom_154-9);}.cls-17{fill:url(#Dégradé_sans_nom_154-10);}.cls-18{fill:url(#Dégradé_sans_nom_154-11);}</style><linearGradient id="Dégradé_sans_nom_213" x1="19.86" y1="266.41" x2="582.05" y2="266.41" gradientUnits="userSpaceOnUse"><stop offset="0" stop-color="#4f04d0"/><stop offset="0.46" stop-color="#5a06ce"/><stop offset="1" stop-color="#3900d4"/></linearGradient><linearGradient id="Dégradé_sans_nom_199" x1="320.25" y1="476.7" x2="320.25" y2="69.45" gradientUnits="userSpaceOnUse"><stop offset="0" stop-color="#3900d4"/><stop offset="0.22" stop-color="#6d0aca"/><stop offset="0.43" stop-color="#9812c2"/><stop offset="0.62" stop-color="#b717bd"/><stop offset="0.78" stop-color="#ca1bb9"/><stop offset="0.89" stop-color="#d11cb8"/></linearGradient><linearGradient id="Dégradé_sans_nom_154" x1="354.39" y1="332.29" x2="394.66" y2="332.29" gradientUnits="userSpaceOnUse"><stop offset="0" stop-color="#3900d4"/><stop offset="0.46" stop-color="#d11cb8"/></linearGradient><linearGradient id="Dégradé_sans_nom_154-2" x1="390.29" y1="331.63" x2="423.82" y2="331.63" xlink:href="#Dégradé_sans_nom_154"/><linearGradient id="Dégradé_sans_nom_154-3" x1="419.76" y1="321.94" x2="454.2" y2="321.94" xlink:href="#Dégradé_sans_nom_154"/><linearGradient id="Dégradé_sans_nom_154-4" x1="452.52" y1="320.48" x2="470.43" y2="320.48" xlink:href="#Dégradé_sans_nom_154"/><linearGradient id="Dégradé_sans_nom_154-5" x1="467.74" y1="322.16" x2="491.29" y2="322.16" xlink:href="#Dégradé_sans_nom_154"/><linearGradient id="Dégradé_sans_nom_154-6" x1="147.93" y1="258.39" x2="147.93" y2="161.82" xlink:href="#Dégradé_sans_nom_154"/><linearGradient id="Dégradé_sans_nom_154-7" x1="242.27" y1="258.32" x2="242.27" y2="161.68" xlink:href="#Dégradé_sans_nom_154"/><linearGradient id="Dégradé_sans_nom_154-8" x1="352.64" y1="258.26" x2="352.64" y2="161.82" xlink:href="#Dégradé_sans_nom_154"/><linearGradient id="Dégradé_sans_nom_154-9" x1="456.28" y1="258.32" x2="456.28" y2="161.95" xlink:href="#Dégradé_sans_nom_154"/><linearGradient id="Dégradé_sans_nom_154-10" x1="550.36" y1="258.32" x2="550.36" y2="161.68" xlink:href="#Dégradé_sans_nom_154"/><linearGradient id="Dégradé_sans_nom_154-11" x1="660.73" y1="258.26" x2="660.73" y2="161.82" xlink:href="#Dégradé_sans_nom_154"/></defs><title>Déco_Murale_Ramdam</title><g id="Calque_1" data-name="Calque 1"><polygon class="cls-1" points="358.06 526.33 582.05 6.49 19.86 72.42 358.06 526.33"/><polygon class="cls-2" points="274.41 525.36 623.04 79.42 62.53 0.46 274.41 525.36"/><polygon class="cls-3" points="320.19 528.46 603.22 38.25 37.17 38.25 320.19 528.46"/><polygon class="cls-4" points="320.25 478.42 556.95 68.45 83.56 68.45 320.25 478.42"/><polygon class="cls-4" points="320.25 463.57 544.09 76.17 96.41 76.17 320.25 463.57"/><polygon class="cls-5" points="320.25 470.7 550.18 72.45 90.32 72.45 320.25 470.7"/></g><g id="Calque_4" data-name="Calque 4"><path class="cls-6" d="M357.64,335.21a22,22,0,0,1,2.61-.62,105.22,105.22,0,0,1,5.89-14c-4.06,1.6-6.19,3.08-8.2,3.62-.48.12-3.57-.09-3.55-2.54s4.42-4,8.68-5.42a49.76,49.76,0,0,1,7.34-1.92,6.12,6.12,0,0,1,3.43-2,6.74,6.74,0,0,1,3.65,1c8.92-.91,17.12.41,17.17,5,.06,6-11.91,12-19.15,14.64-.52.19-1.19.43-1.91.65,1.11,1.9,3.82,4.29,6.67,6.18,3.76,2.55,7.46,4.56,10.29,5.06.81.12,1.28.28,1.24.6s-.44.73-1.51.83c-2.87.24-9.77-1.53-13.67-3.26-2.16-1-9.38-4.66-11.24-7.22l-.8.19A131.34,131.34,0,0,0,359,349.37c-.7,2-.68,2.82-1.91,2.91s-1.22-1.43-1.17-2.33c.12-2,1.5-7.15,3.43-12.86l-.37,0C357.65,337.3,356.13,336,357.64,335.21Zm8.18-1.83A66,66,0,0,0,374,331c6.69-2.5,14.53-6.64,14.49-9.94,0-2.7-5.55-3.53-9.83-3.3-.65.05-1.27.1-2,.18l-1.43.22c-.22.21-.35.49-.61.74A91,91,0,0,0,365.82,333.38Z" transform="translate(-103.11 -33.18)"/><path class="cls-7" d="M412.88,322.26a8.94,8.94,0,0,1,2.7.68c.75.32,1.29.66,1.26,1.46,0,1.3-1.21,2.86-1.77,4-1.63,3.51-4.09,10.88-2.83,10.72,1.84-.23,5.94-4.47,9.48-10.61a2.27,2.27,0,0,1,1.48-1c.49-.06.82.28.48,1.15-1.36,3.38-8.3,12.66-11.49,13.67-2.75.85-5.29-.89-5.56-3-.06-.47-.08-.94-.1-1.39a22.73,22.73,0,0,1,1.14-6.37c-2.12,3.16-8.47,11.31-12.83,11.86a4.09,4.09,0,0,1-4.55-4.19c0-6.3,9.28-18.35,16.86-19.31,1.68-.21,4.8.92,5.58,2.19Zm-3.68,2.34c0-.41-.21-.7-.9-.61-5.35.67-12.4,12.06-12.15,15.34.08.27.22.41.5.38,2-.26,7.43-7.11,9.87-10.09C407.45,328.45,409.22,325.68,409.2,324.6Z" transform="translate(-103.11 -33.18)"/><path class="cls-8" d="M451.47,308.6c-3.75,6.07-8,20.09-8,24.12,0,.64.37,1,.86.91,1.84-.23,5-4.45,8.13-9.14.24-.38.44-.75.93-.81s1.06.18.58,1.29c-1,2.51-6.49,11.25-10.89,12.51-2.16.59-5.42-.87-5.43-4a33.6,33.6,0,0,1,1.29-7.47c-3.16,4.53-9.34,13-13.7,13.53-2.61.33-5.48-1.34-5.51-3.91,0-2.77,2.19-6.93,4.3-9.89,2.5-3.47,8.29-9.13,13.47-9.79a5.08,5.08,0,0,1,4.18,1c1.26-3.82,2.08-5.83,2.62-7.14.63-1.54,1.9-5.29,3.81-5.54,1.27-.16,4.69.4,4.71,1.82C452.86,306.86,452.28,307.19,451.47,308.6Zm-11.41,12.32c-.09-.72-.48-1.47-1.17-1.38-2.61.33-7,4.76-9.32,8.21-1.8,2.51-3.49,5.84-3.48,7.24,0,.41,0,.92.89.81,1.47-.18,5.52-4.58,8.62-8.56C437.1,325.36,438.77,322.86,440.06,320.92Z" transform="translate(-103.11 -33.18)"/><path class="cls-9" d="M459.82,314.76c1.52-.16,4,.54,4,2.35,0,1.14-2.09,3.41-2.82,4.9-1.32,2.94-2.72,6.64-2.72,8.93,0,1,.2,1.57.61,1.52,2.4-.31,7.79-6.52,9.95-10.07.24-.45.44-.76.93-.82s.8.38.52,1.14c-1.08,3.54-9.19,12.84-12.94,13.31-3.39.43-4.89-1.92-4.86-5,0-3.62,1.72-8.36,3-11.41C456.12,318.25,457.38,315.07,459.82,314.76Zm2.84-2.49c-1.55.2-3.06-.28-3.09-1.77s1.46-5.21,4.35-5.58c1.68-.21,3.5.42,3.47,1.85S465.23,311.94,462.66,312.27Z" transform="translate(-103.11 -33.18)"/><path class="cls-10" d="M486.4,311.3c2.9-.05,4.86,1.7,4.89,4.27,0,6.71-10.18,17.41-16.75,18.24-3.63.46-6.74-1.91-6.8-5,0-3.24,1.88-7.08,4.58-10.63,1.62-2.21,6-7.09,10.29-7.73A6.86,6.86,0,0,1,486.4,311.3Zm-1,2.35c-5.82,2.74-11,10.93-11,15a1.8,1.8,0,0,0,2.19,1.95c3.72-.47,11.69-9.46,11.65-14.7C488.25,314.43,486.94,313.58,485.41,313.65Z" transform="translate(-103.11 -33.18)"/><path class="cls-11" d="M359.59,334.61a23,23,0,0,1,2.62-.62,103.91,103.91,0,0,1,5.89-14c-4.07,1.6-6.2,3.08-8.2,3.62-.48.12-3.58-.09-3.56-2.54s4.43-4,8.68-5.42a50.42,50.42,0,0,1,7.34-1.92,6.19,6.19,0,0,1,3.43-2,6.75,6.75,0,0,1,3.66,1c8.92-.91,17.12.41,17.17,5,.06,6-11.91,12-19.16,14.64-.51.19-1.18.43-1.9.65,1.11,1.9,3.81,4.29,6.67,6.18,3.76,2.55,7.45,4.56,10.29,5.06.8.12,1.28.28,1.24.6s-.45.73-1.51.83c-2.87.24-9.77-1.53-13.68-3.26-2.15-1-9.37-4.66-11.23-7.22l-.8.19A132.93,132.93,0,0,0,361,348.77c-.7,2-.68,2.82-1.91,2.91s-1.21-1.43-1.16-2.33c.12-2,1.49-7.15,3.42-12.86l-.36,0C359.61,336.7,358.08,335.43,359.59,334.61Zm8.18-1.83a66.2,66.2,0,0,0,8.2-2.38c6.68-2.5,14.53-6.64,14.48-9.94,0-2.7-5.54-3.53-9.82-3.3-.66,0-1.27.1-2,.18l-1.42.22c-.22.21-.35.49-.61.74A91,91,0,0,0,367.77,332.78Z" transform="translate(-103.11 -33.18)"/><path class="cls-11" d="M414.84,321.66a9,9,0,0,1,2.7.68c.74.32,1.28.66,1.26,1.46,0,1.3-1.21,2.86-1.77,4-1.63,3.51-4.09,10.88-2.83,10.72,1.84-.23,5.94-4.47,9.47-10.61a2.29,2.29,0,0,1,1.48-1.05c.49-.06.83.28.48,1.15-1.35,3.38-8.3,12.66-11.49,13.67-2.75.85-5.29-.89-5.56-3a13.31,13.31,0,0,1-.09-1.39,22.37,22.37,0,0,1,1.14-6.37c-2.13,3.16-8.47,11.31-12.84,11.86a4.09,4.09,0,0,1-4.55-4.19c0-6.3,9.28-18.35,16.87-19.31,1.67-.21,4.8.92,5.58,2.19ZM411.16,324c0-.41-.22-.7-.91-.61-5.34.68-12.39,12.06-12.14,15.34.07.27.21.41.5.38,2-.26,7.43-7.11,9.87-10.09C409.41,327.85,411.17,325.08,411.16,324Z" transform="translate(-103.11 -33.18)"/><path class="cls-11" d="M453.42,308c-3.74,6.07-8,20.09-8,24.12,0,.64.37,1,.86.91,1.83-.23,5-4.45,8.12-9.13.24-.39.44-.76.93-.82s1.06.18.58,1.29c-1,2.51-6.49,11.25-10.89,12.51-2.16.59-5.41-.87-5.43-4a34.19,34.19,0,0,1,1.29-7.47c-3.15,4.53-9.33,13-13.7,13.53-2.61.33-5.47-1.34-5.51-3.91,0-2.77,2.19-6.92,4.3-9.89,2.51-3.47,8.29-9.13,13.47-9.79a5.12,5.12,0,0,1,4.19,1c1.25-3.82,2.08-5.83,2.61-7.14.64-1.54,1.9-5.29,3.82-5.54,1.26-.16,4.69.4,4.71,1.82C454.82,306.27,454.24,306.59,453.42,308ZM442,320.32c-.09-.72-.47-1.47-1.17-1.38-2.61.33-7,4.76-9.32,8.21-1.79,2.51-3.48,5.84-3.47,7.24,0,.41,0,.92.89.81,1.47-.18,5.51-4.58,8.61-8.56C439.05,324.76,440.73,322.26,442,320.32Z" transform="translate(-103.11 -33.18)"/><path class="cls-11" d="M461.78,314.16c1.51-.16,4,.54,4,2.35,0,1.14-2.1,3.41-2.82,4.9-1.33,2.94-2.72,6.64-2.72,8.93,0,1,.19,1.57.6,1.52,2.41-.31,7.8-6.52,10-10.07.23-.44.44-.76.93-.82s.79.38.52,1.14c-1.09,3.54-9.19,12.84-12.94,13.31-3.39.43-4.89-1.92-4.86-5-.05-3.62,1.72-8.36,3-11.41C458.08,317.65,459.33,314.47,461.78,314.16Zm2.83-2.49c-1.55.2-3.06-.28-3.08-1.77s1.45-5.21,4.35-5.58c1.67-.21,3.49.42,3.47,1.85S467.18,311.34,464.61,311.67Z" transform="translate(-103.11 -33.18)"/><path class="cls-11" d="M488.36,310.7c2.89-.05,4.85,1.7,4.89,4.27,0,6.71-10.19,17.41-16.75,18.24-3.63.46-6.75-1.91-6.81-5,0-3.24,1.88-7.08,4.58-10.63,1.63-2.21,6-7.09,10.29-7.73A6.91,6.91,0,0,1,488.36,310.7Zm-1,2.35c-5.83,2.74-11.05,10.93-11,15a1.79,1.79,0,0,0,2.19,1.95c3.71-.47,11.69-9.46,11.65-14.7C490.2,313.83,488.89,313,487.37,313.05Z" transform="translate(-103.11 -33.18)"/><path class="cls-12" d="M385.86,373.36a182.71,182.71,0,0,1,89.79-24.75,1.25,1.25,0,0,0,0-2.5,186.71,186.71,0,0,0-75.41,17q-8,3.69-15.64,8.11a1.25,1.25,0,0,0,1.26,2.16Z" transform="translate(-103.11 -33.18)"/><path class="cls-11" d="M387,372.26a182.52,182.52,0,0,1,89.74-24.91,1.25,1.25,0,0,0,0-2.5A186.59,186.59,0,0,0,401.38,362q-8,3.71-15.63,8.14a1.25,1.25,0,0,0,1.26,2.16Z" transform="translate(-103.11 -33.18)"/><path class="cls-11" d="M181.58,196.51a31.72,31.72,0,0,1-5.72,11.17,26.86,26.86,0,0,1-9.19,7.24,27.79,27.79,0,0,1-12.28,2.62l27.93,40.85H163.54l-28.26-40.85h-9.22v40.78H107.75V201.59h48.39a12.3,12.3,0,0,0,7.23-3.2c1.78-1.72,2.75-4.36,2.93-7.9,0-3.82-1-6.71-2.93-8.68a9.74,9.74,0,0,0-7.23-3h-39l-14.06-17h51.35a27.48,27.48,0,0,1,12.35,2.69,26.12,26.12,0,0,1,9.11,7.44,33.68,33.68,0,0,1,5.66,11.37A22.79,22.79,0,0,1,181.58,196.51Z" transform="translate(-103.11 -33.18)"/><path class="cls-11" d="M225.53,258.32l-6.26-16.22h35.6l-17.5-40.78-26,57h-20.4l46.78-96.64,45.69,96.64Z" transform="translate(-103.11 -33.18)"/><path class="cls-11" d="M347.81,219.63l30.35-57.81,28.93,96.44H387.85l-15.28-51.69L347.4,251.12l-26.65-44.55-15.14,51.69H288L316,161.82Z" transform="translate(-103.11 -33.18)"/><path class="cls-11" d="M490.61,209.2a71.08,71.08,0,0,1-2.56,19.51,52.88,52.88,0,0,1-7,15.58,34.22,34.22,0,0,1-10.7,10.3,25.76,25.76,0,0,1-13.49,3.73H419.14V198.23h17.5V241h20.19a9.93,9.93,0,0,0,6.63-2.66,29.33,29.33,0,0,0,5.58-6.69,26.49,26.49,0,0,0,3.47-10,71.14,71.14,0,0,0,.94-11.18,84.72,84.72,0,0,0-.94-11.71,28.87,28.87,0,0,0-3.06-10.29,25.78,25.78,0,0,0-5.62-6.6,10.92,10.92,0,0,0-7-3H424.26l-12.52-17h45.09a27.61,27.61,0,0,1,13.56,3.44,32.34,32.34,0,0,1,10.73,9.69,47.72,47.72,0,0,1,7,15A69.71,69.71,0,0,1,490.61,209.2Z" transform="translate(-103.11 -33.18)"/><path class="cls-11" d="M533.62,258.32l-6.26-16.22H563l-17.5-40.78-26,57H499l46.77-96.64,45.69,96.64Z" transform="translate(-103.11 -33.18)"/><path class="cls-11" d="M655.9,219.63l30.35-57.81,28.94,96.44H695.94l-15.28-51.69L655.5,251.12l-26.65-44.55L613.7,258.26H596.07l28.07-96.44Z" transform="translate(-103.11 -33.18)"/><rect class="cls-11" x="134.6" y="128.51" width="5.1" height="6.98"/><rect class="cls-11" x="212.93" y="128.64" width="5.1" height="6.98"/><rect class="cls-11" x="275.05" y="128.64" width="5.1" height="6.98"/><rect class="cls-11" x="244.29" y="210.94" width="5.1" height="7"/><rect class="cls-11" x="442.69" y="128.51" width="5.1" height="7"/><rect class="cls-11" x="521.04" y="128.64" width="5.1" height="7"/><rect class="cls-11" x="583.15" y="128.64" width="5.1" height="7"/><rect class="cls-11" x="552.39" y="210.95" width="5.1" height="7"/><path class="cls-13" d="M186.68,196.51A31.72,31.72,0,0,1,181,207.68a26.86,26.86,0,0,1-9.19,7.24,27.79,27.79,0,0,1-12.28,2.62l27.93,40.85H168.64l-28.26-40.85h-9.22v40.78H112.85V201.59h48.39a12.3,12.3,0,0,0,7.23-3.2c1.78-1.72,2.75-4.36,2.93-7.9,0-3.82-1-6.71-2.93-8.68a9.74,9.74,0,0,0-7.23-3h-39l-14.06-17h51.35a27.48,27.48,0,0,1,12.35,2.69A26.12,26.12,0,0,1,181,172a33.68,33.68,0,0,1,5.66,11.37A22.79,22.79,0,0,1,186.68,196.51Z" transform="translate(-103.11 -33.18)"/><path class="cls-14" d="M230.63,258.32l-6.26-16.22H260l-17.5-40.78-26,57H196l46.78-96.64,45.69,96.64Z" transform="translate(-103.11 -33.18)"/><path class="cls-15" d="M352.91,219.63l30.35-57.81,28.93,96.44H393l-15.28-51.69L352.5,251.12l-26.65-44.55-15.14,51.69H293.08l28.06-96.44Z" transform="translate(-103.11 -33.18)"/><path class="cls-16" d="M495.71,209.2a71.08,71.08,0,0,1-2.56,19.51,52.88,52.88,0,0,1-7,15.58,34.22,34.22,0,0,1-10.7,10.3,25.76,25.76,0,0,1-13.49,3.73H424.24V198.23h17.5V241h20.19a9.93,9.93,0,0,0,6.63-2.66,29.33,29.33,0,0,0,5.58-6.69,26.49,26.49,0,0,0,3.47-10,71.14,71.14,0,0,0,.94-11.18,84.72,84.72,0,0,0-.94-11.71,28.87,28.87,0,0,0-3.06-10.29,25.78,25.78,0,0,0-5.62-6.6,10.92,10.92,0,0,0-7-3H429.36l-12.52-17h45.09a27.61,27.61,0,0,1,13.56,3.44,32.34,32.34,0,0,1,10.73,9.69,47.72,47.72,0,0,1,7,15A69.71,69.71,0,0,1,495.71,209.2Z" transform="translate(-103.11 -33.18)"/><path class="cls-17" d="M538.72,258.32l-6.26-16.22h35.6l-17.5-40.78-26,57H504.13l46.77-96.64,45.69,96.64Z" transform="translate(-103.11 -33.18)"/><path class="cls-18" d="M661,219.63l30.35-57.81,28.94,96.44H701l-15.28-51.69L660.6,251.12,634,206.57,618.8,258.26H601.17l28.07-96.44Z" transform="translate(-103.11 -33.18)"/></g></svg>