<svg xmlns="http://www.w3.org/2000/svg" xmlns:xlink="http://www.w3.org/1999/xlink" viewBox="0 0 209.67 448.9"><defs><style>.cls-1{fill:#fff;}.cls-2{opacity:0.98;fill:url(#Dégradé_sans_nom_81);}.cls-3,.cls-9{fill:none;stroke-miterlimit:10;stroke-width:0.5px;}.cls-3{stroke:#fff;}.cls-4{opacity:0.6;}.cls-5{fill:#2d2d2b;}.cls-6{fill:#d11cb8;}.cls-7{fill:url(#Dégradé_sans_nom_125);}.cls-8{fill:#1d1d1b;}.cls-9{stroke:#3c3c3b;}</style><linearGradient id="Dégradé_sans_nom_81" x1="1930.32" y1="1842.75" x2="2096.25" y2="1548.93" gradientTransform="translate(-1408.54 2298.52) rotate(-89.6)" gradientUnits="userSpaceOnUse"><stop offset="0" stop-color="#545452"/><stop offset="0.04" stop-color="#434341"/><stop offset="0.09" stop-color="#313131"/><stop offset="0.16" stop-color="#252525"/><stop offset="0.25" stop-color="#1e1e1e"/><stop offset="0.46" stop-color="#1c1c1c"/><stop offset="0.54" stop-color="#1c1c1c"/><stop offset="1" stop-color="#1c1c1c"/></linearGradient><linearGradient id="Dégradé_sans_nom_125" x1="2044.62" y1="1800.17" x2="1981.9" y2="1691.53" gradientTransform="translate(-1761.93 -1449.23)" gradientUnits="userSpaceOnUse"><stop offset="0.02" stop-color="#6059e0"/><stop offset="0.11" stop-color="#847ee7"/><stop offset="0.31" stop-color="#c6c3f4"/><stop offset="0.45" stop-color="#efeefc"/><stop offset="0.52" stop-color="#fff"/><stop offset="0.9" stop-color="#9c9c9c"/></linearGradient></defs><title>lecteur cassette_verso</title><g id="Vectorportal.com"><rect class="cls-1" x="197.36" y="72.8" width="208.82" height="448.65" rx="55.9" transform="translate(405.85 522.34) rotate(-179.85)"/><rect class="cls-2" x="203.69" y="87.34" width="195.29" height="419.58" rx="55.9" transform="translate(404.97 522.34) rotate(-179.85)"/><line class="cls-3" x1="160.13" y1="152.8" x2="158.69" y2="304.47"/><line class="cls-3" x1="41.52" y1="151.67" x2="40.08" y2="303.34"/><g class="cls-4"><rect class="cls-5" x="252.33" y="287.34" width="57.19" height="23.79" transform="translate(385.89 -51.51) rotate(90.55)"/><circle class="cls-6" cx="86.89" cy="177.77" r="35.59"/><circle class="cls-6" cx="85.95" cy="276.59" r="35.59"/><rect class="cls-7" x="131.92" y="293.14" width="238.81" height="6.97" transform="translate(353.4 -24.55) rotate(90.55)"/><path class="cls-8" d="M299.63,369.75,301,224.43a8,8,0,0,0-7.78-8.17l-20.61-.2a8,8,0,0,0-7.94,8L263.31,369.4a8,8,0,0,0,7.78,8.17l20.61.2A8,8,0,0,0,299.63,369.75ZM268.51,249.88a14.11,14.11,0,1,1,14,14.66A14.33,14.33,0,0,1,268.51,249.88Zm3.4,73.79.47-49.08,17.56.17-.46,49.08Zm-4.34,24.9a14.11,14.11,0,1,1,14,14.66A14.32,14.32,0,0,1,267.57,348.57Z" transform="translate(-196.93 -72.68)"/><path class="cls-1" d="M344,401.64l2-208.26c.08-8.43-8.75-15.35-19.72-15.46l-72.14-.68L251.88,416l72.13.68C335,416.83,344,410.08,344,401.64Zm-72.94-24.07a8,8,0,0,1-7.78-8.17l1.38-145.32a8,8,0,0,1,7.94-8l20.61.2a8,8,0,0,1,7.78,8.17l-1.39,145.32a8,8,0,0,1-7.93,8Z" transform="translate(-196.93 -72.68)"/></g><path d="M327,238.89a6.76,6.76,0,0,1,2,.2,22.8,22.8,0,0,1,4.66,1.78c3.26,1.71,5.94,4.47,6.57,6.78a1.47,1.47,0,0,1-1,2c-.81.19-2.73-.43-4.25-1.4-.88-.55-1.37-1-1.37-1.13s.21-.22.55.05a9.44,9.44,0,0,0,4.58,2c.55,0,.57,0,.78-.22a.7.7,0,0,0,.22-.62c0-1.06-.89-2.6-2.38-4.09a17.65,17.65,0,0,0-7-4.2,9.35,9.35,0,0,0-4.6-.63,2.43,2.43,0,0,0-2,1.24,3.6,3.6,0,0,0,.09,2.51,11.62,11.62,0,0,0,1.86,3.13,33.83,33.83,0,0,0,3,3.33c1,1,1.21,1.22,1,1.32-.08,0-.44-.27-1.24-1-3-2.9-4.46-4.84-5-6.75a3.78,3.78,0,0,1,0-2.67,2.85,2.85,0,0,1,2-1.52,5.89,5.89,0,0,1,1.64-.1Z" transform="translate(-196.93 -72.68)"/><path d="M330.47,258.57c-.05,0-.21-.09-.42-.25a9.77,9.77,0,0,1-1.87-2.26c-.23-.55-.07-1.14.35-1.27a4.41,4.41,0,0,1,.91-.08,1.67,1.67,0,0,0,.67-.05,7.36,7.36,0,0,0-1.44-1.8,5.93,5.93,0,0,1-.87-1,.29.29,0,0,1,.11-.2c.15-.12.39-.07,1.32.26,2,.75,7.12,3.55,7.3,4,.08.19,0,.31-.21.27a8.25,8.25,0,0,1-1-.56c-1.22-.74-2.67-1.54-3.88-2.16a18.25,18.25,0,0,0-2.52-1.12,3.24,3.24,0,0,0,.57.67,4.5,4.5,0,0,1,1.18,1.72.55.55,0,0,1-.11.28c-.1.12-.23.14-1,.17H329c-.39,0-.39.08-.41.28s0,.37.33.8,1.39,1.67,1.51,1.85.21.33.05.39Z" transform="translate(-196.93 -72.68)"/><path d="M330.26,263.58c.34.39.31.49,0,.49a.91.91,0,0,1-.37-.23,11.07,11.07,0,0,1-1.62-1.67c-.64-.9-.71-1.41-.29-1.81.23-.22.31-.24.7-.23h.44l-.46-.49c-.9-.94-1.21-1.61-.92-2s2,.2,2.69,1.2a1.37,1.37,0,0,1,.31.77.63.63,0,0,1-.48.62l-.26.1.21.21c.23.22.26.3.1.42s-.21.06-.62-.12a1.87,1.87,0,0,0-1.33-.24c-.13.08-.15.14-.13.38.05.47.43,1,1.39,2,.25.27.46.47.59.63Zm-1.1-4.07c.44.46.46.49.72.43a.8.8,0,0,0,.34-.14.17.17,0,0,0,.06-.1c0-.45-1.19-1.57-1.94-1.72-.34-.06-.31.06.07.59.18.22.52.63.77.89Z" transform="translate(-196.93 -72.68)"/><path d="M330.43,270.71c-.08,0-.26-.11-.49-.33A11.32,11.32,0,0,1,328,268c-.41-.73-.36-1.22.14-1.45.29-.14.6-.1,1.48.17a2.26,2.26,0,0,0,.65.15c.1-.1-.64-1.1-1.23-1.65a6,6,0,0,1-1.24-1.45.41.41,0,0,1,.13-.26.48.48,0,0,1,.4-.08,7,7,0,0,1,2.43,1.18c.05.08.05.14-.06.22s-.15.12-.46-.07a15.49,15.49,0,0,0-1.74-.82c-.13,0,.05.18.62.75,1.31,1.35,1.75,2.1,1.41,2.45-.19.2-.55.17-1.25-.06s-1.12-.25-1.17-.11c-.13.36.58,1.46,1.87,2.89.52.57.59.76.36.83Z" transform="translate(-196.93 -72.68)"/><path d="M330.22,274.12c.28.57.28.73,0,.73s-.23-.12-.43-.55-.46-1-.77-1.64l-.58-1.16-.42-.05a1.61,1.61,0,0,1-1.27-.78,1,1,0,0,1,0-1c.13-.18.57-.18.83,0a5.59,5.59,0,0,1,.93,1l.1.16.68-.11c.6-.12.7-.12,1,0s.54.33.54.52a.18.18,0,0,1,0,.12c-.1.2-.26.2-.39,0s-.46-.28-1-.19-.57.14-.44.28.3.57.58,1.14.54,1.2.69,1.5Zm-2.91-3.65c.26.31.78.56.78.38a4,4,0,0,0-.83-.88c-.13-.06-.15,0-.15.12a.76.76,0,0,0,.17.4Z" transform="translate(-196.93 -72.68)"/><path d="M330.26,279.85c-.13.08-.38-.08-.8-.65a4.34,4.34,0,0,1-1-2.71c0-.34,0-.42-.13-.46a2.45,2.45,0,0,1-.87-.88.68.68,0,0,1,.11-.85c.45-.46,1.36-.33,2.36.33a1.93,1.93,0,0,1,.52.41,1.78,1.78,0,0,0,.18.28.72.72,0,0,1,.15.45.57.57,0,0,1-.16.42,1.17,1.17,0,0,1-1.3.17l-.36-.1v.32a4.12,4.12,0,0,0,1,2.42c.41.53.53.73.38.83Zm-1.75-4.22.13-.19a2,2,0,0,1,.45-.42l.29-.16-.37-.16a1.38,1.38,0,0,0-1.06-.19c-.24.1-.24.24,0,.56a1.25,1.25,0,0,0,.38.41Zm.93.35c.5.08.76,0,.79-.18v-.06a.71.71,0,0,0-.65-.43.57.57,0,0,0-.45.22c-.1.12-.15.24-.13.28a1.24,1.24,0,0,0,.44.15Z" transform="translate(-196.93 -72.68)"/><path d="M330.28,286.47c-.08,0-.26-.11-.49-.33a11.32,11.32,0,0,1-2-2.43c-.41-.73-.36-1.22.14-1.45.29-.14.6-.1,1.48.17a2.26,2.26,0,0,0,.65.15c.1-.1-.64-1.1-1.23-1.65a6,6,0,0,1-1.24-1.45.41.41,0,0,1,.13-.26.48.48,0,0,1,.4-.08,7,7,0,0,1,2.43,1.18c0,.08,0,.14-.06.22s-.15.12-.46-.06a13.52,13.52,0,0,0-1.74-.83c-.13,0,.05.18.62.75,1.31,1.35,1.75,2.1,1.41,2.45-.19.2-.55.17-1.25-.06s-1.12-.25-1.17-.11c-.13.36.58,1.46,1.87,2.89.51.57.59.76.36.83Z" transform="translate(-196.93 -72.68)"/><path d="M330.07,289.88c.28.57.27.74,0,.73s-.23-.12-.43-.55-.46-1-.77-1.64l-.59-1.16-.41-.05a1.61,1.61,0,0,1-1.27-.78,1,1,0,0,1,0-1c.13-.18.57-.18.83,0a5.59,5.59,0,0,1,.93,1l.1.16.68-.11c.6-.12.7-.12,1,0s.54.32.54.51a.18.18,0,0,1,0,.12c-.1.2-.26.2-.39,0s-.46-.28-1-.19-.57.14-.44.28.3.57.58,1.14.54,1.2.69,1.5Zm-2.91-3.65c.26.31.78.56.78.38a4.19,4.19,0,0,0-.83-.88c-.13-.06-.15,0-.15.12a.76.76,0,0,0,.17.4Z" transform="translate(-196.93 -72.68)"/><path d="M330.1,305.5c-.11.25-.37.08-1.19-.75-1.55-1.6-2-2.27-1.85-2.9a1.21,1.21,0,0,1,.24-.32c.19-.16.26-.18.86-.17a4.47,4.47,0,0,1,1.35.21c1,.32,1,.32.39-.09a10.08,10.08,0,0,1-2.09-1.64c-.41-.59-.25-1.12.35-1.11a3.46,3.46,0,0,1,2.17,1.11.59.59,0,0,1-.08.91L330,301l.75.43c.69.41,1.76,1,4,2.15.82.43,1.11.61,1.11.76a.23.23,0,0,1-.06.12c-.13.16-.23.14-.77-.15-2.2-1.18-6.43-2.63-7.16-2.46-.52.12-.17.87,1,2.08s1.39,1.53,1.34,1.65Zm-1.22-5.29c.61.47.64.47.85.37s.29-.17.29-.28a.71.71,0,0,0,0-.16,3.62,3.62,0,0,0-1.89-.95c-.18.06.15.47.82,1Z" transform="translate(-196.93 -72.68)"/><path d="M330,310.66c-.13.08-.39-.08-.8-.65a4.32,4.32,0,0,1-1-2.7c0-.35,0-.43-.13-.47a2.3,2.3,0,0,1-.87-.88.68.68,0,0,1,.11-.85c.44-.46,1.35-.33,2.36.33a2.13,2.13,0,0,1,.52.41,1.26,1.26,0,0,0,.18.28.74.74,0,0,1,.15.45.61.61,0,0,1-.16.42,1.17,1.17,0,0,1-1.3.17l-.37-.1v.32a4.1,4.1,0,0,0,1,2.42c.41.53.54.73.38.83Zm-1.75-4.22.13-.18a2.16,2.16,0,0,1,.44-.42l.29-.16-.36-.17a1.42,1.42,0,0,0-1.06-.19c-.24.1-.24.24,0,.57a1.35,1.35,0,0,0,.39.4Zm.93.35c.49.09.75,0,.78-.17v-.06c0-.21-.36-.43-.64-.43a.52.52,0,0,0-.45.21c-.1.12-.16.24-.13.29a1.21,1.21,0,0,0,.44.14Z" transform="translate(-196.93 -72.68)"/><path d="M329.86,316.55c-.18.08-.31,0-1-.8a5.41,5.41,0,0,1-1.53-2.62c0-.59.55-.73,1-.68l.52,0-.57-.55c-.9-.9-1.05-1.36-.58-1.66.29-.18,1,0,1.84.38s.86.49.64.69-.15.08-.67-.16c-.31-.15-.7-.31-.88-.38-.36-.12-.78-.15-.78-.05a8.53,8.53,0,0,0,1.36,1.52c.75.73.85.91.57,1a3,3,0,0,1-.83-.19,6.1,6.1,0,0,0-.91-.23c-.68,0-.14,1.09,1.4,2.89.16.16.28.32.39.45s.18.3,0,.36Z" transform="translate(-196.93 -72.68)"/><path d="M329.3,320.59c.62.72.75,1,.44,1a1.48,1.48,0,0,1-.54-.43,13,13,0,0,1-1.72-2.37,3.13,3.13,0,0,1-.46-1.74.89.89,0,0,0,.08-.26,1.12,1.12,0,0,1,1.39-.7c1.17.26,2.07,1.16,1.78,1.76-.19.38-1.07.54-1.07.19,0-.16.1-.22.42-.28a.45.45,0,0,0,.26-.12c.05-.16-.54-.71-1-.92-.75-.35-1.19-.27-1.32.21-.22.75.26,1.85,1.81,3.64Z" transform="translate(-196.93 -72.68)"/><path d="M329.36,325.29c.72.73.52.81.36.79a2.58,2.58,0,0,1-.85-.68c-1.49-1.51-2.06-2.55-1.87-3.43a1.14,1.14,0,0,1,1.29-1c.91.09,1.89,1,1.88,1.59a.49.49,0,0,1-.08.25c-.21.34-.68.31-1.12-.1a1,1,0,0,1-.33-.71c0-.4.06-.44-.1-.5a1,1,0,0,0-.47,0q-.61,0-.63.78c0,.71.58,1.63,1.95,3Zm.11-3.24c-.15-.14-.23-.16-.28-.1s-.08.12.07.38.42.37.49.29v0a1.11,1.11,0,0,0-.35-.55Z" transform="translate(-196.93 -72.68)"/><path d="M329.69,329.54c.28.57.28.73,0,.73s-.24-.13-.44-.55-.46-1-.77-1.65l-.58-1.16-.42,0a1.62,1.62,0,0,1-1.26-.78,1,1,0,0,1-.05-1c.14-.19.58-.18.84,0a6.84,6.84,0,0,1,.92,1l.1.17.68-.12c.6-.11.7-.11,1,0s.54.33.54.51a.18.18,0,0,1,0,.12c-.1.2-.26.2-.39,0s-.46-.29-1-.19-.57.13-.44.28.31.57.59,1.14.53,1.19.68,1.5Zm-2.91-3.65c.26.31.78.55.78.37a4.68,4.68,0,0,0-.82-.88c-.13-.06-.16,0-.16.12a.73.73,0,0,0,.18.41Z" transform="translate(-196.93 -72.68)"/><line class="cls-9" x1="112.57" y1="164.08" x2="111.35" y2="292.38"/><line class="cls-9" x1="129.5" y1="164.24" x2="128.28" y2="292.54"/><path d="M312.16,266.65c4.31,1.3,8.6,4.07,10.65,7,.83,1.16,1.33,2.82-.52,3.27a7.42,7.42,0,0,1-3-.41,9.56,9.56,0,0,1-3.11-1.55c-.05-.25.21-.2,1,.21a12.29,12.29,0,0,0,3.58,1.27,2.62,2.62,0,0,0,1.38.05c1.23-.25,1.13-1.3.18-2.63a20.46,20.46,0,0,0-8-5.88c-2.75-1.18-5.66-1.69-7.12-1.26-1.77.53-1.5,2,.69,3.73.34.26,1,.76,1.56,1.08,1.47,1,2.87,1.81,2.89,1.79a7.29,7.29,0,0,0-.3-1.38c-.1-.26,0-.4.21-.34s.21.15.34.51c.38,1.2.52,3,.25,3.14s-.31,0-.28-.27a2.37,2.37,0,0,0,0-.6l-.05-.35-.78-.37a40.25,40.25,0,0,0-6.77-2.49c-.51-.09-.64-.21-.38-.37a1,1,0,0,1,.6,0,36.05,36.05,0,0,1,3.91,1.23c.44.16.49.16.34,0-2.25-1.56-2.87-2.09-3.43-3a1.69,1.69,0,0,1-.11-2,3.18,3.18,0,0,1,2.45-1,14.82,14.82,0,0,1,3.82.56Z" transform="translate(-196.93 -72.68)"/><path d="M312.85,281.31c.21.45.21.65,0,.65-.08,0-.18-.11-.28-.27a2.48,2.48,0,0,1-.3-1.05,1.15,1.15,0,0,1,.47-1.13c.14-.1.24-.2.24-.24a12.15,12.15,0,0,0-1.91-1.58,4.22,4.22,0,0,1-.88-.73.29.29,0,0,1,.11-.19c.16-.12.86.11,1.94.65s1.09.6.88.78-.13.1-.44-.05-.31-.14.31.47.77.86.25,1.1a.66.66,0,0,0-.48.74,2,2,0,0,0,.18.83Z" transform="translate(-196.93 -72.68)"/><path d="M312.44,286.51c.72.73.51.81.36.79a2.58,2.58,0,0,1-.85-.68c-1.5-1.51-2.06-2.55-1.87-3.43a1.13,1.13,0,0,1,1.28-1c.91.09,1.89,1,1.89,1.59a.46.46,0,0,1-.08.24c-.21.35-.68.32-1.12-.09a.94.94,0,0,1-.33-.71c0-.4,0-.44-.1-.51a1.16,1.16,0,0,0-.47,0q-.63,0-.63.78c0,.71.58,1.63,2,3Zm.11-3.24c-.16-.14-.23-.16-.29-.1s-.08.12.08.38.41.37.49.29v0a1.15,1.15,0,0,0-.36-.55Zm1.17-.33a3.43,3.43,0,0,1,1.09,1.12c0,.38-.22.3-.73-.27S313.41,282.89,313.72,282.94Z" transform="translate(-196.93 -72.68)"/><path d="M313,292.91c-.1.18-.26.09-.57-.39l-.38-.66c-.74-1.34-1-1.73-1.26-1.85s-.59-.33-1.11-.6a12.92,12.92,0,0,1-3.08-2.13c-.95-.94-1.3-1.83-.89-2.19s1.8.26,3.26,1.87c.67.73,1.55,1.79,2,2.34.2.27.31.33,1,.54a4.22,4.22,0,0,0,.81.19c.13-.12-.15-.47-1.19-1.49s-1.39-1.45-1.28-1.79c.16-.61,1.54-.25,2.52.65.44.39.49.47.51.77s0,.39-.16.55a1.12,1.12,0,0,1-.31.22c-.11,0-.08.1.17.46s.36.72.12.94-.21.16-.62.11a4.37,4.37,0,0,1-.65-.09c-.16,0-.13,0,.2.57a10.69,10.69,0,0,1,.74,1.39,2.17,2.17,0,0,1,.21.58V293Zm-4-4.57c.75.45,1.09.67,1.09.61a7,7,0,0,0-.7-.87c-1.31-1.55-2.65-2.7-3.2-2.71-.21,0-.23,0-.18.21a2,2,0,0,0,.23.48,8.74,8.74,0,0,0,2.71,2.29Zm2.5-.47c.57.56.88.8.93.76l.24-.18c.07,0,.1-.06.1-.1a.57.57,0,0,0-.1-.24,3.84,3.84,0,0,0-1.5-1.07c-.78-.29-.73-.15.3.85Z" transform="translate(-196.93 -72.68)"/><path d="M312.77,298.2c-.13.08-.39-.08-.8-.65a4.32,4.32,0,0,1-1-2.7c0-.35,0-.43-.13-.47a2.39,2.39,0,0,1-.88-.88.69.69,0,0,1,.12-.85c.44-.46,1.35-.33,2.36.33a2.41,2.41,0,0,1,.52.41,1.54,1.54,0,0,0,.18.29.69.69,0,0,1,.15.44.61.61,0,0,1-.16.42,1.16,1.16,0,0,1-1.3.17l-.37-.1v.32a4.1,4.1,0,0,0,1,2.42c.41.53.54.73.38.83ZM311,294l.13-.18a2.16,2.16,0,0,1,.44-.42l.29-.16-.36-.17a1.42,1.42,0,0,0-1.06-.19c-.24.1-.24.24,0,.57a1.52,1.52,0,0,0,.39.41Zm.93.35c.49.09.75,0,.78-.17v-.06c0-.21-.36-.43-.64-.43a.52.52,0,0,0-.45.21c-.1.12-.16.25-.13.29a1.21,1.21,0,0,0,.44.14Z" transform="translate(-196.93 -72.68)"/><path d="M312.3,301.44c.54.65.64.91.38.95-.05,0-.21-.16-.44-.41a16.68,16.68,0,0,1-1.44-1.93,2.87,2.87,0,0,1-.66-1.61.64.64,0,0,1,.24-.56.63.63,0,0,1,.5-.22,4.11,4.11,0,0,1,1.53.5c.54.29.77.45.77.59s-.05.13-.13.19-.23,0-.86-.28c-1.16-.57-1.6-.62-1.61-.13a7.44,7.44,0,0,0,1.72,2.93Zm1.87-2.21c.15-.06.8.33.77.47s-.26.26-.57.06S314,299.31,314.17,299.23Z" transform="translate(-196.93 -72.68)"/><path d="M312.62,306.17c.2.45.2.65,0,.65-.08,0-.19-.1-.29-.26a2.68,2.68,0,0,1-.3-1.06,1.13,1.13,0,0,1,.48-1.13c.13-.1.23-.2.23-.24a11.28,11.28,0,0,0-1.91-1.57,3.92,3.92,0,0,1-.87-.74.27.27,0,0,1,.1-.18c.16-.12.86.11,2,.64.93.46,1.08.6.88.78s-.14.1-.45,0-.31-.15.31.46.77.86.25,1.1a.67.67,0,0,0-.47.74,1.86,1.86,0,0,0,.17.84Z" transform="translate(-196.93 -72.68)"/><path d="M312.18,311.37c.72.74.51.82.36.79a2.55,2.55,0,0,1-.86-.67c-1.49-1.51-2.05-2.55-1.86-3.44a1.13,1.13,0,0,1,1.28-1c.91.09,1.89,1,1.88,1.6a.38.38,0,0,1-.08.24c-.21.34-.68.32-1.11-.09a1,1,0,0,1-.34-.71c0-.41.06-.45-.1-.51a1.3,1.3,0,0,0-.46-.05c-.42,0-.63.28-.63.79,0,.71.58,1.62,1.94,3Zm.11-3.24c-.16-.14-.24-.16-.29-.1s-.08.12.08.39.41.36.49.28v0a1.2,1.2,0,0,0-.36-.55Z" transform="translate(-196.93 -72.68)"/><path d="M312.05,324.54c.72.74.51.82.36.79a2.47,2.47,0,0,1-.85-.67c-1.5-1.51-2.06-2.55-1.87-3.44a1.14,1.14,0,0,1,1.28-1c.91.09,1.9,1,1.89,1.6a.46.46,0,0,1-.08.24c-.21.34-.68.32-1.12-.09a1,1,0,0,1-.33-.71c0-.41.05-.45-.1-.51a1.15,1.15,0,0,0-.47,0c-.41,0-.63.27-.63.78,0,.71.58,1.62,1.95,3Zm.11-3.23c-.15-.15-.23-.17-.28-.11s-.08.12.07.39.41.37.49.28v0a1.2,1.2,0,0,0-.36-.55Z" transform="translate(-196.93 -72.68)"/><path d="M316.45,330c-.05,2.3-.07,2.42-.41,2.38s-.26-.39-.13-.53a34.53,34.53,0,0,0,.07-4c-.05-.25-.11-.29-.6-.51-.28-.15-.93-.46-1.42-.69-6.89-3.2-8.32-3.74-8.81-3.74a1.07,1.07,0,0,1-.44-.07.29.29,0,0,1,.05-.48c.29-.14,2.44.67,5.16,1.91l3,1.36,2.07.95a5.3,5.3,0,0,0,.93.38,30,30,0,0,0-.17-3.28c-.08-.49-.08-.55.05-.63s.32,0,.41.61a30.89,30.89,0,0,1,.23,3.2v.4l.88.46c.62.33.88.49.91.59,0,.29-.24.26-1-.09-.39-.18-.72-.33-.75-.33s-.06,1-.1,2.17Z" transform="translate(-196.93 -72.68)"/><path d="M303.67,338.6a1.36,1.36,0,0,1,1.91-.71,4.46,4.46,0,0,1,1.52,1.31,4.16,4.16,0,0,1,1,1.73.54.54,0,0,1-.47.59c-.16,0-.18-.25-.05-.33.29-.16-.35-1.19-1.34-2.15s-1.57-1.07-2-.59c-.16.16-.19.24-.19.68a3.33,3.33,0,0,0,.12,1c.7,2.61,2.14,4.59,3.36,4.62.7,0,1-.37,2.37-3.07a6.37,6.37,0,0,1,2.89-3.25,2.21,2.21,0,0,1,1.39-.25,2.35,2.35,0,0,1,1.45.32,10.32,10.32,0,0,1,3.13,2.47,12.73,12.73,0,0,1,3.6,6.51c.2,1.4-.46,2.12-1.84,2a4.39,4.39,0,0,1-.93-.19,15.2,15.2,0,0,1-4.38-2.31c-1.16-.82-2-1.56-1.88-1.72s.31-.14.67.19a22.08,22.08,0,0,0,4.14,2.71,10.08,10.08,0,0,0,1.79.69,2,2,0,0,0,1.66-.05c.32-.24.4-.62.28-1.37-.27-1.91-1.78-4.43-3.89-6.53-2.53-2.52-4.24-2.9-6-1.34a9.25,9.25,0,0,0-2,3,18.65,18.65,0,0,1-1.14,2c-1.18,1.41-2.9.64-4.22-1.9-.74-1.42-1.2-3.29-1-4Z" transform="translate(-196.93 -72.68)"/><path d="M312.1,352.5c.33.39.31.49,0,.49a1,1,0,0,1-.36-.22,10.74,10.74,0,0,1-1.63-1.68c-.64-.9-.71-1.4-.29-1.8a.76.76,0,0,1,.7-.24H311l-.47-.49c-.9-.93-1.21-1.6-.92-2s2,.2,2.7,1.2a1.35,1.35,0,0,1,.3.77.65.65,0,0,1-.47.63l-.26.1.21.2c.23.22.25.31.1.43s-.21.05-.63-.13a1.86,1.86,0,0,0-1.32-.24c-.13.08-.16.14-.14.39.05.46.44,1,1.39,2,.26.27.46.47.59.64ZM311,348.43c.44.47.47.49.73.43a1,1,0,0,0,.34-.14.16.16,0,0,0,.05-.1c0-.44-1.18-1.57-1.94-1.72-.33-.06-.31.06.08.59.18.22.51.63.77.9Z" transform="translate(-196.93 -72.68)"/><path d="M311.64,357c.62.72.74,1,.43,1-.08,0-.28-.17-.54-.43a13.18,13.18,0,0,1-1.72-2.37,3.09,3.09,0,0,1-.45-1.74s.05-.16.08-.26a1.11,1.11,0,0,1,1.38-.7c1.17.26,2.07,1.16,1.78,1.76-.18.38-1.07.54-1.07.19,0-.16.11-.22.42-.28a.41.41,0,0,0,.26-.12c.06-.16-.54-.71-1-.92-.75-.35-1.2-.27-1.33.21-.22.75.27,1.85,1.81,3.64Z" transform="translate(-196.93 -72.68)"/><path d="M312.14,364.46c-.05,0-.21-.08-.41-.24a9.66,9.66,0,0,1-1.88-2.27.92.92,0,0,1,.35-1.27,4.67,4.67,0,0,1,.91-.07,2,2,0,0,0,.68-.05,7.72,7.72,0,0,0-1.44-1.8,6.14,6.14,0,0,1-.88-1,.33.33,0,0,1,.11-.2c.16-.12.39-.08,1.32.26,2.05.74,7.12,3.54,7.3,4,.08.18,0,.3-.21.26a6.28,6.28,0,0,1-1-.55c-1.21-.74-2.66-1.55-3.88-2.17a19.79,19.79,0,0,0-2.51-1.11,3.27,3.27,0,0,0,.56.67,4.26,4.26,0,0,1,1.18,1.71.63.63,0,0,1-.1.28c-.11.12-.24.14-1.05.18h-.54c-.39,0-.39.08-.42.28s0,.36.33.79,1.39,1.68,1.52,1.86.2.32,0,.38Z" transform="translate(-196.93 -72.68)"/><path d="M311.94,369.48c.33.39.3.49,0,.48a1,1,0,0,1-.36-.22,10.74,10.74,0,0,1-1.63-1.68c-.64-.89-.71-1.4-.29-1.8.23-.22.31-.24.7-.24h.45l-.47-.49c-.9-.94-1.21-1.61-.92-2s2,.2,2.7,1.2a1.32,1.32,0,0,1,.3.77.65.65,0,0,1-.47.62l-.26.1.2.2c.24.23.26.31.1.43s-.21.06-.62-.13a1.83,1.83,0,0,0-1.32-.23c-.14.08-.16.14-.14.38.05.47.43,1,1.39,2,.26.26.46.47.59.63Zm-1.11-4.08c.44.47.46.49.73.43a.83.83,0,0,0,.33-.13.17.17,0,0,0,.06-.11c0-.44-1.18-1.57-1.94-1.71-.34-.07-.31.05.07.58.19.23.52.64.78.9Z" transform="translate(-196.93 -72.68)"/></g></svg>