<svg width="139" height="133" viewBox="0 0 139 133" fill="none" xmlns="http://www.w3.org/2000/svg">
<g opacity="0.8" filter="url(#filter0_bd)">
<circle cx="10.1241" cy="89.1799" r="7" transform="rotate(-81.7432 10.1241 89.1799)" fill="#121212"/>
<circle cx="10.1241" cy="89.1799" r="7" transform="rotate(-81.7432 10.1241 89.1799)" stroke="#121212"/>
<path fill-rule="evenodd" clip-rule="evenodd" d="M97.6712 22.0568C98.8609 13.8584 93.1792 6.24785 84.9808 5.05815C76.7824 3.86844 69.1718 9.5501 67.9821 17.7485C66.7924 25.9469 72.4741 33.5575 80.6725 34.7472C88.8709 35.9369 96.4814 30.2552 97.6712 22.0568ZM95.9247 21.8034C96.9745 14.5695 91.9613 7.8543 84.7274 6.80456C77.4935 5.75482 70.7783 10.7681 69.7285 18.0019C68.6788 25.2358 73.692 31.951 80.9259 33.0008C88.1598 34.0505 94.875 29.0373 95.9247 21.8034Z" fill="#121212"/>
<circle cx="50.7617" cy="66.7836" r="4" transform="rotate(-81.7432 50.7617 66.7836)" fill="#121212"/>
<circle cx="50.7617" cy="66.7836" r="4" transform="rotate(-81.7432 50.7617 66.7836)" stroke="#121212"/>
<circle cx="91.9765" cy="103.079" r="16" transform="rotate(-81.7432 91.9765 103.079)" fill="#121212"/>
<circle cx="91.9765" cy="103.079" r="16" transform="rotate(-81.7432 91.9765 103.079)" stroke="#121212"/>
<circle cx="14.6386" cy="30.2171" r="6" transform="rotate(-81.7432 14.6386 30.2171)" fill="#121212"/>
<circle cx="14.6386" cy="30.2171" r="6" transform="rotate(-81.7432 14.6386 30.2171)" stroke="#121212"/>
<path fill-rule="evenodd" clip-rule="evenodd" d="M115.728 106.525C117.631 93.4079 108.541 81.231 95.4232 79.3275C82.3057 77.424 70.1288 86.5146 68.2253 99.6321C66.3218 112.75 75.4124 124.926 88.5299 126.83C101.647 128.733 113.824 119.643 115.728 106.525ZM113.271 106.169C114.977 94.4084 106.827 83.4911 95.0666 81.7845C83.3062 80.0779 72.3889 88.2282 70.6823 99.9886C68.9757 111.749 77.126 122.666 88.8864 124.373C100.647 126.08 111.564 117.929 113.271 106.169Z" fill="#121212"/>
<path fill-rule="evenodd" clip-rule="evenodd" d="M25.5246 31.7966C26.397 25.7845 22.2304 20.2034 16.2183 19.331C10.2061 18.4585 4.62505 22.6251 3.7526 28.6372C2.88014 34.6494 7.0467 40.2305 13.0589 41.1029C19.071 41.9754 24.6521 37.8088 25.5246 31.7966ZM23.451 31.4957C24.1573 26.6288 20.7844 22.1107 15.9174 21.4045C11.0504 20.6982 6.53239 24.0711 5.82612 28.9381C5.11985 33.8051 8.49277 38.3231 13.3598 39.0294C18.2267 39.7357 22.7448 36.3627 23.451 31.4957Z" fill="#121212"/>
<path fill-rule="evenodd" clip-rule="evenodd" d="M135.055 63.8589C135.769 58.9399 132.36 54.3736 127.441 53.6597C122.522 52.9459 117.956 56.3549 117.242 61.274C116.528 66.193 119.937 70.7593 124.856 71.4732C129.775 72.187 134.342 68.778 135.055 63.8589ZM133.359 63.6128C133.937 59.6307 131.177 55.9341 127.195 55.3563C123.213 54.7784 119.516 57.5381 118.939 61.5201C118.361 65.5022 121.12 69.1988 125.102 69.7766C129.085 70.3545 132.781 67.5948 133.359 63.6128Z" fill="#121212"/>
<path d="M16.5898 86.4521L39.4292 75.2439" stroke="#121212"/>
<line x1="41.6548" y1="57.7781" x2="22.3242" y2="37.7948" stroke="#121212"/>
<line x1="58.9932" y1="55.6408" x2="74.6027" y2="31.6336" stroke="#121212"/>
<line x1="23.9152" y1="28.0443" x2="69.1824" y2="22.4875" stroke="#121212"/>
<line x1="62.9496" y1="75.2007" x2="75.512" y2="86.118" stroke="#121212"/>
<line x1="81.3057" y1="33.656" x2="90.821" y2="79.4976" stroke="#121212"/>
<line x1="114.13" y1="95.2554" x2="124.397" y2="71.2763" stroke="#121212"/>
<line x1="95.9736" y1="27.1317" x2="120.323" y2="56.2924" stroke="#121212"/>
<path d="M16.5898 91.4521L68.5898 106.452" stroke="#121212"/>
<path fill-rule="evenodd" clip-rule="evenodd" d="M49.3544 81.7207C54.7482 82.2243 60.23 79.7797 63.3685 74.912C65.2321 72.0215 65.9765 68.731 65.7116 65.5497L62.885 66.0807C63.031 68.5635 62.4181 71.1134 60.9672 73.3638C58.5251 77.1513 54.3305 79.1267 50.131 78.9123L49.3544 81.7207ZM45.2829 77.6214C44.9091 77.4319 44.5416 77.2213 44.1817 76.9893C40.7652 74.7865 38.8232 71.1577 38.6328 67.3857L35.7744 67.4295C35.9807 72.124 38.3835 76.6504 42.6334 79.3905C43.2673 79.7992 43.9203 80.1541 44.5873 80.4563L45.2829 77.6214ZM36.0185 63.9983L38.9641 63.8948C39.2768 62.618 39.8038 61.3706 40.5562 60.2037C44.1902 54.5674 51.7053 52.9442 57.3417 56.5782C59.8746 58.2114 61.5971 60.6283 62.3962 63.3063L65.1957 62.7016C64.2375 59.3086 62.086 56.2376 58.8899 54.1769C51.9274 49.6878 42.644 51.6929 38.1549 58.6555C37.0722 60.3347 36.3673 62.1489 36.0185 63.9983Z" fill="#121212"/>
<line x1="14.0885" y1="40.4878" x2="11.0885" y2="82.4878" stroke="#121212"/>
</g>
<defs>
<filter id="filter0_bd" x="-12.8271" y="-12.0959" width="164.175" height="157.373" filterUnits="userSpaceOnUse" color-interpolation-filters="sRGB">
<feFlood flood-opacity="0" result="BackgroundImageFix"/>
<feGaussianBlur in="BackgroundImage" stdDeviation="7.5"/>
<feComposite in2="SourceAlpha" operator="in" result="effect1_backgroundBlur"/>
<feColorMatrix in="SourceAlpha" type="matrix" values="0 0 0 0 0 0 0 0 0 0 0 0 0 0 0 0 0 0 127 0"/>
<feMorphology radius="2" operator="dilate" in="SourceAlpha" result="effect2_dropShadow"/>
<feOffset dx="2" dy="2"/>
<feGaussianBlur stdDeviation="5"/>
<feColorMatrix type="matrix" values="0 0 0 0 0 0 0 0 0 0 0 0 0 0 0 0 0 0 0.25 0"/>
<feBlend mode="normal" in2="effect1_backgroundBlur" result="effect2_dropShadow"/>
<feBlend mode="normal" in="SourceGraphic" in2="effect2_dropShadow" result="shape"/>
</filter>
</defs>
</svg>
